solid Exported from Blender-2.80 (sub 75)
facet normal 0.125196 -0.766929 -0.629402
outer loop
vertex 0.000000 -0.831470 -0.555570
vertex 0.000000 -0.707107 -0.707107
vertex 0.270598 -0.707107 -0.653281
endloop
endfacet
facet normal 0.125195 -0.766928 -0.629402
outer loop
vertex 0.000000 -0.831470 -0.555570
vertex 0.270598 -0.707107 -0.653281
vertex 0.212608 -0.831470 -0.513280
endloop
endfacet
facet normal 0.172787 0.464306 -0.868657
outer loop
vertex 0.000000 0.382683 -0.923880
vertex 0.000000 0.555570 -0.831470
vertex 0.318190 0.555570 -0.768178
endloop
endfacet
facet normal 0.172786 0.464306 -0.868657
outer loop
vertex 0.000000 0.382683 -0.923880
vertex 0.318190 0.555570 -0.768178
vertex 0.353554 0.382683 -0.853553
endloop
endfacet
facet normal 0.093357 -0.878070 -0.469338
outer loop
vertex 0.000000 -0.923880 -0.382683
vertex 0.000000 -0.831470 -0.555570
vertex 0.212608 -0.831470 -0.513280
endloop
endfacet
facet normal 0.093357 -0.878070 -0.469338
outer loop
vertex 0.000000 -0.923880 -0.382683
vertex 0.212608 -0.831470 -0.513280
vertex 0.146447 -0.923880 -0.353553
endloop
endfacet
facet normal 0.186990 0.285165 -0.940062
outer loop
vertex 0.000000 0.195090 -0.980785
vertex 0.000000 0.382683 -0.923880
vertex 0.353554 0.382683 -0.853553
endloop
endfacet
facet normal 0.186990 0.285165 -0.940062
outer loop
vertex 0.000000 0.195090 -0.980785
vertex 0.353554 0.382683 -0.853553
vertex 0.375330 0.195090 -0.906127
endloop
endfacet
facet normal 0.057645 -0.955349 -0.289802
outer loop
vertex 0.000000 -0.980785 -0.195090
vertex 0.000000 -0.923880 -0.382683
vertex 0.146447 -0.923880 -0.353553
endloop
endfacet
facet normal 0.057645 -0.955349 -0.289801
outer loop
vertex 0.000000 -0.980785 -0.195090
vertex 0.146447 -0.923880 -0.353553
vertex 0.074658 -0.980785 -0.180240
endloop
endfacet
facet normal 0.194186 0.096152 -0.976241
outer loop
vertex 0.000000 0.000000 -1.000000
vertex 0.000000 0.195090 -0.980785
vertex 0.375330 0.195090 -0.906127
endloop
endfacet
facet normal 0.194187 0.096152 -0.976241
outer loop
vertex 0.000000 0.000000 -1.000000
vertex 0.375330 0.195090 -0.906127
vertex 0.382684 0.000000 -0.923880
endloop
endfacet
facet normal 0.019493 0.994996 -0.097998
outer loop
vertex 0.000000 0.980785 -0.195090
vertex -0.000000 1.000000 0.000000
vertex 0.074658 0.980785 -0.180240
endloop
endfacet
facet normal 0.019493 -0.994996 -0.097999
outer loop
vertex 0.000000 -1.000000 0.000000
vertex 0.000000 -0.980785 -0.195090
vertex 0.074658 -0.980785 -0.180240
endloop
endfacet
facet normal 0.194187 -0.096151 -0.976241
outer loop
vertex 0.000000 -0.195090 -0.980785
vertex 0.000000 0.000000 -1.000000
vertex 0.382684 0.000000 -0.923880
endloop
endfacet
facet normal 0.194186 -0.096151 -0.976241
outer loop
vertex 0.000000 -0.195090 -0.980785
vertex 0.382684 0.000000 -0.923880
vertex 0.375330 -0.195090 -0.906127
endloop
endfacet
facet normal 0.057645 0.955349 -0.289802
outer loop
vertex 0.000000 0.923880 -0.382683
vertex 0.000000 0.980785 -0.195090
vertex 0.074658 0.980785 -0.180240
endloop
endfacet
facet normal 0.057645 0.955349 -0.289802
outer loop
vertex 0.000000 0.923880 -0.382683
vertex 0.074658 0.980785 -0.180240
vertex 0.146447 0.923880 -0.353553
endloop
endfacet
facet normal 0.186990 -0.285165 -0.940062
outer loop
vertex 0.000000 -0.382683 -0.923880
vertex 0.000000 -0.195090 -0.980785
vertex 0.375330 -0.195090 -0.906127
endloop
endfacet
facet normal 0.186990 -0.285165 -0.940062
outer loop
vertex 0.000000 -0.382683 -0.923880
vertex 0.375330 -0.195090 -0.906127
vertex 0.353554 -0.382683 -0.853553
endloop
endfacet
facet normal 0.093357 0.878070 -0.469337
outer loop
vertex 0.000000 0.831470 -0.555570
vertex 0.000000 0.923880 -0.382683
vertex 0.146447 0.923880 -0.353553
endloop
endfacet
facet normal 0.093357 0.878070 -0.469338
outer loop
vertex 0.000000 0.831470 -0.555570
vertex 0.146447 0.923880 -0.353553
vertex 0.212608 0.831470 -0.513280
endloop
endfacet
facet normal 0.172787 -0.464306 -0.868657
outer loop
vertex 0.000000 -0.555570 -0.831470
vertex 0.000000 -0.382683 -0.923880
vertex 0.353554 -0.382683 -0.853553
endloop
endfacet
facet normal 0.172787 -0.464307 -0.868657
outer loop
vertex 0.000000 -0.555570 -0.831470
vertex 0.353554 -0.382683 -0.853553
vertex 0.318190 -0.555570 -0.768178
endloop
endfacet
facet normal 0.125196 0.766928 -0.629402
outer loop
vertex 0.000000 0.707107 -0.707107
vertex 0.000000 0.831470 -0.555570
vertex 0.212608 0.831470 -0.513280
endloop
endfacet
facet normal 0.125196 0.766928 -0.629402
outer loop
vertex 0.000000 0.707107 -0.707107
vertex 0.212608 0.831470 -0.513280
vertex 0.270598 0.707107 -0.653281
endloop
endfacet
facet normal 0.151975 -0.627024 -0.764031
outer loop
vertex 0.000000 -0.707107 -0.707107
vertex 0.000000 -0.555570 -0.831470
vertex 0.318190 -0.555570 -0.768178
endloop
endfacet
facet normal 0.151976 -0.627024 -0.764032
outer loop
vertex 0.000000 -0.707107 -0.707107
vertex 0.318190 -0.555570 -0.768178
vertex 0.270598 -0.707107 -0.653281
endloop
endfacet
facet normal 0.151975 0.627024 -0.764031
outer loop
vertex 0.000000 0.555570 -0.831470
vertex 0.000000 0.707107 -0.707107
vertex 0.270598 0.707107 -0.653281
endloop
endfacet
facet normal 0.151975 0.627024 -0.764031
outer loop
vertex 0.000000 0.555570 -0.831470
vertex 0.270598 0.707107 -0.653281
vertex 0.318190 0.555570 -0.768178
endloop
endfacet
facet normal 0.432789 -0.627025 -0.647714
outer loop
vertex 0.270598 -0.707107 -0.653281
vertex 0.318190 -0.555570 -0.768178
vertex 0.587938 -0.555570 -0.587938
endloop
endfacet
facet normal 0.432789 -0.627024 -0.647714
outer loop
vertex 0.270598 -0.707107 -0.653281
vertex 0.587938 -0.555570 -0.587938
vertex 0.500000 -0.707107 -0.500000
endloop
endfacet
facet normal 0.432789 0.627024 -0.647714
outer loop
vertex 0.318190 0.555570 -0.768178
vertex 0.270598 0.707107 -0.653281
vertex 0.500000 0.707107 -0.500000
endloop
endfacet
facet normal 0.432789 0.627024 -0.647715
outer loop
vertex 0.318190 0.555570 -0.768178
vertex 0.500000 0.707107 -0.500000
vertex 0.587938 0.555570 -0.587938
endloop
endfacet
facet normal 0.356528 -0.766928 -0.533581
outer loop
vertex 0.212608 -0.831470 -0.513280
vertex 0.270598 -0.707107 -0.653281
vertex 0.500000 -0.707107 -0.500000
endloop
endfacet
facet normal 0.356528 -0.766928 -0.533581
outer loop
vertex 0.212608 -0.831470 -0.513280
vertex 0.500000 -0.707107 -0.500000
vertex 0.392848 -0.831470 -0.392847
endloop
endfacet
facet normal 0.492054 0.464307 -0.736411
outer loop
vertex 0.353554 0.382683 -0.853553
vertex 0.318190 0.555570 -0.768178
vertex 0.587938 0.555570 -0.587938
endloop
endfacet
facet normal 0.492054 0.464307 -0.736411
outer loop
vertex 0.353554 0.382683 -0.853553
vertex 0.587938 0.555570 -0.587938
vertex 0.653282 0.382683 -0.653281
endloop
endfacet
facet normal 0.265858 -0.878070 -0.397886
outer loop
vertex 0.146447 -0.923880 -0.353553
vertex 0.212608 -0.831470 -0.513280
vertex 0.392848 -0.831470 -0.392847
endloop
endfacet
facet normal 0.265859 -0.878070 -0.397885
outer loop
vertex 0.146447 -0.923880 -0.353553
vertex 0.392848 -0.831470 -0.392847
vertex 0.270598 -0.923880 -0.270598
endloop
endfacet
facet normal 0.532502 0.285164 -0.796946
outer loop
vertex 0.375330 0.195090 -0.906127
vertex 0.353554 0.382683 -0.853553
vertex 0.653282 0.382683 -0.653281
endloop
endfacet
facet normal 0.532502 0.285165 -0.796946
outer loop
vertex 0.375330 0.195090 -0.906127
vertex 0.653282 0.382683 -0.653281
vertex 0.693520 0.195090 -0.693520
endloop
endfacet
facet normal 0.164160 -0.955349 -0.245682
outer loop
vertex 0.074658 -0.980785 -0.180240
vertex 0.146447 -0.923880 -0.353553
vertex 0.270598 -0.923880 -0.270598
endloop
endfacet
facet normal 0.164159 -0.955349 -0.245682
outer loop
vertex 0.074658 -0.980785 -0.180240
vertex 0.270598 -0.923880 -0.270598
vertex 0.137950 -0.980785 -0.137949
endloop
endfacet
facet normal 0.552996 0.096152 -0.827617
outer loop
vertex 0.382684 0.000000 -0.923880
vertex 0.375330 0.195090 -0.906127
vertex 0.693520 0.195090 -0.693520
endloop
endfacet
facet normal 0.552996 0.096151 -0.827617
outer loop
vertex 0.382684 0.000000 -0.923880
vertex 0.693520 0.195090 -0.693520
vertex 0.707107 0.000000 -0.707107
endloop
endfacet
facet normal 0.055512 0.994996 -0.083079
outer loop
vertex 0.074658 0.980785 -0.180240
vertex -0.000000 1.000000 0.000000
vertex 0.137950 0.980785 -0.137950
endloop
endfacet
facet normal 0.055512 -0.994996 -0.083079
outer loop
vertex 0.000000 -1.000000 0.000000
vertex 0.074658 -0.980785 -0.180240
vertex 0.137950 -0.980785 -0.137949
endloop
endfacet
facet normal 0.552996 -0.096151 -0.827617
outer loop
vertex 0.375330 -0.195090 -0.906127
vertex 0.382684 0.000000 -0.923880
vertex 0.707107 0.000000 -0.707107
endloop
endfacet
facet normal 0.552996 -0.096151 -0.827617
outer loop
vertex 0.375330 -0.195090 -0.906127
vertex 0.707107 0.000000 -0.707107
vertex 0.693520 -0.195090 -0.693520
endloop
endfacet
facet normal 0.164160 0.955349 -0.245682
outer loop
vertex 0.146447 0.923880 -0.353553
vertex 0.074658 0.980785 -0.180240
vertex 0.137950 0.980785 -0.137950
endloop
endfacet
facet normal 0.164160 0.955349 -0.245682
outer loop
vertex 0.146447 0.923880 -0.353553
vertex 0.137950 0.980785 -0.137950
vertex 0.270598 0.923880 -0.270598
endloop
endfacet
facet normal 0.532502 -0.285165 -0.796946
outer loop
vertex 0.353554 -0.382683 -0.853553
vertex 0.375330 -0.195090 -0.906127
vertex 0.693520 -0.195090 -0.693520
endloop
endfacet
facet normal 0.532502 -0.285164 -0.796946
outer loop
vertex 0.353554 -0.382683 -0.853553
vertex 0.693520 -0.195090 -0.693520
vertex 0.653282 -0.382683 -0.653281
endloop
endfacet
facet normal 0.265859 0.878070 -0.397885
outer loop
vertex 0.212608 0.831470 -0.513280
vertex 0.146447 0.923880 -0.353553
vertex 0.270598 0.923880 -0.270598
endloop
endfacet
facet normal 0.265858 0.878070 -0.397886
outer loop
vertex 0.212608 0.831470 -0.513280
vertex 0.270598 0.923880 -0.270598
vertex 0.392848 0.831470 -0.392847
endloop
endfacet
facet normal 0.492054 -0.464306 -0.736412
outer loop
vertex 0.318190 -0.555570 -0.768178
vertex 0.353554 -0.382683 -0.853553
vertex 0.653282 -0.382683 -0.653281
endloop
endfacet
facet normal 0.492055 -0.464306 -0.736411
outer loop
vertex 0.318190 -0.555570 -0.768178
vertex 0.653282 -0.382683 -0.653281
vertex 0.587938 -0.555570 -0.587938
endloop
endfacet
facet normal 0.356527 0.766928 -0.533581
outer loop
vertex 0.270598 0.707107 -0.653281
vertex 0.212608 0.831470 -0.513280
vertex 0.392848 0.831470 -0.392847
endloop
endfacet
facet normal 0.356528 0.766928 -0.533581
outer loop
vertex 0.270598 0.707107 -0.653281
vertex 0.392848 0.831470 -0.392847
vertex 0.500000 0.707107 -0.500000
endloop
endfacet
facet normal 0.083079 0.994996 -0.055513
outer loop
vertex 0.137950 0.980785 -0.137950
vertex -0.000000 1.000000 0.000000
vertex 0.180240 0.980785 -0.074658
endloop
endfacet
facet normal 0.083079 -0.994996 -0.055512
outer loop
vertex 0.000000 -1.000000 0.000000
vertex 0.137950 -0.980785 -0.137949
vertex 0.180240 -0.980785 -0.074658
endloop
endfacet
facet normal 0.827617 -0.096151 -0.552996
outer loop
vertex 0.693520 -0.195090 -0.693520
vertex 0.707107 0.000000 -0.707107
vertex 0.923880 0.000000 -0.382683
endloop
endfacet
facet normal 0.827617 -0.096152 -0.552996
outer loop
vertex 0.693520 -0.195090 -0.693520
vertex 0.923880 0.000000 -0.382683
vertex 0.906128 -0.195090 -0.375330
endloop
endfacet
facet normal 0.245682 0.955349 -0.164161
outer loop
vertex 0.270598 0.923880 -0.270598
vertex 0.137950 0.980785 -0.137950
vertex 0.180240 0.980785 -0.074658
endloop
endfacet
facet normal 0.245682 0.955349 -0.164159
outer loop
vertex 0.270598 0.923880 -0.270598
vertex 0.180240 0.980785 -0.074658
vertex 0.353554 0.923880 -0.146446
endloop
endfacet
facet normal 0.796946 -0.285164 -0.532502
outer loop
vertex 0.653282 -0.382683 -0.653281
vertex 0.693520 -0.195090 -0.693520
vertex 0.906128 -0.195090 -0.375330
endloop
endfacet
facet normal 0.796946 -0.285165 -0.532502
outer loop
vertex 0.653282 -0.382683 -0.653281
vertex 0.906128 -0.195090 -0.375330
vertex 0.853554 -0.382683 -0.353553
endloop
endfacet
facet normal 0.397885 0.878070 -0.265858
outer loop
vertex 0.392848 0.831470 -0.392847
vertex 0.270598 0.923880 -0.270598
vertex 0.353554 0.923880 -0.146446
endloop
endfacet
facet normal 0.397885 0.878070 -0.265859
outer loop
vertex 0.392848 0.831470 -0.392847
vertex 0.353554 0.923880 -0.146446
vertex 0.513280 0.831470 -0.212607
endloop
endfacet
facet normal 0.736411 -0.464307 -0.492054
outer loop
vertex 0.587938 -0.555570 -0.587938
vertex 0.653282 -0.382683 -0.653281
vertex 0.853554 -0.382683 -0.353553
endloop
endfacet
facet normal 0.736412 -0.464306 -0.492054
outer loop
vertex 0.587938 -0.555570 -0.587938
vertex 0.853554 -0.382683 -0.353553
vertex 0.768178 -0.555570 -0.318189
endloop
endfacet
facet normal 0.533581 0.766928 -0.356528
outer loop
vertex 0.500000 0.707107 -0.500000
vertex 0.392848 0.831470 -0.392847
vertex 0.513280 0.831470 -0.212607
endloop
endfacet
facet normal 0.533581 0.766928 -0.356528
outer loop
vertex 0.500000 0.707107 -0.500000
vertex 0.513280 0.831470 -0.212607
vertex 0.653282 0.707107 -0.270598
endloop
endfacet
facet normal 0.647715 -0.627024 -0.432789
outer loop
vertex 0.500000 -0.707107 -0.500000
vertex 0.587938 -0.555570 -0.587938
vertex 0.768178 -0.555570 -0.318189
endloop
endfacet
facet normal 0.647714 -0.627025 -0.432789
outer loop
vertex 0.500000 -0.707107 -0.500000
vertex 0.768178 -0.555570 -0.318189
vertex 0.653282 -0.707107 -0.270598
endloop
endfacet
facet normal 0.647715 0.627024 -0.432789
outer loop
vertex 0.587938 0.555570 -0.587938
vertex 0.500000 0.707107 -0.500000
vertex 0.653282 0.707107 -0.270598
endloop
endfacet
facet normal 0.647714 0.627025 -0.432789
outer loop
vertex 0.587938 0.555570 -0.587938
vertex 0.653282 0.707107 -0.270598
vertex 0.768178 0.555570 -0.318189
endloop
endfacet
facet normal 0.533581 -0.766928 -0.356527
outer loop
vertex 0.392848 -0.831470 -0.392847
vertex 0.500000 -0.707107 -0.500000
vertex 0.653282 -0.707107 -0.270598
endloop
endfacet
facet normal 0.533581 -0.766928 -0.356528
outer loop
vertex 0.392848 -0.831470 -0.392847
vertex 0.653282 -0.707107 -0.270598
vertex 0.513280 -0.831470 -0.212607
endloop
endfacet
facet normal 0.736411 0.464307 -0.492054
outer loop
vertex 0.653282 0.382683 -0.653281
vertex 0.587938 0.555570 -0.587938
vertex 0.768178 0.555570 -0.318189
endloop
endfacet
facet normal 0.736412 0.464306 -0.492054
outer loop
vertex 0.653282 0.382683 -0.653281
vertex 0.768178 0.555570 -0.318189
vertex 0.853554 0.382683 -0.353553
endloop
endfacet
facet normal 0.397885 -0.878070 -0.265859
outer loop
vertex 0.270598 -0.923880 -0.270598
vertex 0.392848 -0.831470 -0.392847
vertex 0.513280 -0.831470 -0.212607
endloop
endfacet
facet normal 0.397885 -0.878070 -0.265859
outer loop
vertex 0.270598 -0.923880 -0.270598
vertex 0.513280 -0.831470 -0.212607
vertex 0.353554 -0.923880 -0.146446
endloop
endfacet
facet normal 0.796946 0.285165 -0.532502
outer loop
vertex 0.693520 0.195090 -0.693520
vertex 0.653282 0.382683 -0.653281
vertex 0.853554 0.382683 -0.353553
endloop
endfacet
facet normal 0.796946 0.285164 -0.532502
outer loop
vertex 0.693520 0.195090 -0.693520
vertex 0.853554 0.382683 -0.353553
vertex 0.906128 0.195090 -0.375330
endloop
endfacet
facet normal 0.245682 -0.955349 -0.164159
outer loop
vertex 0.137950 -0.980785 -0.137949
vertex 0.270598 -0.923880 -0.270598
vertex 0.353554 -0.923880 -0.146446
endloop
endfacet
facet normal 0.245682 -0.955349 -0.164160
outer loop
vertex 0.137950 -0.980785 -0.137949
vertex 0.353554 -0.923880 -0.146446
vertex 0.180240 -0.980785 -0.074658
endloop
endfacet
facet normal 0.827617 0.096151 -0.552996
outer loop
vertex 0.707107 0.000000 -0.707107
vertex 0.693520 0.195090 -0.693520
vertex 0.906128 0.195090 -0.375330
endloop
endfacet
facet normal 0.827617 0.096152 -0.552996
outer loop
vertex 0.707107 0.000000 -0.707107
vertex 0.906128 0.195090 -0.375330
vertex 0.923880 0.000000 -0.382683
endloop
endfacet
facet normal 0.764031 0.627024 -0.151975
outer loop
vertex 0.768178 0.555570 -0.318189
vertex 0.653282 0.707107 -0.270598
vertex 0.707107 0.707107 0.000000
endloop
endfacet
facet normal 0.764031 0.627025 -0.151975
outer loop
vertex 0.768178 0.555570 -0.318189
vertex 0.707107 0.707107 0.000000
vertex 0.831470 0.555570 0.000000
endloop
endfacet
facet normal 0.629402 -0.766928 -0.125196
outer loop
vertex 0.513280 -0.831470 -0.212607
vertex 0.653282 -0.707107 -0.270598
vertex 0.707107 -0.707107 0.000000
endloop
endfacet
facet normal 0.629402 -0.766928 -0.125196
outer loop
vertex 0.513280 -0.831470 -0.212607
vertex 0.707107 -0.707107 0.000000
vertex 0.555570 -0.831470 0.000000
endloop
endfacet
facet normal 0.868657 0.464306 -0.172786
outer loop
vertex 0.853554 0.382683 -0.353553
vertex 0.768178 0.555570 -0.318189
vertex 0.831470 0.555570 0.000000
endloop
endfacet
facet normal 0.868656 0.464307 -0.172786
outer loop
vertex 0.853554 0.382683 -0.353553
vertex 0.831470 0.555570 0.000000
vertex 0.923880 0.382683 0.000000
endloop
endfacet
facet normal 0.469338 -0.878070 -0.093357
outer loop
vertex 0.353554 -0.923880 -0.146446
vertex 0.513280 -0.831470 -0.212607
vertex 0.555570 -0.831470 0.000000
endloop
endfacet
facet normal 0.469338 -0.878070 -0.093357
outer loop
vertex 0.353554 -0.923880 -0.146446
vertex 0.555570 -0.831470 0.000000
vertex 0.382684 -0.923880 0.000000
endloop
endfacet
facet normal 0.940062 0.285164 -0.186990
outer loop
vertex 0.906128 0.195090 -0.375330
vertex 0.853554 0.382683 -0.353553
vertex 0.923880 0.382683 0.000000
endloop
endfacet
facet normal 0.940062 0.285164 -0.186990
outer loop
vertex 0.906128 0.195090 -0.375330
vertex 0.923880 0.382683 0.000000
vertex 0.980786 0.195090 0.000000
endloop
endfacet
facet normal 0.289802 -0.955349 -0.057646
outer loop
vertex 0.180240 -0.980785 -0.074658
vertex 0.353554 -0.923880 -0.146446
vertex 0.382684 -0.923880 0.000000
endloop
endfacet
facet normal 0.289802 -0.955349 -0.057645
outer loop
vertex 0.180240 -0.980785 -0.074658
vertex 0.382684 -0.923880 0.000000
vertex 0.195090 -0.980785 0.000000
endloop
endfacet
facet normal 0.976241 0.096152 -0.194186
outer loop
vertex 0.923880 0.000000 -0.382683
vertex 0.906128 0.195090 -0.375330
vertex 0.980786 0.195090 0.000000
endloop
endfacet
facet normal 0.976241 0.096152 -0.194186
outer loop
vertex 0.923880 0.000000 -0.382683
vertex 0.980786 0.195090 0.000000
vertex 1.000000 0.000000 0.000000
endloop
endfacet
facet normal 0.097998 0.994996 -0.019492
outer loop
vertex 0.180240 0.980785 -0.074658
vertex -0.000000 1.000000 0.000000
vertex 0.195091 0.980785 0.000000
endloop
endfacet
facet normal 0.097998 -0.994996 -0.019492
outer loop
vertex 0.000000 -1.000000 0.000000
vertex 0.180240 -0.980785 -0.074658
vertex 0.195090 -0.980785 0.000000
endloop
endfacet
facet normal 0.976241 -0.096152 -0.194186
outer loop
vertex 0.906128 -0.195090 -0.375330
vertex 0.923880 0.000000 -0.382683
vertex 1.000000 0.000000 0.000000
endloop
endfacet
facet normal 0.976241 -0.096152 -0.194186
outer loop
vertex 0.906128 -0.195090 -0.375330
vertex 1.000000 0.000000 0.000000
vertex 0.980786 -0.195090 0.000000
endloop
endfacet
facet normal 0.289802 0.955349 -0.057645
outer loop
vertex 0.353554 0.923880 -0.146446
vertex 0.180240 0.980785 -0.074658
vertex 0.195091 0.980785 0.000000
endloop
endfacet
facet normal 0.289802 0.955349 -0.057646
outer loop
vertex 0.353554 0.923880 -0.146446
vertex 0.195091 0.980785 0.000000
vertex 0.382684 0.923880 0.000000
endloop
endfacet
facet normal 0.940062 -0.285164 -0.186990
outer loop
vertex 0.853554 -0.382683 -0.353553
vertex 0.906128 -0.195090 -0.375330
vertex 0.980786 -0.195090 0.000000
endloop
endfacet
facet normal 0.940062 -0.285165 -0.186990
outer loop
vertex 0.853554 -0.382683 -0.353553
vertex 0.980786 -0.195090 0.000000
vertex 0.923880 -0.382683 0.000000
endloop
endfacet
facet normal 0.469338 0.878070 -0.093357
outer loop
vertex 0.513280 0.831470 -0.212607
vertex 0.353554 0.923880 -0.146446
vertex 0.382684 0.923880 0.000000
endloop
endfacet
facet normal 0.469338 0.878070 -0.093356
outer loop
vertex 0.513280 0.831470 -0.212607
vertex 0.382684 0.923880 0.000000
vertex 0.555571 0.831470 0.000000
endloop
endfacet
facet normal 0.868657 -0.464306 -0.172786
outer loop
vertex 0.768178 -0.555570 -0.318189
vertex 0.853554 -0.382683 -0.353553
vertex 0.923880 -0.382683 0.000000
endloop
endfacet
facet normal 0.868656 -0.464307 -0.172786
outer loop
vertex 0.768178 -0.555570 -0.318189
vertex 0.923880 -0.382683 0.000000
vertex 0.831470 -0.555570 0.000000
endloop
endfacet
facet normal 0.629402 0.766928 -0.125196
outer loop
vertex 0.653282 0.707107 -0.270598
vertex 0.513280 0.831470 -0.212607
vertex 0.555571 0.831470 0.000000
endloop
endfacet
facet normal 0.629402 0.766928 -0.125196
outer loop
vertex 0.653282 0.707107 -0.270598
vertex 0.555571 0.831470 0.000000
vertex 0.707107 0.707107 0.000000
endloop
endfacet
facet normal 0.764032 -0.627024 -0.151975
outer loop
vertex 0.653282 -0.707107 -0.270598
vertex 0.768178 -0.555570 -0.318189
vertex 0.831470 -0.555570 0.000000
endloop
endfacet
facet normal 0.764031 -0.627025 -0.151975
outer loop
vertex 0.653282 -0.707107 -0.270598
vertex 0.831470 -0.555570 0.000000
vertex 0.707107 -0.707107 0.000000
endloop
endfacet
facet normal 0.976241 -0.096151 0.194187
outer loop
vertex 0.980786 -0.195090 0.000000
vertex 1.000000 0.000000 0.000000
vertex 0.923880 0.000000 0.382684
endloop
endfacet
facet normal 0.976241 -0.096152 0.194186
outer loop
vertex 0.980786 -0.195090 0.000000
vertex 0.923880 0.000000 0.382684
vertex 0.906128 -0.195090 0.375331
endloop
endfacet
facet normal 0.289802 0.955349 0.057647
outer loop
vertex 0.382684 0.923880 0.000000
vertex 0.195091 0.980785 0.000000
vertex 0.180240 0.980785 0.074658
endloop
endfacet
facet normal 0.289802 0.955349 0.057645
outer loop
vertex 0.382684 0.923880 0.000000
vertex 0.180240 0.980785 0.074658
vertex 0.353554 0.923880 0.146447
endloop
endfacet
facet normal 0.940062 -0.285164 0.186990
outer loop
vertex 0.923880 -0.382683 0.000000
vertex 0.980786 -0.195090 0.000000
vertex 0.906128 -0.195090 0.375331
endloop
endfacet
facet normal 0.940061 -0.285165 0.186990
outer loop
vertex 0.923880 -0.382683 0.000000
vertex 0.906128 -0.195090 0.375331
vertex 0.853554 -0.382683 0.353554
endloop
endfacet
facet normal 0.469338 0.878070 0.093357
outer loop
vertex 0.555571 0.831470 0.000000
vertex 0.382684 0.923880 0.000000
vertex 0.353554 0.923880 0.146447
endloop
endfacet
facet normal 0.469338 0.878070 0.093358
outer loop
vertex 0.555571 0.831470 0.000000
vertex 0.353554 0.923880 0.146447
vertex 0.513280 0.831470 0.212608
endloop
endfacet
facet normal 0.868657 -0.464306 0.172787
outer loop
vertex 0.831470 -0.555570 0.000000
vertex 0.923880 -0.382683 0.000000
vertex 0.853554 -0.382683 0.353554
endloop
endfacet
facet normal 0.868656 -0.464307 0.172787
outer loop
vertex 0.831470 -0.555570 0.000000
vertex 0.853554 -0.382683 0.353554
vertex 0.768178 -0.555570 0.318190
endloop
endfacet
facet normal 0.629402 0.766928 0.125196
outer loop
vertex 0.707107 0.707107 0.000000
vertex 0.555571 0.831470 0.000000
vertex 0.513280 0.831470 0.212608
endloop
endfacet
facet normal 0.629402 0.766929 0.125196
outer loop
vertex 0.707107 0.707107 0.000000
vertex 0.513280 0.831470 0.212608
vertex 0.653282 0.707107 0.270599
endloop
endfacet
facet normal 0.764032 -0.627024 0.151976
outer loop
vertex 0.707107 -0.707107 0.000000
vertex 0.831470 -0.555570 0.000000
vertex 0.768178 -0.555570 0.318190
endloop
endfacet
facet normal 0.764031 -0.627024 0.151975
outer loop
vertex 0.707107 -0.707107 0.000000
vertex 0.768178 -0.555570 0.318190
vertex 0.653282 -0.707107 0.270599
endloop
endfacet
facet normal 0.764032 0.627024 0.151976
outer loop
vertex 0.831470 0.555570 0.000000
vertex 0.707107 0.707107 0.000000
vertex 0.653282 0.707107 0.270599
endloop
endfacet
facet normal 0.764032 0.627024 0.151975
outer loop
vertex 0.831470 0.555570 0.000000
vertex 0.653282 0.707107 0.270599
vertex 0.768178 0.555570 0.318190
endloop
endfacet
facet normal 0.629402 -0.766929 0.125196
outer loop
vertex 0.555570 -0.831470 0.000000
vertex 0.707107 -0.707107 0.000000
vertex 0.653282 -0.707107 0.270599
endloop
endfacet
facet normal 0.629402 -0.766928 0.125196
outer loop
vertex 0.555570 -0.831470 0.000000
vertex 0.653282 -0.707107 0.270599
vertex 0.513280 -0.831470 0.212608
endloop
endfacet
facet normal 0.868656 0.464307 0.172787
outer loop
vertex 0.923880 0.382683 0.000000
vertex 0.831470 0.555570 0.000000
vertex 0.768178 0.555570 0.318190
endloop
endfacet
facet normal 0.868656 0.464307 0.172787
outer loop
vertex 0.923880 0.382683 0.000000
vertex 0.768178 0.555570 0.318190
vertex 0.853554 0.382683 0.353554
endloop
endfacet
facet normal 0.469338 -0.878070 0.093357
outer loop
vertex 0.382684 -0.923880 0.000000
vertex 0.555570 -0.831470 0.000000
vertex 0.513280 -0.831470 0.212608
endloop
endfacet
facet normal 0.469338 -0.878070 0.093358
outer loop
vertex 0.382684 -0.923880 0.000000
vertex 0.513280 -0.831470 0.212608
vertex 0.353553 -0.923880 0.146447
endloop
endfacet
facet normal 0.940062 0.285164 0.186990
outer loop
vertex 0.980786 0.195090 0.000000
vertex 0.923880 0.382683 0.000000
vertex 0.853554 0.382683 0.353554
endloop
endfacet
facet normal 0.940062 0.285165 0.186990
outer loop
vertex 0.980786 0.195090 0.000000
vertex 0.853554 0.382683 0.353554
vertex 0.906128 0.195090 0.375331
endloop
endfacet
facet normal 0.289802 -0.955349 0.057645
outer loop
vertex 0.195090 -0.980785 0.000000
vertex 0.382684 -0.923880 0.000000
vertex 0.353553 -0.923880 0.146447
endloop
endfacet
facet normal 0.289802 -0.955349 0.057647
outer loop
vertex 0.195090 -0.980785 0.000000
vertex 0.353553 -0.923880 0.146447
vertex 0.180240 -0.980785 0.074658
endloop
endfacet
facet normal 0.976241 0.096152 0.194186
outer loop
vertex 1.000000 0.000000 0.000000
vertex 0.980786 0.195090 0.000000
vertex 0.906128 0.195090 0.375331
endloop
endfacet
facet normal 0.976241 0.096151 0.194187
outer loop
vertex 1.000000 0.000000 0.000000
vertex 0.906128 0.195090 0.375331
vertex 0.923880 0.000000 0.382684
endloop
endfacet
facet normal 0.097998 0.994996 0.019492
outer loop
vertex 0.195091 0.980785 0.000000
vertex -0.000000 1.000000 0.000000
vertex 0.180240 0.980785 0.074658
endloop
endfacet
facet normal 0.097998 -0.994996 0.019492
outer loop
vertex 0.000000 -1.000000 0.000000
vertex 0.195090 -0.980785 0.000000
vertex 0.180240 -0.980785 0.074658
endloop
endfacet
facet normal 0.533581 -0.766928 0.356528
outer loop
vertex 0.513280 -0.831470 0.212608
vertex 0.653282 -0.707107 0.270599
vertex 0.500000 -0.707107 0.500000
endloop
endfacet
facet normal 0.533582 -0.766928 0.356528
outer loop
vertex 0.513280 -0.831470 0.212608
vertex 0.500000 -0.707107 0.500000
vertex 0.392848 -0.831470 0.392848
endloop
endfacet
facet normal 0.736411 0.464307 0.492054
outer loop
vertex 0.853554 0.382683 0.353554
vertex 0.768178 0.555570 0.318190
vertex 0.587938 0.555570 0.587938
endloop
endfacet
facet normal 0.736411 0.464307 0.492054
outer loop
vertex 0.853554 0.382683 0.353554
vertex 0.587938 0.555570 0.587938
vertex 0.653282 0.382683 0.653282
endloop
endfacet
facet normal 0.397886 -0.878070 0.265859
outer loop
vertex 0.353553 -0.923880 0.146447
vertex 0.513280 -0.831470 0.212608
vertex 0.392848 -0.831470 0.392848
endloop
endfacet
facet normal 0.397885 -0.878070 0.265859
outer loop
vertex 0.353553 -0.923880 0.146447
vertex 0.392848 -0.831470 0.392848
vertex 0.270598 -0.923880 0.270599
endloop
endfacet
facet normal 0.796946 0.285165 0.532502
outer loop
vertex 0.906128 0.195090 0.375331
vertex 0.853554 0.382683 0.353554
vertex 0.653282 0.382683 0.653282
endloop
endfacet
facet normal 0.796945 0.285165 0.532502
outer loop
vertex 0.906128 0.195090 0.375331
vertex 0.653282 0.382683 0.653282
vertex 0.693520 0.195090 0.693520
endloop
endfacet
facet normal 0.245682 -0.955349 0.164159
outer loop
vertex 0.180240 -0.980785 0.074658
vertex 0.353553 -0.923880 0.146447
vertex 0.270598 -0.923880 0.270599
endloop
endfacet
facet normal 0.245682 -0.955349 0.164158
outer loop
vertex 0.180240 -0.980785 0.074658
vertex 0.270598 -0.923880 0.270599
vertex 0.137950 -0.980785 0.137950
endloop
endfacet
facet normal 0.827617 0.096150 0.552996
outer loop
vertex 0.923880 0.000000 0.382684
vertex 0.906128 0.195090 0.375331
vertex 0.693520 0.195090 0.693520
endloop
endfacet
facet normal 0.827617 0.096152 0.552996
outer loop
vertex 0.923880 0.000000 0.382684
vertex 0.693520 0.195090 0.693520
vertex 0.707107 0.000000 0.707107
endloop
endfacet
facet normal 0.083079 0.994996 0.055511
outer loop
vertex 0.180240 0.980785 0.074658
vertex -0.000000 1.000000 0.000000
vertex 0.137950 0.980785 0.137950
endloop
endfacet
facet normal 0.083079 -0.994996 0.055512
outer loop
vertex 0.000000 -1.000000 0.000000
vertex 0.180240 -0.980785 0.074658
vertex 0.137950 -0.980785 0.137950
endloop
endfacet
facet normal 0.827617 -0.096152 0.552996
outer loop
vertex 0.906128 -0.195090 0.375331
vertex 0.923880 0.000000 0.382684
vertex 0.707107 0.000000 0.707107
endloop
endfacet
facet normal 0.827617 -0.096151 0.552996
outer loop
vertex 0.906128 -0.195090 0.375331
vertex 0.707107 0.000000 0.707107
vertex 0.693520 -0.195090 0.693520
endloop
endfacet
facet normal 0.245682 0.955349 0.164159
outer loop
vertex 0.353554 0.923880 0.146447
vertex 0.180240 0.980785 0.074658
vertex 0.137950 0.980785 0.137950
endloop
endfacet
facet normal 0.245682 0.955349 0.164160
outer loop
vertex 0.353554 0.923880 0.146447
vertex 0.137950 0.980785 0.137950
vertex 0.270598 0.923880 0.270599
endloop
endfacet
facet normal 0.796946 -0.285165 0.532502
outer loop
vertex 0.853554 -0.382683 0.353554
vertex 0.906128 -0.195090 0.375331
vertex 0.693520 -0.195090 0.693520
endloop
endfacet
facet normal 0.796945 -0.285165 0.532502
outer loop
vertex 0.853554 -0.382683 0.353554
vertex 0.693520 -0.195090 0.693520
vertex 0.653282 -0.382683 0.653282
endloop
endfacet
facet normal 0.397886 0.878070 0.265858
outer loop
vertex 0.513280 0.831470 0.212608
vertex 0.353554 0.923880 0.146447
vertex 0.270598 0.923880 0.270599
endloop
endfacet
facet normal 0.397885 0.878070 0.265859
outer loop
vertex 0.513280 0.831470 0.212608
vertex 0.270598 0.923880 0.270599
vertex 0.392848 0.831470 0.392848
endloop
endfacet
facet normal 0.736411 -0.464307 0.492055
outer loop
vertex 0.768178 -0.555570 0.318190
vertex 0.853554 -0.382683 0.353554
vertex 0.653282 -0.382683 0.653282
endloop
endfacet
facet normal 0.736411 -0.464307 0.492055
outer loop
vertex 0.768178 -0.555570 0.318190
vertex 0.653282 -0.382683 0.653282
vertex 0.587938 -0.555570 0.587938
endloop
endfacet
facet normal 0.533581 0.766928 0.356528
outer loop
vertex 0.653282 0.707107 0.270599
vertex 0.513280 0.831470 0.212608
vertex 0.392848 0.831470 0.392848
endloop
endfacet
facet normal 0.533582 0.766928 0.356528
outer loop
vertex 0.653282 0.707107 0.270599
vertex 0.392848 0.831470 0.392848
vertex 0.500000 0.707107 0.500000
endloop
endfacet
facet normal 0.647714 -0.627024 0.432790
outer loop
vertex 0.653282 -0.707107 0.270599
vertex 0.768178 -0.555570 0.318190
vertex 0.587938 -0.555570 0.587938
endloop
endfacet
facet normal 0.647714 -0.627025 0.432789
outer loop
vertex 0.653282 -0.707107 0.270599
vertex 0.587938 -0.555570 0.587938
vertex 0.500000 -0.707107 0.500000
endloop
endfacet
facet normal 0.647714 0.627024 0.432789
outer loop
vertex 0.768178 0.555570 0.318190
vertex 0.653282 0.707107 0.270599
vertex 0.500000 0.707107 0.500000
endloop
endfacet
facet normal 0.647714 0.627024 0.432789
outer loop
vertex 0.768178 0.555570 0.318190
vertex 0.500000 0.707107 0.500000
vertex 0.587938 0.555570 0.587938
endloop
endfacet
facet normal 0.164160 0.955349 0.245682
outer loop
vertex 0.270598 0.923880 0.270599
vertex 0.137950 0.980785 0.137950
vertex 0.074658 0.980785 0.180241
endloop
endfacet
facet normal 0.164160 0.955349 0.245683
outer loop
vertex 0.270598 0.923880 0.270599
vertex 0.074658 0.980785 0.180241
vertex 0.146447 0.923880 0.353554
endloop
endfacet
facet normal 0.532502 -0.285165 0.796946
outer loop
vertex 0.653282 -0.382683 0.653282
vertex 0.693520 -0.195090 0.693520
vertex 0.375330 -0.195090 0.906128
endloop
endfacet
facet normal 0.532502 -0.285165 0.796946
outer loop
vertex 0.653282 -0.382683 0.653282
vertex 0.375330 -0.195090 0.906128
vertex 0.353553 -0.382683 0.853554
endloop
endfacet
facet normal 0.265859 0.878070 0.397885
outer loop
vertex 0.392848 0.831470 0.392848
vertex 0.270598 0.923880 0.270599
vertex 0.146447 0.923880 0.353554
endloop
endfacet
facet normal 0.265858 0.878069 0.397886
outer loop
vertex 0.392848 0.831470 0.392848
vertex 0.146447 0.923880 0.353554
vertex 0.212608 0.831470 0.513281
endloop
endfacet
facet normal 0.492054 -0.464306 0.736412
outer loop
vertex 0.587938 -0.555570 0.587938
vertex 0.653282 -0.382683 0.653282
vertex 0.353553 -0.382683 0.853554
endloop
endfacet
facet normal 0.492054 -0.464307 0.736411
outer loop
vertex 0.587938 -0.555570 0.587938
vertex 0.353553 -0.382683 0.853554
vertex 0.318190 -0.555570 0.768178
endloop
endfacet
facet normal 0.356528 0.766928 0.533582
outer loop
vertex 0.500000 0.707107 0.500000
vertex 0.392848 0.831470 0.392848
vertex 0.212608 0.831470 0.513281
endloop
endfacet
facet normal 0.356528 0.766928 0.533581
outer loop
vertex 0.500000 0.707107 0.500000
vertex 0.212608 0.831470 0.513281
vertex 0.270598 0.707107 0.653282
endloop
endfacet
facet normal 0.432789 -0.627024 0.647715
outer loop
vertex 0.500000 -0.707107 0.500000
vertex 0.587938 -0.555570 0.587938
vertex 0.318190 -0.555570 0.768178
endloop
endfacet
facet normal 0.432789 -0.627024 0.647715
outer loop
vertex 0.500000 -0.707107 0.500000
vertex 0.318190 -0.555570 0.768178
vertex 0.270598 -0.707107 0.653282
endloop
endfacet
facet normal 0.432789 0.627024 0.647715
outer loop
vertex 0.587938 0.555570 0.587938
vertex 0.500000 0.707107 0.500000
vertex 0.270598 0.707107 0.653282
endloop
endfacet
facet normal 0.432789 0.627024 0.647715
outer loop
vertex 0.587938 0.555570 0.587938
vertex 0.270598 0.707107 0.653282
vertex 0.318190 0.555570 0.768178
endloop
endfacet
facet normal 0.356528 -0.766928 0.533581
outer loop
vertex 0.392848 -0.831470 0.392848
vertex 0.500000 -0.707107 0.500000
vertex 0.270598 -0.707107 0.653282
endloop
endfacet
facet normal 0.356527 -0.766928 0.533581
outer loop
vertex 0.392848 -0.831470 0.392848
vertex 0.270598 -0.707107 0.653282
vertex 0.212607 -0.831470 0.513281
endloop
endfacet
facet normal 0.492054 0.464307 0.736411
outer loop
vertex 0.653282 0.382683 0.653282
vertex 0.587938 0.555570 0.587938
vertex 0.318190 0.555570 0.768178
endloop
endfacet
facet normal 0.492054 0.464307 0.736411
outer loop
vertex 0.653282 0.382683 0.653282
vertex 0.318190 0.555570 0.768178
vertex 0.353553 0.382683 0.853554
endloop
endfacet
facet normal 0.265858 -0.878070 0.397886
outer loop
vertex 0.270598 -0.923880 0.270599
vertex 0.392848 -0.831470 0.392848
vertex 0.212607 -0.831470 0.513281
endloop
endfacet
facet normal 0.265859 -0.878069 0.397886
outer loop
vertex 0.270598 -0.923880 0.270599
vertex 0.212607 -0.831470 0.513281
vertex 0.146447 -0.923880 0.353554
endloop
endfacet
facet normal 0.532502 0.285164 0.796946
outer loop
vertex 0.693520 0.195090 0.693520
vertex 0.653282 0.382683 0.653282
vertex 0.353553 0.382683 0.853554
endloop
endfacet
facet normal 0.532502 0.285164 0.796946
outer loop
vertex 0.693520 0.195090 0.693520
vertex 0.353553 0.382683 0.853554
vertex 0.375330 0.195090 0.906128
endloop
endfacet
facet normal 0.164159 -0.955349 0.245682
outer loop
vertex 0.137950 -0.980785 0.137950
vertex 0.270598 -0.923880 0.270599
vertex 0.146447 -0.923880 0.353554
endloop
endfacet
facet normal 0.164159 -0.955349 0.245682
outer loop
vertex 0.137950 -0.980785 0.137950
vertex 0.146447 -0.923880 0.353554
vertex 0.074658 -0.980785 0.180240
endloop
endfacet
facet normal 0.552996 0.096151 0.827617
outer loop
vertex 0.707107 0.000000 0.707107
vertex 0.693520 0.195090 0.693520
vertex 0.375330 0.195090 0.906128
endloop
endfacet
facet normal 0.552996 0.096151 0.827618
outer loop
vertex 0.707107 0.000000 0.707107
vertex 0.375330 0.195090 0.906128
vertex 0.382683 0.000000 0.923880
endloop
endfacet
facet normal 0.055512 0.994996 0.083079
outer loop
vertex 0.137950 0.980785 0.137950
vertex -0.000000 1.000000 0.000000
vertex 0.074658 0.980785 0.180241
endloop
endfacet
facet normal 0.055512 -0.994996 0.083079
outer loop
vertex 0.000000 -1.000000 0.000000
vertex 0.137950 -0.980785 0.137950
vertex 0.074658 -0.980785 0.180240
endloop
endfacet
facet normal 0.552996 -0.096151 0.827617
outer loop
vertex 0.693520 -0.195090 0.693520
vertex 0.707107 0.000000 0.707107
vertex 0.382683 0.000000 0.923880
endloop
endfacet
facet normal 0.552996 -0.096151 0.827618
outer loop
vertex 0.693520 -0.195090 0.693520
vertex 0.382683 0.000000 0.923880
vertex 0.375330 -0.195090 0.906128
endloop
endfacet
facet normal 0.172787 0.464307 0.868656
outer loop
vertex 0.353553 0.382683 0.853554
vertex 0.318190 0.555570 0.768178
vertex -0.000000 0.555570 0.831470
endloop
endfacet
facet normal 0.172786 0.464307 0.868656
outer loop
vertex 0.353553 0.382683 0.853554
vertex -0.000000 0.555570 0.831470
vertex -0.000000 0.382683 0.923880
endloop
endfacet
facet normal 0.093357 -0.878070 0.469338
outer loop
vertex 0.146447 -0.923880 0.353554
vertex 0.212607 -0.831470 0.513281
vertex -0.000000 -0.831470 0.555571
endloop
endfacet
facet normal 0.093357 -0.878069 0.469339
outer loop
vertex 0.146447 -0.923880 0.353554
vertex -0.000000 -0.831470 0.555571
vertex -0.000000 -0.923880 0.382684
endloop
endfacet
facet normal 0.186990 0.285164 0.940062
outer loop
vertex 0.375330 0.195090 0.906128
vertex 0.353553 0.382683 0.853554
vertex -0.000000 0.382683 0.923880
endloop
endfacet
facet normal 0.186990 0.285164 0.940062
outer loop
vertex 0.375330 0.195090 0.906128
vertex -0.000000 0.382683 0.923880
vertex -0.000000 0.195090 0.980786
endloop
endfacet
facet normal 0.057645 -0.955350 0.289801
outer loop
vertex 0.074658 -0.980785 0.180240
vertex 0.146447 -0.923880 0.353554
vertex -0.000000 -0.923880 0.382684
endloop
endfacet
facet normal 0.057645 -0.955349 0.289802
outer loop
vertex 0.074658 -0.980785 0.180240
vertex -0.000000 -0.923880 0.382684
vertex -0.000000 -0.980785 0.195091
endloop
endfacet
facet normal 0.194186 0.096151 0.976241
outer loop
vertex 0.382683 0.000000 0.923880
vertex 0.375330 0.195090 0.906128
vertex -0.000000 0.195090 0.980786
endloop
endfacet
facet normal 0.194186 0.096151 0.976241
outer loop
vertex 0.382683 0.000000 0.923880
vertex -0.000000 0.195090 0.980786
vertex -0.000000 0.000000 1.000000
endloop
endfacet
facet normal 0.019493 0.994996 0.097999
outer loop
vertex 0.074658 0.980785 0.180241
vertex -0.000000 1.000000 0.000000
vertex -0.000000 0.980785 0.195091
endloop
endfacet
facet normal 0.019493 -0.994996 0.097999
outer loop
vertex 0.000000 -1.000000 0.000000
vertex 0.074658 -0.980785 0.180240
vertex -0.000000 -0.980785 0.195091
endloop
endfacet
facet normal 0.194186 -0.096151 0.976241
outer loop
vertex 0.375330 -0.195090 0.906128
vertex 0.382683 0.000000 0.923880
vertex -0.000000 0.000000 1.000000
endloop
endfacet
facet normal 0.194186 -0.096151 0.976241
outer loop
vertex 0.375330 -0.195090 0.906128
vertex -0.000000 0.000000 1.000000
vertex -0.000000 -0.195090 0.980786
endloop
endfacet
facet normal 0.057645 0.955350 0.289800
outer loop
vertex 0.146447 0.923880 0.353554
vertex 0.074658 0.980785 0.180241
vertex -0.000000 0.980785 0.195091
endloop
endfacet
facet normal 0.057645 0.955349 0.289803
outer loop
vertex 0.146447 0.923880 0.353554
vertex -0.000000 0.980785 0.195091
vertex -0.000000 0.923880 0.382684
endloop
endfacet
facet normal 0.186990 -0.285164 0.940062
outer loop
vertex 0.353553 -0.382683 0.853554
vertex 0.375330 -0.195090 0.906128
vertex -0.000000 -0.195090 0.980786
endloop
endfacet
facet normal 0.186990 -0.285164 0.940062
outer loop
vertex 0.353553 -0.382683 0.853554
vertex -0.000000 -0.195090 0.980786
vertex -0.000000 -0.382683 0.923880
endloop
endfacet
facet normal 0.093357 0.878070 0.469337
outer loop
vertex 0.212608 0.831470 0.513281
vertex 0.146447 0.923880 0.353554
vertex -0.000000 0.923880 0.382684
endloop
endfacet
facet normal 0.093357 0.878069 0.469339
outer loop
vertex 0.212608 0.831470 0.513281
vertex -0.000000 0.923880 0.382684
vertex -0.000000 0.831470 0.555571
endloop
endfacet
facet normal 0.172786 -0.464307 0.868657
outer loop
vertex 0.318190 -0.555570 0.768178
vertex 0.353553 -0.382683 0.853554
vertex -0.000000 -0.382683 0.923880
endloop
endfacet
facet normal 0.172786 -0.464307 0.868657
outer loop
vertex 0.318190 -0.555570 0.768178
vertex -0.000000 -0.382683 0.923880
vertex -0.000000 -0.555570 0.831470
endloop
endfacet
facet normal 0.125195 0.766928 0.629403
outer loop
vertex 0.270598 0.707107 0.653282
vertex 0.212608 0.831470 0.513281
vertex -0.000000 0.831470 0.555571
endloop
endfacet
facet normal 0.125196 0.766928 0.629402
outer loop
vertex 0.270598 0.707107 0.653282
vertex -0.000000 0.831470 0.555571
vertex -0.000000 0.707107 0.707107
endloop
endfacet
facet normal 0.151975 -0.627024 0.764031
outer loop
vertex 0.270598 -0.707107 0.653282
vertex 0.318190 -0.555570 0.768178
vertex -0.000000 -0.555570 0.831470
endloop
endfacet
facet normal 0.151975 -0.627024 0.764031
outer loop
vertex 0.270598 -0.707107 0.653282
vertex -0.000000 -0.555570 0.831470
vertex -0.000000 -0.707107 0.707107
endloop
endfacet
facet normal 0.151975 0.627024 0.764031
outer loop
vertex 0.318190 0.555570 0.768178
vertex 0.270598 0.707107 0.653282
vertex -0.000000 0.707107 0.707107
endloop
endfacet
facet normal 0.151975 0.627024 0.764031
outer loop
vertex 0.318190 0.555570 0.768178
vertex -0.000000 0.707107 0.707107
vertex -0.000000 0.555570 0.831470
endloop
endfacet
facet normal 0.125196 -0.766928 0.629402
outer loop
vertex 0.212607 -0.831470 0.513281
vertex 0.270598 -0.707107 0.653282
vertex -0.000000 -0.707107 0.707107
endloop
endfacet
facet normal 0.125196 -0.766928 0.629402
outer loop
vertex 0.212607 -0.831470 0.513281
vertex -0.000000 -0.707107 0.707107
vertex -0.000000 -0.831470 0.555571
endloop
endfacet
facet normal -0.186990 -0.285164 0.940062
outer loop
vertex -0.000000 -0.382683 0.923880
vertex -0.000000 -0.195090 0.980786
vertex -0.375330 -0.195090 0.906128
endloop
endfacet
facet normal -0.186990 -0.285164 0.940062
outer loop
vertex -0.000000 -0.382683 0.923880
vertex -0.375330 -0.195090 0.906128
vertex -0.353554 -0.382683 0.853554
endloop
endfacet
facet normal -0.093357 0.878070 0.469338
outer loop
vertex -0.000000 0.831470 0.555571
vertex -0.000000 0.923880 0.382684
vertex -0.146447 0.923880 0.353554
endloop
endfacet
facet normal -0.093357 0.878069 0.469338
outer loop
vertex -0.000000 0.831470 0.555571
vertex -0.146447 0.923880 0.353554
vertex -0.212608 0.831470 0.513280
endloop
endfacet
facet normal -0.172787 -0.464307 0.868656
outer loop
vertex -0.000000 -0.555570 0.831470
vertex -0.000000 -0.382683 0.923880
vertex -0.353554 -0.382683 0.853554
endloop
endfacet
facet normal -0.172787 -0.464306 0.868657
outer loop
vertex -0.000000 -0.555570 0.831470
vertex -0.353554 -0.382683 0.853554
vertex -0.318190 -0.555570 0.768178
endloop
endfacet
facet normal -0.125196 0.766928 0.629402
outer loop
vertex -0.000000 0.707107 0.707107
vertex -0.000000 0.831470 0.555571
vertex -0.212608 0.831470 0.513280
endloop
endfacet
facet normal -0.125196 0.766928 0.629402
outer loop
vertex -0.000000 0.707107 0.707107
vertex -0.212608 0.831470 0.513280
vertex -0.270598 0.707107 0.653282
endloop
endfacet
facet normal -0.151975 -0.627024 0.764031
outer loop
vertex -0.000000 -0.707107 0.707107
vertex -0.000000 -0.555570 0.831470
vertex -0.318190 -0.555570 0.768178
endloop
endfacet
facet normal -0.151976 -0.627025 0.764031
outer loop
vertex -0.000000 -0.707107 0.707107
vertex -0.318190 -0.555570 0.768178
vertex -0.270598 -0.707107 0.653282
endloop
endfacet
facet normal -0.151976 0.627024 0.764031
outer loop
vertex -0.000000 0.555570 0.831470
vertex -0.000000 0.707107 0.707107
vertex -0.270598 0.707107 0.653282
endloop
endfacet
facet normal -0.151975 0.627025 0.764031
outer loop
vertex -0.000000 0.555570 0.831470
vertex -0.270598 0.707107 0.653282
vertex -0.318190 0.555570 0.768178
endloop
endfacet
facet normal -0.125196 -0.766928 0.629402
outer loop
vertex -0.000000 -0.831470 0.555571
vertex -0.000000 -0.707107 0.707107
vertex -0.270598 -0.707107 0.653282
endloop
endfacet
facet normal -0.125196 -0.766928 0.629402
outer loop
vertex -0.000000 -0.831470 0.555571
vertex -0.270598 -0.707107 0.653282
vertex -0.212608 -0.831470 0.513280
endloop
endfacet
facet normal -0.172787 0.464307 0.868656
outer loop
vertex -0.000000 0.382683 0.923880
vertex -0.000000 0.555570 0.831470
vertex -0.318190 0.555570 0.768178
endloop
endfacet
facet normal -0.172787 0.464307 0.868656
outer loop
vertex -0.000000 0.382683 0.923880
vertex -0.318190 0.555570 0.768178
vertex -0.353554 0.382683 0.853554
endloop
endfacet
facet normal -0.093357 -0.878069 0.469338
outer loop
vertex -0.000000 -0.923880 0.382684
vertex -0.000000 -0.831470 0.555571
vertex -0.212608 -0.831470 0.513280
endloop
endfacet
facet normal -0.093357 -0.878070 0.469338
outer loop
vertex -0.000000 -0.923880 0.382684
vertex -0.212608 -0.831470 0.513280
vertex -0.146447 -0.923880 0.353554
endloop
endfacet
facet normal -0.186990 0.285164 0.940062
outer loop
vertex -0.000000 0.195090 0.980786
vertex -0.000000 0.382683 0.923880
vertex -0.353554 0.382683 0.853554
endloop
endfacet
facet normal -0.186990 0.285164 0.940062
outer loop
vertex -0.000000 0.195090 0.980786
vertex -0.353554 0.382683 0.853554
vertex -0.375330 0.195090 0.906128
endloop
endfacet
facet normal -0.057645 -0.955349 0.289802
outer loop
vertex -0.000000 -0.980785 0.195091
vertex -0.000000 -0.923880 0.382684
vertex -0.146447 -0.923880 0.353554
endloop
endfacet
facet normal -0.057645 -0.955349 0.289802
outer loop
vertex -0.000000 -0.980785 0.195091
vertex -0.146447 -0.923880 0.353554
vertex -0.074658 -0.980785 0.180240
endloop
endfacet
facet normal -0.194187 0.096152 0.976241
outer loop
vertex -0.000000 0.000000 1.000000
vertex -0.000000 0.195090 0.980786
vertex -0.375330 0.195090 0.906128
endloop
endfacet
facet normal -0.194187 0.096152 0.976241
outer loop
vertex -0.000000 0.000000 1.000000
vertex -0.375330 0.195090 0.906128
vertex -0.382684 0.000000 0.923880
endloop
endfacet
facet normal -0.019493 0.994996 0.097999
outer loop
vertex -0.000000 0.980785 0.195091
vertex -0.000000 1.000000 0.000000
vertex -0.074658 0.980785 0.180241
endloop
endfacet
facet normal -0.019493 -0.994996 0.097999
outer loop
vertex 0.000000 -1.000000 0.000000
vertex -0.000000 -0.980785 0.195091
vertex -0.074658 -0.980785 0.180240
endloop
endfacet
facet normal -0.194187 -0.096152 0.976241
outer loop
vertex -0.000000 -0.195090 0.980786
vertex -0.000000 0.000000 1.000000
vertex -0.382684 0.000000 0.923880
endloop
endfacet
facet normal -0.194187 -0.096152 0.976241
outer loop
vertex -0.000000 -0.195090 0.980786
vertex -0.382684 0.000000 0.923880
vertex -0.375330 -0.195090 0.906128
endloop
endfacet
facet normal -0.057645 0.955349 0.289801
outer loop
vertex -0.000000 0.923880 0.382684
vertex -0.000000 0.980785 0.195091
vertex -0.074658 0.980785 0.180241
endloop
endfacet
facet normal -0.057645 0.955349 0.289802
outer loop
vertex -0.000000 0.923880 0.382684
vertex -0.074658 0.980785 0.180241
vertex -0.146447 0.923880 0.353554
endloop
endfacet
facet normal -0.265859 -0.878070 0.397885
outer loop
vertex -0.146447 -0.923880 0.353554
vertex -0.212608 -0.831470 0.513280
vertex -0.392848 -0.831470 0.392848
endloop
endfacet
facet normal -0.265859 -0.878070 0.397885
outer loop
vertex -0.146447 -0.923880 0.353554
vertex -0.392848 -0.831470 0.392848
vertex -0.270598 -0.923880 0.270598
endloop
endfacet
facet normal -0.532503 0.285164 0.796946
outer loop
vertex -0.375330 0.195090 0.906128
vertex -0.353554 0.382683 0.853554
vertex -0.653282 0.382683 0.653282
endloop
endfacet
facet normal -0.532503 0.285164 0.796946
outer loop
vertex -0.375330 0.195090 0.906128
vertex -0.653282 0.382683 0.653282
vertex -0.693520 0.195090 0.693520
endloop
endfacet
facet normal -0.164159 -0.955349 0.245682
outer loop
vertex -0.074658 -0.980785 0.180240
vertex -0.146447 -0.923880 0.353554
vertex -0.270598 -0.923880 0.270598
endloop
endfacet
facet normal -0.164159 -0.955349 0.245682
outer loop
vertex -0.074658 -0.980785 0.180240
vertex -0.270598 -0.923880 0.270598
vertex -0.137950 -0.980785 0.137950
endloop
endfacet
facet normal -0.552996 0.096152 0.827617
outer loop
vertex -0.382684 0.000000 0.923880
vertex -0.375330 0.195090 0.906128
vertex -0.693520 0.195090 0.693520
endloop
endfacet
facet normal -0.552997 0.096152 0.827617
outer loop
vertex -0.382684 0.000000 0.923880
vertex -0.693520 0.195090 0.693520
vertex -0.707107 0.000000 0.707107
endloop
endfacet
facet normal -0.055512 0.994996 0.083080
outer loop
vertex -0.074658 0.980785 0.180241
vertex -0.000000 1.000000 0.000000
vertex -0.137950 0.980785 0.137950
endloop
endfacet
facet normal -0.055512 -0.994996 0.083079
outer loop
vertex 0.000000 -1.000000 0.000000
vertex -0.074658 -0.980785 0.180240
vertex -0.137950 -0.980785 0.137950
endloop
endfacet
facet normal -0.552996 -0.096152 0.827617
outer loop
vertex -0.375330 -0.195090 0.906128
vertex -0.382684 0.000000 0.923880
vertex -0.707107 0.000000 0.707107
endloop
endfacet
facet normal -0.552997 -0.096152 0.827617
outer loop
vertex -0.375330 -0.195090 0.906128
vertex -0.707107 0.000000 0.707107
vertex -0.693520 -0.195090 0.693520
endloop
endfacet
facet normal -0.164160 0.955349 0.245682
outer loop
vertex -0.146447 0.923880 0.353554
vertex -0.074658 0.980785 0.180241
vertex -0.137950 0.980785 0.137950
endloop
endfacet
facet normal -0.164160 0.955349 0.245682
outer loop
vertex -0.146447 0.923880 0.353554
vertex -0.137950 0.980785 0.137950
vertex -0.270598 0.923880 0.270598
endloop
endfacet
facet normal -0.532502 -0.285164 0.796946
outer loop
vertex -0.353554 -0.382683 0.853554
vertex -0.375330 -0.195090 0.906128
vertex -0.693520 -0.195090 0.693520
endloop
endfacet
facet normal -0.532503 -0.285164 0.796946
outer loop
vertex -0.353554 -0.382683 0.853554
vertex -0.693520 -0.195090 0.693520
vertex -0.653282 -0.382683 0.653282
endloop
endfacet
facet normal -0.265859 0.878070 0.397885
outer loop
vertex -0.212608 0.831470 0.513280
vertex -0.146447 0.923880 0.353554
vertex -0.270598 0.923880 0.270598
endloop
endfacet
facet normal -0.265859 0.878070 0.397886
outer loop
vertex -0.212608 0.831470 0.513280
vertex -0.270598 0.923880 0.270598
vertex -0.392848 0.831470 0.392848
endloop
endfacet
facet normal -0.492055 -0.464306 0.736411
outer loop
vertex -0.318190 -0.555570 0.768178
vertex -0.353554 -0.382683 0.853554
vertex -0.653282 -0.382683 0.653282
endloop
endfacet
facet normal -0.492055 -0.464307 0.736411
outer loop
vertex -0.318190 -0.555570 0.768178
vertex -0.653282 -0.382683 0.653282
vertex -0.587938 -0.555570 0.587938
endloop
endfacet
facet normal -0.356528 0.766928 0.533582
outer loop
vertex -0.270598 0.707107 0.653282
vertex -0.212608 0.831470 0.513280
vertex -0.392848 0.831470 0.392848
endloop
endfacet
facet normal -0.356528 0.766928 0.533582
outer loop
vertex -0.270598 0.707107 0.653282
vertex -0.392848 0.831470 0.392848
vertex -0.500000 0.707107 0.500000
endloop
endfacet
facet normal -0.432789 -0.627024 0.647714
outer loop
vertex -0.270598 -0.707107 0.653282
vertex -0.318190 -0.555570 0.768178
vertex -0.587938 -0.555570 0.587938
endloop
endfacet
facet normal -0.432789 -0.627025 0.647714
outer loop
vertex -0.270598 -0.707107 0.653282
vertex -0.587938 -0.555570 0.587938
vertex -0.500000 -0.707107 0.500000
endloop
endfacet
facet normal -0.432789 0.627025 0.647714
outer loop
vertex -0.318190 0.555570 0.768178
vertex -0.270598 0.707107 0.653282
vertex -0.500000 0.707107 0.500000
endloop
endfacet
facet normal -0.432789 0.627025 0.647714
outer loop
vertex -0.318190 0.555570 0.768178
vertex -0.500000 0.707107 0.500000
vertex -0.587938 0.555570 0.587938
endloop
endfacet
facet normal -0.356528 -0.766928 0.533582
outer loop
vertex -0.212608 -0.831470 0.513280
vertex -0.270598 -0.707107 0.653282
vertex -0.500000 -0.707107 0.500000
endloop
endfacet
facet normal -0.356528 -0.766928 0.533582
outer loop
vertex -0.212608 -0.831470 0.513280
vertex -0.500000 -0.707107 0.500000
vertex -0.392848 -0.831470 0.392848
endloop
endfacet
facet normal -0.492055 0.464307 0.736411
outer loop
vertex -0.353554 0.382683 0.853554
vertex -0.318190 0.555570 0.768178
vertex -0.587938 0.555570 0.587938
endloop
endfacet
facet normal -0.492054 0.464307 0.736411
outer loop
vertex -0.353554 0.382683 0.853554
vertex -0.587938 0.555570 0.587938
vertex -0.653282 0.382683 0.653282
endloop
endfacet
facet normal -0.736412 -0.464307 0.492054
outer loop
vertex -0.587938 -0.555570 0.587938
vertex -0.653282 -0.382683 0.653282
vertex -0.853554 -0.382683 0.353553
endloop
endfacet
facet normal -0.736412 -0.464306 0.492054
outer loop
vertex -0.587938 -0.555570 0.587938
vertex -0.853554 -0.382683 0.353553
vertex -0.768178 -0.555570 0.318190
endloop
endfacet
facet normal -0.533581 0.766928 0.356527
outer loop
vertex -0.500000 0.707107 0.500000
vertex -0.392848 0.831470 0.392848
vertex -0.513280 0.831470 0.212608
endloop
endfacet
facet normal -0.533582 0.766928 0.356528
outer loop
vertex -0.500000 0.707107 0.500000
vertex -0.513280 0.831470 0.212608
vertex -0.653282 0.707107 0.270598
endloop
endfacet
facet normal -0.647715 -0.627025 0.432789
outer loop
vertex -0.500000 -0.707107 0.500000
vertex -0.587938 -0.555570 0.587938
vertex -0.768178 -0.555570 0.318190
endloop
endfacet
facet normal -0.647715 -0.627024 0.432789
outer loop
vertex -0.500000 -0.707107 0.500000
vertex -0.768178 -0.555570 0.318190
vertex -0.653282 -0.707107 0.270598
endloop
endfacet
facet normal -0.647715 0.627024 0.432789
outer loop
vertex -0.587938 0.555570 0.587938
vertex -0.500000 0.707107 0.500000
vertex -0.653282 0.707107 0.270598
endloop
endfacet
facet normal -0.647714 0.627025 0.432789
outer loop
vertex -0.587938 0.555570 0.587938
vertex -0.653282 0.707107 0.270598
vertex -0.768178 0.555570 0.318190
endloop
endfacet
facet normal -0.533582 -0.766928 0.356528
outer loop
vertex -0.392848 -0.831470 0.392848
vertex -0.500000 -0.707107 0.500000
vertex -0.653282 -0.707107 0.270598
endloop
endfacet
facet normal -0.533582 -0.766928 0.356527
outer loop
vertex -0.392848 -0.831470 0.392848
vertex -0.653282 -0.707107 0.270598
vertex -0.513280 -0.831470 0.212608
endloop
endfacet
facet normal -0.736412 0.464307 0.492054
outer loop
vertex -0.653282 0.382683 0.653282
vertex -0.587938 0.555570 0.587938
vertex -0.768178 0.555570 0.318190
endloop
endfacet
facet normal -0.736411 0.464308 0.492054
outer loop
vertex -0.653282 0.382683 0.653282
vertex -0.768178 0.555570 0.318190
vertex -0.853554 0.382683 0.353553
endloop
endfacet
facet normal -0.397886 -0.878069 0.265859
outer loop
vertex -0.270598 -0.923880 0.270598
vertex -0.392848 -0.831470 0.392848
vertex -0.513280 -0.831470 0.212608
endloop
endfacet
facet normal -0.397886 -0.878070 0.265858
outer loop
vertex -0.270598 -0.923880 0.270598
vertex -0.513280 -0.831470 0.212608
vertex -0.353554 -0.923880 0.146447
endloop
endfacet
facet normal -0.796946 0.285164 0.532502
outer loop
vertex -0.693520 0.195090 0.693520
vertex -0.653282 0.382683 0.653282
vertex -0.853554 0.382683 0.353553
endloop
endfacet
facet normal -0.796946 0.285163 0.532502
outer loop
vertex -0.693520 0.195090 0.693520
vertex -0.853554 0.382683 0.353553
vertex -0.906127 0.195090 0.375330
endloop
endfacet
facet normal -0.245682 -0.955349 0.164159
outer loop
vertex -0.137950 -0.980785 0.137950
vertex -0.270598 -0.923880 0.270598
vertex -0.353554 -0.923880 0.146447
endloop
endfacet
facet normal -0.245682 -0.955349 0.164160
outer loop
vertex -0.137950 -0.980785 0.137950
vertex -0.353554 -0.923880 0.146447
vertex -0.180240 -0.980785 0.074658
endloop
endfacet
facet normal -0.827617 0.096152 0.552996
outer loop
vertex -0.707107 0.000000 0.707107
vertex -0.693520 0.195090 0.693520
vertex -0.906127 0.195090 0.375330
endloop
endfacet
facet normal -0.827617 0.096152 0.552996
outer loop
vertex -0.707107 0.000000 0.707107
vertex -0.906127 0.195090 0.375330
vertex -0.923880 0.000000 0.382683
endloop
endfacet
facet normal -0.083079 0.994996 0.055511
outer loop
vertex -0.137950 0.980785 0.137950
vertex -0.000000 1.000000 0.000000
vertex -0.180240 0.980785 0.074658
endloop
endfacet
facet normal -0.083079 -0.994996 0.055512
outer loop
vertex 0.000000 -1.000000 0.000000
vertex -0.137950 -0.980785 0.137950
vertex -0.180240 -0.980785 0.074658
endloop
endfacet
facet normal -0.827617 -0.096152 0.552996
outer loop
vertex -0.693520 -0.195090 0.693520
vertex -0.707107 0.000000 0.707107
vertex -0.923880 0.000000 0.382683
endloop
endfacet
facet normal -0.827617 -0.096153 0.552996
outer loop
vertex -0.693520 -0.195090 0.693520
vertex -0.923880 0.000000 0.382683
vertex -0.906127 -0.195090 0.375330
endloop
endfacet
facet normal -0.245682 0.955349 0.164160
outer loop
vertex -0.270598 0.923880 0.270598
vertex -0.137950 0.980785 0.137950
vertex -0.180240 0.980785 0.074658
endloop
endfacet
facet normal -0.245682 0.955349 0.164159
outer loop
vertex -0.270598 0.923880 0.270598
vertex -0.180240 0.980785 0.074658
vertex -0.353554 0.923880 0.146447
endloop
endfacet
facet normal -0.796946 -0.285164 0.532502
outer loop
vertex -0.653282 -0.382683 0.653282
vertex -0.693520 -0.195090 0.693520
vertex -0.906127 -0.195090 0.375330
endloop
endfacet
facet normal -0.796946 -0.285163 0.532502
outer loop
vertex -0.653282 -0.382683 0.653282
vertex -0.906127 -0.195090 0.375330
vertex -0.853554 -0.382683 0.353553
endloop
endfacet
facet normal -0.397886 0.878070 0.265858
outer loop
vertex -0.392848 0.831470 0.392848
vertex -0.270598 0.923880 0.270598
vertex -0.353554 0.923880 0.146447
endloop
endfacet
facet normal -0.397886 0.878069 0.265859
outer loop
vertex -0.392848 0.831470 0.392848
vertex -0.353554 0.923880 0.146447
vertex -0.513280 0.831470 0.212608
endloop
endfacet
facet normal -0.289802 -0.955349 0.057645
outer loop
vertex -0.180240 -0.980785 0.074658
vertex -0.353554 -0.923880 0.146447
vertex -0.382684 -0.923880 0.000000
endloop
endfacet
facet normal -0.289802 -0.955349 0.057645
outer loop
vertex -0.180240 -0.980785 0.074658
vertex -0.382684 -0.923880 0.000000
vertex -0.195090 -0.980785 0.000000
endloop
endfacet
facet normal -0.976241 0.096153 0.194186
outer loop
vertex -0.923880 0.000000 0.382683
vertex -0.906127 0.195090 0.375330
vertex -0.980785 0.195090 0.000000
endloop
endfacet
facet normal -0.976241 0.096152 0.194186
outer loop
vertex -0.923880 0.000000 0.382683
vertex -0.980785 0.195090 0.000000
vertex -1.000000 0.000000 -0.000000
endloop
endfacet
facet normal -0.097999 0.994996 0.019492
outer loop
vertex -0.180240 0.980785 0.074658
vertex -0.000000 1.000000 0.000000
vertex -0.195091 0.980785 0.000000
endloop
endfacet
facet normal -0.097998 -0.994996 0.019492
outer loop
vertex 0.000000 -1.000000 0.000000
vertex -0.180240 -0.980785 0.074658
vertex -0.195090 -0.980785 0.000000
endloop
endfacet
facet normal -0.976241 -0.096153 0.194186
outer loop
vertex -0.906127 -0.195090 0.375330
vertex -0.923880 0.000000 0.382683
vertex -1.000000 0.000000 -0.000000
endloop
endfacet
facet normal -0.976241 -0.096152 0.194186
outer loop
vertex -0.906127 -0.195090 0.375330
vertex -1.000000 0.000000 -0.000000
vertex -0.980785 -0.195090 0.000000
endloop
endfacet
facet normal -0.289802 0.955349 0.057645
outer loop
vertex -0.353554 0.923880 0.146447
vertex -0.180240 0.980785 0.074658
vertex -0.195091 0.980785 0.000000
endloop
endfacet
facet normal -0.289802 0.955349 0.057645
outer loop
vertex -0.353554 0.923880 0.146447
vertex -0.195091 0.980785 0.000000
vertex -0.382684 0.923880 0.000000
endloop
endfacet
facet normal -0.940062 -0.285164 0.186990
outer loop
vertex -0.853554 -0.382683 0.353553
vertex -0.906127 -0.195090 0.375330
vertex -0.980785 -0.195090 0.000000
endloop
endfacet
facet normal -0.940062 -0.285164 0.186989
outer loop
vertex -0.853554 -0.382683 0.353553
vertex -0.980785 -0.195090 0.000000
vertex -0.923880 -0.382683 -0.000000
endloop
endfacet
facet normal -0.469338 0.878070 0.093356
outer loop
vertex -0.513280 0.831470 0.212608
vertex -0.353554 0.923880 0.146447
vertex -0.382684 0.923880 0.000000
endloop
endfacet
facet normal -0.469338 0.878070 0.093357
outer loop
vertex -0.513280 0.831470 0.212608
vertex -0.382684 0.923880 0.000000
vertex -0.555570 0.831470 0.000000
endloop
endfacet
facet normal -0.868657 -0.464307 0.172786
outer loop
vertex -0.768178 -0.555570 0.318190
vertex -0.853554 -0.382683 0.353553
vertex -0.923880 -0.382683 -0.000000
endloop
endfacet
facet normal -0.868657 -0.464306 0.172786
outer loop
vertex -0.768178 -0.555570 0.318190
vertex -0.923880 -0.382683 -0.000000
vertex -0.831470 -0.555570 -0.000000
endloop
endfacet
facet normal -0.629403 0.766928 0.125196
outer loop
vertex -0.653282 0.707107 0.270598
vertex -0.513280 0.831470 0.212608
vertex -0.555570 0.831470 0.000000
endloop
endfacet
facet normal -0.629402 0.766928 0.125196
outer loop
vertex -0.653282 0.707107 0.270598
vertex -0.555570 0.831470 0.000000
vertex -0.707107 0.707107 0.000000
endloop
endfacet
facet normal -0.764031 -0.627024 0.151975
outer loop
vertex -0.653282 -0.707107 0.270598
vertex -0.768178 -0.555570 0.318190
vertex -0.831470 -0.555570 -0.000000
endloop
endfacet
facet normal -0.764031 -0.627025 0.151975
outer loop
vertex -0.653282 -0.707107 0.270598
vertex -0.831470 -0.555570 -0.000000
vertex -0.707107 -0.707107 0.000000
endloop
endfacet
facet normal -0.764032 0.627024 0.151975
outer loop
vertex -0.768178 0.555570 0.318190
vertex -0.653282 0.707107 0.270598
vertex -0.707107 0.707107 0.000000
endloop
endfacet
facet normal -0.764031 0.627025 0.151975
outer loop
vertex -0.768178 0.555570 0.318190
vertex -0.707107 0.707107 0.000000
vertex -0.831470 0.555570 -0.000000
endloop
endfacet
facet normal -0.629402 -0.766928 0.125196
outer loop
vertex -0.513280 -0.831470 0.212608
vertex -0.653282 -0.707107 0.270598
vertex -0.707107 -0.707107 0.000000
endloop
endfacet
facet normal -0.629403 -0.766928 0.125196
outer loop
vertex -0.513280 -0.831470 0.212608
vertex -0.707107 -0.707107 0.000000
vertex -0.555570 -0.831470 0.000000
endloop
endfacet
facet normal -0.868656 0.464307 0.172786
outer loop
vertex -0.853554 0.382683 0.353553
vertex -0.768178 0.555570 0.318190
vertex -0.831470 0.555570 -0.000000
endloop
endfacet
facet normal -0.868656 0.464307 0.172786
outer loop
vertex -0.853554 0.382683 0.353553
vertex -0.831470 0.555570 -0.000000
vertex -0.923880 0.382683 -0.000000
endloop
endfacet
facet normal -0.469338 -0.878069 0.093357
outer loop
vertex -0.353554 -0.923880 0.146447
vertex -0.513280 -0.831470 0.212608
vertex -0.555570 -0.831470 0.000000
endloop
endfacet
facet normal -0.469338 -0.878070 0.093357
outer loop
vertex -0.353554 -0.923880 0.146447
vertex -0.555570 -0.831470 0.000000
vertex -0.382684 -0.923880 0.000000
endloop
endfacet
facet normal -0.940062 0.285163 0.186990
outer loop
vertex -0.906127 0.195090 0.375330
vertex -0.853554 0.382683 0.353553
vertex -0.923880 0.382683 -0.000000
endloop
endfacet
facet normal -0.940062 0.285164 0.186990
outer loop
vertex -0.906127 0.195090 0.375330
vertex -0.923880 0.382683 -0.000000
vertex -0.980785 0.195090 0.000000
endloop
endfacet
facet normal -0.629403 0.766928 -0.125196
outer loop
vertex -0.707107 0.707107 0.000000
vertex -0.555570 0.831470 0.000000
vertex -0.513280 0.831470 -0.212608
endloop
endfacet
facet normal -0.629403 0.766928 -0.125196
outer loop
vertex -0.707107 0.707107 0.000000
vertex -0.513280 0.831470 -0.212608
vertex -0.653281 0.707107 -0.270598
endloop
endfacet
facet normal -0.764031 -0.627024 -0.151976
outer loop
vertex -0.707107 -0.707107 0.000000
vertex -0.831470 -0.555570 -0.000000
vertex -0.768178 -0.555570 -0.318190
endloop
endfacet
facet normal -0.764031 -0.627024 -0.151976
outer loop
vertex -0.707107 -0.707107 0.000000
vertex -0.768178 -0.555570 -0.318190
vertex -0.653281 -0.707107 -0.270598
endloop
endfacet
facet normal -0.764031 0.627025 -0.151976
outer loop
vertex -0.831470 0.555570 -0.000000
vertex -0.707107 0.707107 0.000000
vertex -0.653281 0.707107 -0.270598
endloop
endfacet
facet normal -0.764031 0.627024 -0.151976
outer loop
vertex -0.831470 0.555570 -0.000000
vertex -0.653281 0.707107 -0.270598
vertex -0.768178 0.555570 -0.318190
endloop
endfacet
facet normal -0.629403 -0.766928 -0.125196
outer loop
vertex -0.555570 -0.831470 0.000000
vertex -0.707107 -0.707107 0.000000
vertex -0.653281 -0.707107 -0.270598
endloop
endfacet
facet normal -0.629402 -0.766928 -0.125197
outer loop
vertex -0.555570 -0.831470 0.000000
vertex -0.653281 -0.707107 -0.270598
vertex -0.513280 -0.831470 -0.212608
endloop
endfacet
facet normal -0.868656 0.464307 -0.172787
outer loop
vertex -0.923880 0.382683 -0.000000
vertex -0.831470 0.555570 -0.000000
vertex -0.768178 0.555570 -0.318190
endloop
endfacet
facet normal -0.868656 0.464307 -0.172787
outer loop
vertex -0.923880 0.382683 -0.000000
vertex -0.768178 0.555570 -0.318190
vertex -0.853553 0.382683 -0.353553
endloop
endfacet
facet normal -0.469338 -0.878069 -0.093357
outer loop
vertex -0.382684 -0.923880 0.000000
vertex -0.555570 -0.831470 0.000000
vertex -0.513280 -0.831470 -0.212608
endloop
endfacet
facet normal -0.469338 -0.878070 -0.093358
outer loop
vertex -0.382684 -0.923880 0.000000
vertex -0.513280 -0.831470 -0.212608
vertex -0.353553 -0.923880 -0.146447
endloop
endfacet
facet normal -0.940062 0.285163 -0.186990
outer loop
vertex -0.980785 0.195090 0.000000
vertex -0.923880 0.382683 -0.000000
vertex -0.853553 0.382683 -0.353553
endloop
endfacet
facet normal -0.940062 0.285163 -0.186990
outer loop
vertex -0.980785 0.195090 0.000000
vertex -0.853553 0.382683 -0.353553
vertex -0.906127 0.195090 -0.375330
endloop
endfacet
facet normal -0.289802 -0.955349 -0.057645
outer loop
vertex -0.195090 -0.980785 0.000000
vertex -0.382684 -0.923880 0.000000
vertex -0.353553 -0.923880 -0.146447
endloop
endfacet
facet normal -0.289802 -0.955349 -0.057645
outer loop
vertex -0.195090 -0.980785 0.000000
vertex -0.353553 -0.923880 -0.146447
vertex -0.180240 -0.980785 -0.074658
endloop
endfacet
facet normal -0.976241 0.096153 -0.194187
outer loop
vertex -1.000000 0.000000 -0.000000
vertex -0.980785 0.195090 0.000000
vertex -0.906127 0.195090 -0.375330
endloop
endfacet
facet normal -0.976241 0.096153 -0.194187
outer loop
vertex -1.000000 0.000000 -0.000000
vertex -0.906127 0.195090 -0.375330
vertex -0.923880 0.000000 -0.382684
endloop
endfacet
facet normal -0.097999 0.994996 -0.019492
outer loop
vertex -0.195091 0.980785 0.000000
vertex -0.000000 1.000000 0.000000
vertex -0.180240 0.980785 -0.074658
endloop
endfacet
facet normal -0.097998 -0.994996 -0.019492
outer loop
vertex 0.000000 -1.000000 0.000000
vertex -0.195090 -0.980785 0.000000
vertex -0.180240 -0.980785 -0.074658
endloop
endfacet
facet normal -0.976241 -0.096153 -0.194187
outer loop
vertex -0.980785 -0.195090 0.000000
vertex -1.000000 0.000000 -0.000000
vertex -0.923880 0.000000 -0.382684
endloop
endfacet
facet normal -0.976241 -0.096154 -0.194187
outer loop
vertex -0.980785 -0.195090 0.000000
vertex -0.923880 0.000000 -0.382684
vertex -0.906127 -0.195090 -0.375330
endloop
endfacet
facet normal -0.289802 0.955349 -0.057645
outer loop
vertex -0.382684 0.923880 0.000000
vertex -0.195091 0.980785 0.000000
vertex -0.180240 0.980785 -0.074658
endloop
endfacet
facet normal -0.289802 0.955349 -0.057645
outer loop
vertex -0.382684 0.923880 0.000000
vertex -0.180240 0.980785 -0.074658
vertex -0.353554 0.923880 -0.146446
endloop
endfacet
facet normal -0.940062 -0.285163 -0.186990
outer loop
vertex -0.923880 -0.382683 -0.000000
vertex -0.980785 -0.195090 0.000000
vertex -0.906127 -0.195090 -0.375330
endloop
endfacet
facet normal -0.940062 -0.285164 -0.186990
outer loop
vertex -0.923880 -0.382683 -0.000000
vertex -0.906127 -0.195090 -0.375330
vertex -0.853553 -0.382683 -0.353553
endloop
endfacet
facet normal -0.469338 0.878070 -0.093358
outer loop
vertex -0.555570 0.831470 0.000000
vertex -0.382684 0.923880 0.000000
vertex -0.353554 0.923880 -0.146446
endloop
endfacet
facet normal -0.469338 0.878070 -0.093357
outer loop
vertex -0.555570 0.831470 0.000000
vertex -0.353554 0.923880 -0.146446
vertex -0.513280 0.831470 -0.212608
endloop
endfacet
facet normal -0.868656 -0.464307 -0.172787
outer loop
vertex -0.831470 -0.555570 -0.000000
vertex -0.923880 -0.382683 -0.000000
vertex -0.853553 -0.382683 -0.353553
endloop
endfacet
facet normal -0.868656 -0.464307 -0.172787
outer loop
vertex -0.831470 -0.555570 -0.000000
vertex -0.853553 -0.382683 -0.353553
vertex -0.768178 -0.555570 -0.318190
endloop
endfacet
facet normal -0.827617 0.096152 -0.552996
outer loop
vertex -0.923880 0.000000 -0.382684
vertex -0.906127 0.195090 -0.375330
vertex -0.693520 0.195090 -0.693520
endloop
endfacet
facet normal -0.827617 0.096153 -0.552996
outer loop
vertex -0.923880 0.000000 -0.382684
vertex -0.693520 0.195090 -0.693520
vertex -0.707107 0.000000 -0.707107
endloop
endfacet
facet normal -0.083079 0.994996 -0.055511
outer loop
vertex -0.180240 0.980785 -0.074658
vertex -0.000000 1.000000 0.000000
vertex -0.137950 0.980785 -0.137950
endloop
endfacet
facet normal -0.083079 -0.994996 -0.055512
outer loop
vertex 0.000000 -1.000000 0.000000
vertex -0.180240 -0.980785 -0.074658
vertex -0.137950 -0.980785 -0.137949
endloop
endfacet
facet normal -0.827617 -0.096153 -0.552996
outer loop
vertex -0.906127 -0.195090 -0.375330
vertex -0.923880 0.000000 -0.382684
vertex -0.707107 0.000000 -0.707107
endloop
endfacet
facet normal -0.827617 -0.096152 -0.552996
outer loop
vertex -0.906127 -0.195090 -0.375330
vertex -0.707107 0.000000 -0.707107
vertex -0.693520 -0.195090 -0.693520
endloop
endfacet
facet normal -0.245682 0.955349 -0.164161
outer loop
vertex -0.353554 0.923880 -0.146446
vertex -0.180240 0.980785 -0.074658
vertex -0.137950 0.980785 -0.137950
endloop
endfacet
facet normal -0.245682 0.955349 -0.164159
outer loop
vertex -0.353554 0.923880 -0.146446
vertex -0.137950 0.980785 -0.137950
vertex -0.270598 0.923880 -0.270598
endloop
endfacet
facet normal -0.796946 -0.285164 -0.532502
outer loop
vertex -0.853553 -0.382683 -0.353553
vertex -0.906127 -0.195090 -0.375330
vertex -0.693520 -0.195090 -0.693520
endloop
endfacet
facet normal -0.796946 -0.285163 -0.532503
outer loop
vertex -0.853553 -0.382683 -0.353553
vertex -0.693520 -0.195090 -0.693520
vertex -0.653281 -0.382683 -0.653282
endloop
endfacet
facet normal -0.397885 0.878070 -0.265859
outer loop
vertex -0.513280 0.831470 -0.212608
vertex -0.353554 0.923880 -0.146446
vertex -0.270598 0.923880 -0.270598
endloop
endfacet
facet normal -0.397885 0.878070 -0.265859
outer loop
vertex -0.513280 0.831470 -0.212608
vertex -0.270598 0.923880 -0.270598
vertex -0.392847 0.831470 -0.392847
endloop
endfacet
facet normal -0.736411 -0.464307 -0.492055
outer loop
vertex -0.768178 -0.555570 -0.318190
vertex -0.853553 -0.382683 -0.353553
vertex -0.653281 -0.382683 -0.653282
endloop
endfacet
facet normal -0.736411 -0.464306 -0.492055
outer loop
vertex -0.768178 -0.555570 -0.318190
vertex -0.653281 -0.382683 -0.653282
vertex -0.587937 -0.555570 -0.587938
endloop
endfacet
facet normal -0.533581 0.766928 -0.356529
outer loop
vertex -0.653281 0.707107 -0.270598
vertex -0.513280 0.831470 -0.212608
vertex -0.392847 0.831470 -0.392847
endloop
endfacet
facet normal -0.533582 0.766928 -0.356528
outer loop
vertex -0.653281 0.707107 -0.270598
vertex -0.392847 0.831470 -0.392847
vertex -0.500000 0.707107 -0.500000
endloop
endfacet
facet normal -0.647714 -0.627024 -0.432789
outer loop
vertex -0.653281 -0.707107 -0.270598
vertex -0.768178 -0.555570 -0.318190
vertex -0.587937 -0.555570 -0.587938
endloop
endfacet
facet normal -0.647714 -0.627025 -0.432789
outer loop
vertex -0.653281 -0.707107 -0.270598
vertex -0.587937 -0.555570 -0.587938
vertex -0.500000 -0.707107 -0.500000
endloop
endfacet
facet normal -0.647714 0.627025 -0.432789
outer loop
vertex -0.768178 0.555570 -0.318190
vertex -0.653281 0.707107 -0.270598
vertex -0.500000 0.707107 -0.500000
endloop
endfacet
facet normal -0.647714 0.627024 -0.432789
outer loop
vertex -0.768178 0.555570 -0.318190
vertex -0.500000 0.707107 -0.500000
vertex -0.587937 0.555570 -0.587938
endloop
endfacet
facet normal -0.533582 -0.766928 -0.356528
outer loop
vertex -0.513280 -0.831470 -0.212608
vertex -0.653281 -0.707107 -0.270598
vertex -0.500000 -0.707107 -0.500000
endloop
endfacet
facet normal -0.533582 -0.766928 -0.356528
outer loop
vertex -0.513280 -0.831470 -0.212608
vertex -0.500000 -0.707107 -0.500000
vertex -0.392847 -0.831470 -0.392847
endloop
endfacet
facet normal -0.736411 0.464307 -0.492055
outer loop
vertex -0.853553 0.382683 -0.353553
vertex -0.768178 0.555570 -0.318190
vertex -0.587937 0.555570 -0.587938
endloop
endfacet
facet normal -0.736411 0.464307 -0.492055
outer loop
vertex -0.853553 0.382683 -0.353553
vertex -0.587937 0.555570 -0.587938
vertex -0.653281 0.382683 -0.653282
endloop
endfacet
facet normal -0.397886 -0.878070 -0.265859
outer loop
vertex -0.353553 -0.923880 -0.146447
vertex -0.513280 -0.831470 -0.212608
vertex -0.392847 -0.831470 -0.392847
endloop
endfacet
facet normal -0.397886 -0.878069 -0.265859
outer loop
vertex -0.353553 -0.923880 -0.146447
vertex -0.392847 -0.831470 -0.392847
vertex -0.270598 -0.923880 -0.270598
endloop
endfacet
facet normal -0.796946 0.285163 -0.532503
outer loop
vertex -0.906127 0.195090 -0.375330
vertex -0.853553 0.382683 -0.353553
vertex -0.653281 0.382683 -0.653282
endloop
endfacet
facet normal -0.796946 0.285164 -0.532503
outer loop
vertex -0.906127 0.195090 -0.375330
vertex -0.653281 0.382683 -0.653282
vertex -0.693520 0.195090 -0.693520
endloop
endfacet
facet normal -0.245682 -0.955349 -0.164160
outer loop
vertex -0.180240 -0.980785 -0.074658
vertex -0.353553 -0.923880 -0.146447
vertex -0.270598 -0.923880 -0.270598
endloop
endfacet
facet normal -0.245682 -0.955349 -0.164160
outer loop
vertex -0.180240 -0.980785 -0.074658
vertex -0.270598 -0.923880 -0.270598
vertex -0.137950 -0.980785 -0.137949
endloop
endfacet
facet normal -0.432788 -0.627024 -0.647715
outer loop
vertex -0.500000 -0.707107 -0.500000
vertex -0.587937 -0.555570 -0.587938
vertex -0.318189 -0.555570 -0.768178
endloop
endfacet
facet normal -0.432789 -0.627024 -0.647715
outer loop
vertex -0.500000 -0.707107 -0.500000
vertex -0.318189 -0.555570 -0.768178
vertex -0.270598 -0.707107 -0.653281
endloop
endfacet
facet normal -0.432789 0.627025 -0.647714
outer loop
vertex -0.587937 0.555570 -0.587938
vertex -0.500000 0.707107 -0.500000
vertex -0.270598 0.707107 -0.653281
endloop
endfacet
facet normal -0.432789 0.627024 -0.647715
outer loop
vertex -0.587937 0.555570 -0.587938
vertex -0.270598 0.707107 -0.653281
vertex -0.318189 0.555570 -0.768178
endloop
endfacet
facet normal -0.356528 -0.766928 -0.533582
outer loop
vertex -0.392847 -0.831470 -0.392847
vertex -0.500000 -0.707107 -0.500000
vertex -0.270598 -0.707107 -0.653281
endloop
endfacet
facet normal -0.356528 -0.766928 -0.533582
outer loop
vertex -0.392847 -0.831470 -0.392847
vertex -0.270598 -0.707107 -0.653281
vertex -0.212607 -0.831470 -0.513280
endloop
endfacet
facet normal -0.492054 0.464307 -0.736411
outer loop
vertex -0.653281 0.382683 -0.653282
vertex -0.587937 0.555570 -0.587938
vertex -0.318189 0.555570 -0.768178
endloop
endfacet
facet normal -0.492054 0.464307 -0.736411
outer loop
vertex -0.653281 0.382683 -0.653282
vertex -0.318189 0.555570 -0.768178
vertex -0.353553 0.382683 -0.853553
endloop
endfacet
facet normal -0.265859 -0.878070 -0.397886
outer loop
vertex -0.270598 -0.923880 -0.270598
vertex -0.392847 -0.831470 -0.392847
vertex -0.212607 -0.831470 -0.513280
endloop
endfacet
facet normal -0.265858 -0.878070 -0.397886
outer loop
vertex -0.270598 -0.923880 -0.270598
vertex -0.212607 -0.831470 -0.513280
vertex -0.146446 -0.923880 -0.353553
endloop
endfacet
facet normal -0.532502 0.285163 -0.796946
outer loop
vertex -0.693520 0.195090 -0.693520
vertex -0.653281 0.382683 -0.653282
vertex -0.353553 0.382683 -0.853553
endloop
endfacet
facet normal -0.532502 0.285163 -0.796947
outer loop
vertex -0.693520 0.195090 -0.693520
vertex -0.353553 0.382683 -0.853553
vertex -0.375330 0.195090 -0.906127
endloop
endfacet
facet normal -0.164159 -0.955349 -0.245682
outer loop
vertex -0.137950 -0.980785 -0.137949
vertex -0.270598 -0.923880 -0.270598
vertex -0.146446 -0.923880 -0.353553
endloop
endfacet
facet normal -0.164159 -0.955349 -0.245681
outer loop
vertex -0.137950 -0.980785 -0.137949
vertex -0.146446 -0.923880 -0.353553
vertex -0.074658 -0.980785 -0.180240
endloop
endfacet
facet normal -0.552996 0.096153 -0.827617
outer loop
vertex -0.707107 0.000000 -0.707107
vertex -0.693520 0.195090 -0.693520
vertex -0.375330 0.195090 -0.906127
endloop
endfacet
facet normal -0.552995 0.096153 -0.827617
outer loop
vertex -0.707107 0.000000 -0.707107
vertex -0.375330 0.195090 -0.906127
vertex -0.382683 0.000000 -0.923880
endloop
endfacet
facet normal -0.055512 0.994996 -0.083078
outer loop
vertex -0.137950 0.980785 -0.137950
vertex -0.000000 1.000000 0.000000
vertex -0.074658 0.980785 -0.180240
endloop
endfacet
facet normal -0.055512 -0.994996 -0.083080
outer loop
vertex 0.000000 -1.000000 0.000000
vertex -0.137950 -0.980785 -0.137949
vertex -0.074658 -0.980785 -0.180240
endloop
endfacet
facet normal -0.552995 -0.096153 -0.827618
outer loop
vertex -0.693520 -0.195090 -0.693520
vertex -0.707107 0.000000 -0.707107
vertex -0.382683 0.000000 -0.923880
endloop
endfacet
facet normal -0.552996 -0.096153 -0.827617
outer loop
vertex -0.693520 -0.195090 -0.693520
vertex -0.382683 0.000000 -0.923880
vertex -0.375330 -0.195090 -0.906127
endloop
endfacet
facet normal -0.164160 0.955349 -0.245682
outer loop
vertex -0.270598 0.923880 -0.270598
vertex -0.137950 0.980785 -0.137950
vertex -0.074658 0.980785 -0.180240
endloop
endfacet
facet normal -0.164160 0.955349 -0.245683
outer loop
vertex -0.270598 0.923880 -0.270598
vertex -0.074658 0.980785 -0.180240
vertex -0.146447 0.923880 -0.353553
endloop
endfacet
facet normal -0.532502 -0.285164 -0.796946
outer loop
vertex -0.653281 -0.382683 -0.653282
vertex -0.693520 -0.195090 -0.693520
vertex -0.375330 -0.195090 -0.906127
endloop
endfacet
facet normal -0.532502 -0.285164 -0.796946
outer loop
vertex -0.653281 -0.382683 -0.653282
vertex -0.375330 -0.195090 -0.906127
vertex -0.353553 -0.382683 -0.853553
endloop
endfacet
facet normal -0.265858 0.878070 -0.397886
outer loop
vertex -0.392847 0.831470 -0.392847
vertex -0.270598 0.923880 -0.270598
vertex -0.146447 0.923880 -0.353553
endloop
endfacet
facet normal -0.265858 0.878069 -0.397886
outer loop
vertex -0.392847 0.831470 -0.392847
vertex -0.146447 0.923880 -0.353553
vertex -0.212607 0.831470 -0.513280
endloop
endfacet
facet normal -0.492054 -0.464306 -0.736412
outer loop
vertex -0.587937 -0.555570 -0.587938
vertex -0.653281 -0.382683 -0.653282
vertex -0.353553 -0.382683 -0.853553
endloop
endfacet
facet normal -0.492054 -0.464307 -0.736412
outer loop
vertex -0.587937 -0.555570 -0.587938
vertex -0.353553 -0.382683 -0.853553
vertex -0.318189 -0.555570 -0.768178
endloop
endfacet
facet normal -0.356528 0.766928 -0.533581
outer loop
vertex -0.500000 0.707107 -0.500000
vertex -0.392847 0.831470 -0.392847
vertex -0.212607 0.831470 -0.513280
endloop
endfacet
facet normal -0.356528 0.766928 -0.533582
outer loop
vertex -0.500000 0.707107 -0.500000
vertex -0.212607 0.831470 -0.513280
vertex -0.270598 0.707107 -0.653281
endloop
endfacet
facet normal -0.019493 0.994996 -0.098000
outer loop
vertex -0.074658 0.980785 -0.180240
vertex -0.000000 1.000000 0.000000
vertex 0.000000 0.980785 -0.195090
endloop
endfacet
facet normal -0.019493 -0.994996 -0.097999
outer loop
vertex 0.000000 -1.000000 0.000000
vertex -0.074658 -0.980785 -0.180240
vertex 0.000000 -0.980785 -0.195090
endloop
endfacet
facet normal -0.194186 -0.096153 -0.976241
outer loop
vertex -0.375330 -0.195090 -0.906127
vertex -0.382683 0.000000 -0.923880
vertex 0.000000 0.000000 -1.000000
endloop
endfacet
facet normal -0.194188 -0.096151 -0.976241
outer loop
vertex -0.375330 -0.195090 -0.906127
vertex 0.000000 0.000000 -1.000000
vertex 0.000000 -0.195090 -0.980785
endloop
endfacet
facet normal -0.057645 0.955349 -0.289802
outer loop
vertex -0.146447 0.923880 -0.353553
vertex -0.074658 0.980785 -0.180240
vertex 0.000000 0.980785 -0.195090
endloop
endfacet
facet normal -0.057645 0.955349 -0.289802
outer loop
vertex -0.146447 0.923880 -0.353553
vertex 0.000000 0.980785 -0.195090
vertex 0.000000 0.923880 -0.382683
endloop
endfacet
facet normal -0.186991 -0.285164 -0.940062
outer loop
vertex -0.353553 -0.382683 -0.853553
vertex -0.375330 -0.195090 -0.906127
vertex 0.000000 -0.195090 -0.980785
endloop
endfacet
facet normal -0.186990 -0.285165 -0.940062
outer loop
vertex -0.353553 -0.382683 -0.853553
vertex 0.000000 -0.195090 -0.980785
vertex 0.000000 -0.382683 -0.923880
endloop
endfacet
facet normal -0.093357 0.878070 -0.469338
outer loop
vertex -0.212607 0.831470 -0.513280
vertex -0.146447 0.923880 -0.353553
vertex 0.000000 0.923880 -0.382683
endloop
endfacet
facet normal -0.093357 0.878069 -0.469338
outer loop
vertex -0.212607 0.831470 -0.513280
vertex 0.000000 0.923880 -0.382683
vertex 0.000000 0.831470 -0.555570
endloop
endfacet
facet normal -0.172787 -0.464307 -0.868657
outer loop
vertex -0.318189 -0.555570 -0.768178
vertex -0.353553 -0.382683 -0.853553
vertex 0.000000 -0.382683 -0.923880
endloop
endfacet
facet normal -0.172787 -0.464306 -0.868657
outer loop
vertex -0.318189 -0.555570 -0.768178
vertex 0.000000 -0.382683 -0.923880
vertex 0.000000 -0.555570 -0.831470
endloop
endfacet
facet normal -0.125196 0.766928 -0.629402
outer loop
vertex -0.270598 0.707107 -0.653281
vertex -0.212607 0.831470 -0.513280
vertex 0.000000 0.831470 -0.555570
endloop
endfacet
facet normal -0.125197 0.766929 -0.629401
outer loop
vertex -0.270598 0.707107 -0.653281
vertex 0.000000 0.831470 -0.555570
vertex 0.000000 0.707107 -0.707107
endloop
endfacet
facet normal -0.151976 -0.627025 -0.764031
outer loop
vertex -0.270598 -0.707107 -0.653281
vertex -0.318189 -0.555570 -0.768178
vertex 0.000000 -0.555570 -0.831470
endloop
endfacet
facet normal -0.151976 -0.627024 -0.764031
outer loop
vertex -0.270598 -0.707107 -0.653281
vertex 0.000000 -0.555570 -0.831470
vertex 0.000000 -0.707107 -0.707107
endloop
endfacet
facet normal -0.151976 0.627025 -0.764031
outer loop
vertex -0.318189 0.555570 -0.768178
vertex -0.270598 0.707107 -0.653281
vertex 0.000000 0.707107 -0.707107
endloop
endfacet
facet normal -0.151976 0.627025 -0.764031
outer loop
vertex -0.318189 0.555570 -0.768178
vertex 0.000000 0.707107 -0.707107
vertex 0.000000 0.555570 -0.831470
endloop
endfacet
facet normal -0.125197 -0.766928 -0.629402
outer loop
vertex -0.212607 -0.831470 -0.513280
vertex -0.270598 -0.707107 -0.653281
vertex 0.000000 -0.707107 -0.707107
endloop
endfacet
facet normal -0.125196 -0.766928 -0.629402
outer loop
vertex -0.212607 -0.831470 -0.513280
vertex 0.000000 -0.707107 -0.707107
vertex 0.000000 -0.831470 -0.555570
endloop
endfacet
facet normal -0.172787 0.464307 -0.868656
outer loop
vertex -0.353553 0.382683 -0.853553
vertex -0.318189 0.555570 -0.768178
vertex 0.000000 0.555570 -0.831470
endloop
endfacet
facet normal -0.172787 0.464306 -0.868657
outer loop
vertex -0.353553 0.382683 -0.853553
vertex 0.000000 0.555570 -0.831470
vertex 0.000000 0.382683 -0.923880
endloop
endfacet
facet normal -0.093357 -0.878070 -0.469338
outer loop
vertex -0.146446 -0.923880 -0.353553
vertex -0.212607 -0.831470 -0.513280
vertex 0.000000 -0.831470 -0.555570
endloop
endfacet
facet normal -0.093357 -0.878070 -0.469338
outer loop
vertex -0.146446 -0.923880 -0.353553
vertex 0.000000 -0.831470 -0.555570
vertex 0.000000 -0.923880 -0.382683
endloop
endfacet
facet normal -0.186990 0.285163 -0.940062
outer loop
vertex -0.375330 0.195090 -0.906127
vertex -0.353553 0.382683 -0.853553
vertex 0.000000 0.382683 -0.923880
endloop
endfacet
facet normal -0.186991 0.285165 -0.940062
outer loop
vertex -0.375330 0.195090 -0.906127
vertex 0.000000 0.382683 -0.923880
vertex 0.000000 0.195090 -0.980785
endloop
endfacet
facet normal -0.057645 -0.955349 -0.289802
outer loop
vertex -0.074658 -0.980785 -0.180240
vertex -0.146446 -0.923880 -0.353553
vertex 0.000000 -0.923880 -0.382683
endloop
endfacet
facet normal -0.057645 -0.955349 -0.289801
outer loop
vertex -0.074658 -0.980785 -0.180240
vertex 0.000000 -0.923880 -0.382683
vertex 0.000000 -0.980785 -0.195090
endloop
endfacet
facet normal -0.194187 0.096153 -0.976241
outer loop
vertex -0.382683 0.000000 -0.923880
vertex -0.375330 0.195090 -0.906127
vertex 0.000000 0.195090 -0.980785
endloop
endfacet
facet normal -0.194186 0.096152 -0.976241
outer loop
vertex -0.382683 0.000000 -0.923880
vertex 0.000000 0.195090 -0.980785
vertex 0.000000 0.000000 -1.000000
endloop
endfacet
endsolid Exported from Blender-2.80 (sub 75)
