solid Exported from Blender-2.80 (sub 75)
facet normal -0.960834 0.219305 0.169421
outer loop
vertex -1.500000 0.000000 0.000000
vertex -1.409539 0.000000 0.513030
vertex -1.363009 0.216942 0.496095
endloop
endfacet
facet normal -0.960834 0.219305 0.169421
outer loop
vertex -1.500000 0.000000 0.000000
vertex -1.363009 0.216942 0.496095
vertex -1.450484 0.216942 0.000000
endloop
endfacet
facet normal -0.774507 0.617648 0.136567
outer loop
vertex -1.450484 0.216942 0.000000
vertex -1.363009 0.216942 0.496095
vertex -1.232637 0.390916 0.448643
endloop
endfacet
facet normal -0.774507 0.617647 0.136566
outer loop
vertex -1.450484 0.216942 0.000000
vertex -1.232637 0.390916 0.448643
vertex -1.311745 0.390916 0.000000
endloop
endfacet
facet normal -0.432619 0.898344 0.076283
outer loop
vertex -1.311745 0.390916 0.000000
vertex -1.232637 0.390916 0.448643
vertex -1.044243 0.487464 0.380073
endloop
endfacet
facet normal -0.432620 0.898344 0.076282
outer loop
vertex -1.311745 0.390916 0.000000
vertex -1.044243 0.487464 0.380073
vertex -1.111260 0.487464 0.000000
endloop
endfacet
facet normal 0.000000 1.000000 -0.000000
outer loop
vertex -1.111260 0.487464 0.000000
vertex -1.044243 0.487464 0.380073
vertex -0.835142 0.487464 0.303967
endloop
endfacet
facet normal 0.000000 1.000000 -0.000000
outer loop
vertex -1.111260 0.487464 0.000000
vertex -0.835142 0.487464 0.303967
vertex -0.888740 0.487464 0.000000
endloop
endfacet
facet normal 0.432619 0.898344 -0.076283
outer loop
vertex -0.888740 0.487464 0.000000
vertex -0.835142 0.487464 0.303967
vertex -0.646748 0.390916 0.235397
endloop
endfacet
facet normal 0.432619 0.898344 -0.076283
outer loop
vertex -0.888740 0.487464 0.000000
vertex -0.646748 0.390916 0.235397
vertex -0.688255 0.390916 0.000000
endloop
endfacet
facet normal 0.774507 0.617648 -0.136567
outer loop
vertex -0.688255 0.390916 0.000000
vertex -0.646748 0.390916 0.235397
vertex -0.516376 0.216942 0.187945
endloop
endfacet
facet normal 0.774506 0.617649 -0.136566
outer loop
vertex -0.688255 0.390916 0.000000
vertex -0.516376 0.216942 0.187945
vertex -0.549516 0.216942 0.000000
endloop
endfacet
facet normal 0.960834 0.219304 -0.169421
outer loop
vertex -0.549516 0.216942 0.000000
vertex -0.516376 0.216942 0.187945
vertex -0.469846 0.000000 0.171010
endloop
endfacet
facet normal 0.960834 0.219304 -0.169421
outer loop
vertex -0.549516 0.216942 0.000000
vertex -0.469846 0.000000 0.171010
vertex -0.500000 0.000000 0.000000
endloop
endfacet
facet normal 0.960834 -0.219304 -0.169421
outer loop
vertex -0.500000 0.000000 0.000000
vertex -0.469846 0.000000 0.171010
vertex -0.516376 -0.216942 0.187945
endloop
endfacet
facet normal 0.960834 -0.219304 -0.169421
outer loop
vertex -0.500000 0.000000 0.000000
vertex -0.516376 -0.216942 0.187945
vertex -0.549516 -0.216942 0.000000
endloop
endfacet
facet normal 0.774506 -0.617648 -0.136566
outer loop
vertex -0.549516 -0.216942 0.000000
vertex -0.516376 -0.216942 0.187945
vertex -0.646748 -0.390916 0.235397
endloop
endfacet
facet normal 0.774507 -0.617648 -0.136567
outer loop
vertex -0.549516 -0.216942 0.000000
vertex -0.646748 -0.390916 0.235397
vertex -0.688255 -0.390916 0.000000
endloop
endfacet
facet normal 0.432619 -0.898344 -0.076283
outer loop
vertex -0.688255 -0.390916 0.000000
vertex -0.646748 -0.390916 0.235397
vertex -0.835142 -0.487464 0.303967
endloop
endfacet
facet normal 0.432619 -0.898344 -0.076283
outer loop
vertex -0.688255 -0.390916 0.000000
vertex -0.835142 -0.487464 0.303967
vertex -0.888740 -0.487464 0.000000
endloop
endfacet
facet normal 0.000000 -1.000000 0.000000
outer loop
vertex -0.888740 -0.487464 0.000000
vertex -0.835142 -0.487464 0.303967
vertex -1.044243 -0.487464 0.380073
endloop
endfacet
facet normal 0.000000 -1.000000 -0.000000
outer loop
vertex -0.888740 -0.487464 0.000000
vertex -1.044243 -0.487464 0.380073
vertex -1.111260 -0.487464 0.000000
endloop
endfacet
facet normal -0.432620 -0.898344 0.076283
outer loop
vertex -1.111260 -0.487464 0.000000
vertex -1.044243 -0.487464 0.380073
vertex -1.232637 -0.390916 0.448643
endloop
endfacet
facet normal -0.432619 -0.898344 0.076282
outer loop
vertex -1.111260 -0.487464 0.000000
vertex -1.232637 -0.390916 0.448643
vertex -1.311745 -0.390916 0.000000
endloop
endfacet
facet normal -0.774507 -0.617647 0.136566
outer loop
vertex -1.311745 -0.390916 0.000000
vertex -1.232637 -0.390916 0.448643
vertex -1.363009 -0.216942 0.496095
endloop
endfacet
facet normal -0.774507 -0.617648 0.136566
outer loop
vertex -1.311745 -0.390916 0.000000
vertex -1.363009 -0.216942 0.496095
vertex -1.450484 -0.216942 0.000000
endloop
endfacet
facet normal -0.960834 -0.219306 0.169421
outer loop
vertex -1.450484 -0.216942 0.000000
vertex -1.363009 -0.216942 0.496095
vertex -1.409539 0.000000 0.513030
endloop
endfacet
facet normal -0.960834 -0.219305 0.169421
outer loop
vertex -1.450484 -0.216942 0.000000
vertex -1.409539 0.000000 0.513030
vertex -1.500000 0.000000 0.000000
endloop
endfacet
facet normal -0.844943 0.219305 0.487828
outer loop
vertex -1.409539 0.000000 0.513030
vertex -1.149067 0.000000 0.964182
vertex -1.111135 0.216942 0.932353
endloop
endfacet
facet normal -0.844943 0.219304 0.487828
outer loop
vertex -1.409539 0.000000 0.513030
vertex -1.111135 0.216942 0.932353
vertex -1.363009 0.216942 0.496095
endloop
endfacet
facet normal -0.681090 0.617648 0.393227
outer loop
vertex -1.363009 0.216942 0.496095
vertex -1.111135 0.216942 0.932353
vertex -1.004855 0.390916 0.843174
endloop
endfacet
facet normal -0.681090 0.617647 0.393228
outer loop
vertex -1.363009 0.216942 0.496095
vertex -1.004855 0.390916 0.843174
vertex -1.232637 0.390916 0.448643
endloop
endfacet
facet normal -0.380439 0.898344 0.219647
outer loop
vertex -1.232637 0.390916 0.448643
vertex -1.004855 0.390916 0.843174
vertex -0.851275 0.487464 0.714305
endloop
endfacet
facet normal -0.380439 0.898344 0.219646
outer loop
vertex -1.232637 0.390916 0.448643
vertex -0.851275 0.487464 0.714305
vertex -1.044243 0.487464 0.380073
endloop
endfacet
facet normal 0.000000 1.000000 0.000000
outer loop
vertex -1.044243 0.487464 0.380073
vertex -0.851275 0.487464 0.714305
vertex -0.680814 0.487464 0.571271
endloop
endfacet
facet normal 0.000000 1.000000 0.000000
outer loop
vertex -1.044243 0.487464 0.380073
vertex -0.680814 0.487464 0.571271
vertex -0.835142 0.487464 0.303967
endloop
endfacet
facet normal 0.380439 0.898344 -0.219647
outer loop
vertex -0.835142 0.487464 0.303967
vertex -0.680814 0.487464 0.571271
vertex -0.527234 0.390916 0.442402
endloop
endfacet
facet normal 0.380439 0.898344 -0.219646
outer loop
vertex -0.835142 0.487464 0.303967
vertex -0.527234 0.390916 0.442402
vertex -0.646748 0.390916 0.235397
endloop
endfacet
facet normal 0.681090 0.617648 -0.393227
outer loop
vertex -0.646748 0.390916 0.235397
vertex -0.527234 0.390916 0.442402
vertex -0.420953 0.216942 0.353222
endloop
endfacet
facet normal 0.681090 0.617648 -0.393227
outer loop
vertex -0.646748 0.390916 0.235397
vertex -0.420953 0.216942 0.353222
vertex -0.516376 0.216942 0.187945
endloop
endfacet
facet normal 0.844943 0.219304 -0.487828
outer loop
vertex -0.516376 0.216942 0.187945
vertex -0.420953 0.216942 0.353222
vertex -0.383022 0.000000 0.321394
endloop
endfacet
facet normal 0.844943 0.219304 -0.487828
outer loop
vertex -0.516376 0.216942 0.187945
vertex -0.383022 0.000000 0.321394
vertex -0.469846 0.000000 0.171010
endloop
endfacet
facet normal 0.844943 -0.219304 -0.487828
outer loop
vertex -0.469846 0.000000 0.171010
vertex -0.383022 0.000000 0.321394
vertex -0.420953 -0.216942 0.353222
endloop
endfacet
facet normal 0.844943 -0.219304 -0.487828
outer loop
vertex -0.469846 0.000000 0.171010
vertex -0.420953 -0.216942 0.353222
vertex -0.516376 -0.216942 0.187945
endloop
endfacet
facet normal 0.681090 -0.617648 -0.393227
outer loop
vertex -0.516376 -0.216942 0.187945
vertex -0.420953 -0.216942 0.353222
vertex -0.527234 -0.390916 0.442402
endloop
endfacet
facet normal 0.681090 -0.617648 -0.393227
outer loop
vertex -0.516376 -0.216942 0.187945
vertex -0.527234 -0.390916 0.442402
vertex -0.646748 -0.390916 0.235397
endloop
endfacet
facet normal 0.380440 -0.898344 -0.219647
outer loop
vertex -0.646748 -0.390916 0.235397
vertex -0.527234 -0.390916 0.442402
vertex -0.680814 -0.487464 0.571271
endloop
endfacet
facet normal 0.380439 -0.898344 -0.219646
outer loop
vertex -0.646748 -0.390916 0.235397
vertex -0.680814 -0.487464 0.571271
vertex -0.835142 -0.487464 0.303967
endloop
endfacet
facet normal 0.000000 -1.000000 0.000000
outer loop
vertex -0.835142 -0.487464 0.303967
vertex -0.680814 -0.487464 0.571271
vertex -0.851275 -0.487464 0.714305
endloop
endfacet
facet normal 0.000000 -1.000000 0.000000
outer loop
vertex -0.835142 -0.487464 0.303967
vertex -0.851275 -0.487464 0.714305
vertex -1.044243 -0.487464 0.380073
endloop
endfacet
facet normal -0.380439 -0.898344 0.219647
outer loop
vertex -1.044243 -0.487464 0.380073
vertex -0.851275 -0.487464 0.714305
vertex -1.004855 -0.390916 0.843174
endloop
endfacet
facet normal -0.380439 -0.898344 0.219647
outer loop
vertex -1.044243 -0.487464 0.380073
vertex -1.004855 -0.390916 0.843174
vertex -1.232637 -0.390916 0.448643
endloop
endfacet
facet normal -0.681090 -0.617648 0.393227
outer loop
vertex -1.232637 -0.390916 0.448643
vertex -1.004855 -0.390916 0.843174
vertex -1.111135 -0.216942 0.932353
endloop
endfacet
facet normal -0.681090 -0.617647 0.393227
outer loop
vertex -1.232637 -0.390916 0.448643
vertex -1.111135 -0.216942 0.932353
vertex -1.363009 -0.216942 0.496095
endloop
endfacet
facet normal -0.844943 -0.219304 0.487828
outer loop
vertex -1.363009 -0.216942 0.496095
vertex -1.111135 -0.216942 0.932353
vertex -1.149067 0.000000 0.964182
endloop
endfacet
facet normal -0.844943 -0.219305 0.487828
outer loop
vertex -1.363009 -0.216942 0.496095
vertex -1.149067 0.000000 0.964182
vertex -1.409539 0.000000 0.513030
endloop
endfacet
facet normal -0.627140 0.219304 0.747396
outer loop
vertex -1.149067 0.000000 0.964182
vertex -0.750000 0.000000 1.299038
vertex -0.725242 0.216942 1.256156
endloop
endfacet
facet normal -0.627140 0.219304 0.747396
outer loop
vertex -1.149067 0.000000 0.964182
vertex -0.725242 0.216942 1.256156
vertex -1.111135 0.216942 0.932353
endloop
endfacet
facet normal -0.505523 0.617648 0.602459
outer loop
vertex -1.111135 0.216942 0.932353
vertex -0.725242 0.216942 1.256156
vertex -0.655872 0.390916 1.136004
endloop
endfacet
facet normal -0.505523 0.617648 0.602459
outer loop
vertex -1.111135 0.216942 0.932353
vertex -0.655872 0.390916 1.136004
vertex -1.004855 0.390916 0.843174
endloop
endfacet
facet normal -0.282372 0.898344 0.336518
outer loop
vertex -1.004855 0.390916 0.843174
vertex -0.655872 0.390916 1.136004
vertex -0.555630 0.487464 0.962380
endloop
endfacet
facet normal -0.282372 0.898344 0.336518
outer loop
vertex -1.004855 0.390916 0.843174
vertex -0.555630 0.487464 0.962380
vertex -0.851275 0.487464 0.714305
endloop
endfacet
facet normal 0.000000 1.000000 0.000000
outer loop
vertex -0.851275 0.487464 0.714305
vertex -0.555630 0.487464 0.962380
vertex -0.444370 0.487464 0.769671
endloop
endfacet
facet normal 0.000000 1.000000 -0.000000
outer loop
vertex -0.851275 0.487464 0.714305
vertex -0.444370 0.487464 0.769671
vertex -0.680814 0.487464 0.571271
endloop
endfacet
facet normal 0.282372 0.898344 -0.336518
outer loop
vertex -0.680814 0.487464 0.571271
vertex -0.444370 0.487464 0.769671
vertex -0.344128 0.390916 0.596046
endloop
endfacet
facet normal 0.282372 0.898344 -0.336518
outer loop
vertex -0.680814 0.487464 0.571271
vertex -0.344128 0.390916 0.596046
vertex -0.527234 0.390916 0.442402
endloop
endfacet
facet normal 0.505523 0.617648 -0.602459
outer loop
vertex -0.527234 0.390916 0.442402
vertex -0.344128 0.390916 0.596046
vertex -0.274758 0.216942 0.475894
endloop
endfacet
facet normal 0.505523 0.617648 -0.602459
outer loop
vertex -0.527234 0.390916 0.442402
vertex -0.274758 0.216942 0.475894
vertex -0.420953 0.216942 0.353222
endloop
endfacet
facet normal 0.627140 0.219304 -0.747396
outer loop
vertex -0.420953 0.216942 0.353222
vertex -0.274758 0.216942 0.475894
vertex -0.250000 0.000000 0.433013
endloop
endfacet
facet normal 0.627140 0.219304 -0.747396
outer loop
vertex -0.420953 0.216942 0.353222
vertex -0.250000 0.000000 0.433013
vertex -0.383022 0.000000 0.321394
endloop
endfacet
facet normal 0.627140 -0.219304 -0.747396
outer loop
vertex -0.383022 0.000000 0.321394
vertex -0.250000 0.000000 0.433013
vertex -0.274758 -0.216942 0.475894
endloop
endfacet
facet normal 0.627140 -0.219304 -0.747396
outer loop
vertex -0.383022 0.000000 0.321394
vertex -0.274758 -0.216942 0.475894
vertex -0.420953 -0.216942 0.353222
endloop
endfacet
facet normal 0.505524 -0.617648 -0.602459
outer loop
vertex -0.420953 -0.216942 0.353222
vertex -0.274758 -0.216942 0.475894
vertex -0.344128 -0.390916 0.596046
endloop
endfacet
facet normal 0.505523 -0.617648 -0.602459
outer loop
vertex -0.420953 -0.216942 0.353222
vertex -0.344128 -0.390916 0.596046
vertex -0.527234 -0.390916 0.442402
endloop
endfacet
facet normal 0.282372 -0.898344 -0.336518
outer loop
vertex -0.527234 -0.390916 0.442402
vertex -0.344128 -0.390916 0.596046
vertex -0.444370 -0.487464 0.769671
endloop
endfacet
facet normal 0.282372 -0.898344 -0.336518
outer loop
vertex -0.527234 -0.390916 0.442402
vertex -0.444370 -0.487464 0.769671
vertex -0.680814 -0.487464 0.571271
endloop
endfacet
facet normal 0.000000 -1.000000 -0.000000
outer loop
vertex -0.680814 -0.487464 0.571271
vertex -0.444370 -0.487464 0.769671
vertex -0.555630 -0.487464 0.962380
endloop
endfacet
facet normal 0.000000 -1.000000 0.000000
outer loop
vertex -0.680814 -0.487464 0.571271
vertex -0.555630 -0.487464 0.962380
vertex -0.851275 -0.487464 0.714305
endloop
endfacet
facet normal -0.282372 -0.898344 0.336518
outer loop
vertex -0.851275 -0.487464 0.714305
vertex -0.555630 -0.487464 0.962380
vertex -0.655872 -0.390916 1.136004
endloop
endfacet
facet normal -0.282372 -0.898344 0.336518
outer loop
vertex -0.851275 -0.487464 0.714305
vertex -0.655872 -0.390916 1.136004
vertex -1.004855 -0.390916 0.843174
endloop
endfacet
facet normal -0.505523 -0.617648 0.602459
outer loop
vertex -1.004855 -0.390916 0.843174
vertex -0.655872 -0.390916 1.136004
vertex -0.725242 -0.216942 1.256156
endloop
endfacet
facet normal -0.505523 -0.617648 0.602459
outer loop
vertex -1.004855 -0.390916 0.843174
vertex -0.725242 -0.216942 1.256156
vertex -1.111135 -0.216942 0.932353
endloop
endfacet
facet normal -0.627140 -0.219304 0.747396
outer loop
vertex -1.111135 -0.216942 0.932353
vertex -0.725242 -0.216942 1.256156
vertex -0.750000 0.000000 1.299038
endloop
endfacet
facet normal -0.627140 -0.219305 0.747396
outer loop
vertex -1.111135 -0.216942 0.932353
vertex -0.750000 0.000000 1.299038
vertex -1.149067 0.000000 0.964182
endloop
endfacet
facet normal -0.333694 0.219304 0.916817
outer loop
vertex -0.750000 0.000000 1.299038
vertex -0.260472 0.000000 1.477212
vertex -0.251874 0.216942 1.428448
endloop
endfacet
facet normal -0.333694 0.219304 0.916817
outer loop
vertex -0.750000 0.000000 1.299038
vertex -0.251874 0.216942 1.428448
vertex -0.725242 0.216942 1.256156
endloop
endfacet
facet normal -0.268983 0.617648 0.739026
outer loop
vertex -0.725242 0.216942 1.256156
vertex -0.251874 0.216942 1.428448
vertex -0.227782 0.390916 1.291817
endloop
endfacet
facet normal -0.268984 0.617648 0.739025
outer loop
vertex -0.725242 0.216942 1.256156
vertex -0.227782 0.390916 1.291817
vertex -0.655872 0.390916 1.136004
endloop
endfacet
facet normal -0.150247 0.898344 0.412801
outer loop
vertex -0.655872 0.390916 1.136004
vertex -0.227782 0.390916 1.291817
vertex -0.192968 0.487464 1.094378
endloop
endfacet
facet normal -0.150247 0.898344 0.412801
outer loop
vertex -0.655872 0.390916 1.136004
vertex -0.192968 0.487464 1.094378
vertex -0.555630 0.487464 0.962380
endloop
endfacet
facet normal 0.000000 1.000000 -0.000000
outer loop
vertex -0.555630 0.487464 0.962380
vertex -0.192968 0.487464 1.094378
vertex -0.154328 0.487464 0.875238
endloop
endfacet
facet normal 0.000000 1.000000 0.000000
outer loop
vertex -0.555630 0.487464 0.962380
vertex -0.154328 0.487464 0.875238
vertex -0.444370 0.487464 0.769671
endloop
endfacet
facet normal 0.150247 0.898344 -0.412801
outer loop
vertex -0.444370 0.487464 0.769671
vertex -0.154328 0.487464 0.875238
vertex -0.119514 0.390916 0.677799
endloop
endfacet
facet normal 0.150247 0.898344 -0.412800
outer loop
vertex -0.444370 0.487464 0.769671
vertex -0.119514 0.390916 0.677799
vertex -0.344128 0.390916 0.596046
endloop
endfacet
facet normal 0.268983 0.617648 -0.739026
outer loop
vertex -0.344128 0.390916 0.596046
vertex -0.119514 0.390916 0.677799
vertex -0.095422 0.216942 0.541167
endloop
endfacet
facet normal 0.268982 0.617648 -0.739026
outer loop
vertex -0.344128 0.390916 0.596046
vertex -0.095422 0.216942 0.541167
vertex -0.274758 0.216942 0.475894
endloop
endfacet
facet normal 0.333694 0.219304 -0.916817
outer loop
vertex -0.274758 0.216942 0.475894
vertex -0.095422 0.216942 0.541167
vertex -0.086824 0.000000 0.492404
endloop
endfacet
facet normal 0.333694 0.219304 -0.916817
outer loop
vertex -0.274758 0.216942 0.475894
vertex -0.086824 0.000000 0.492404
vertex -0.250000 0.000000 0.433013
endloop
endfacet
facet normal 0.333694 -0.219304 -0.916817
outer loop
vertex -0.250000 0.000000 0.433013
vertex -0.086824 0.000000 0.492404
vertex -0.095422 -0.216942 0.541167
endloop
endfacet
facet normal 0.333694 -0.219304 -0.916817
outer loop
vertex -0.250000 0.000000 0.433013
vertex -0.095422 -0.216942 0.541167
vertex -0.274758 -0.216942 0.475894
endloop
endfacet
facet normal 0.268983 -0.617648 -0.739025
outer loop
vertex -0.274758 -0.216942 0.475894
vertex -0.095422 -0.216942 0.541167
vertex -0.119514 -0.390916 0.677799
endloop
endfacet
facet normal 0.268983 -0.617648 -0.739026
outer loop
vertex -0.274758 -0.216942 0.475894
vertex -0.119514 -0.390916 0.677799
vertex -0.344128 -0.390916 0.596046
endloop
endfacet
facet normal 0.150247 -0.898344 -0.412801
outer loop
vertex -0.344128 -0.390916 0.596046
vertex -0.119514 -0.390916 0.677799
vertex -0.154328 -0.487464 0.875238
endloop
endfacet
facet normal 0.150247 -0.898344 -0.412800
outer loop
vertex -0.344128 -0.390916 0.596046
vertex -0.154328 -0.487464 0.875238
vertex -0.444370 -0.487464 0.769671
endloop
endfacet
facet normal 0.000000 -1.000000 -0.000000
outer loop
vertex -0.444370 -0.487464 0.769671
vertex -0.154328 -0.487464 0.875238
vertex -0.192968 -0.487464 1.094378
endloop
endfacet
facet normal 0.000000 -1.000000 0.000000
outer loop
vertex -0.444370 -0.487464 0.769671
vertex -0.192968 -0.487464 1.094378
vertex -0.555630 -0.487464 0.962380
endloop
endfacet
facet normal -0.150247 -0.898344 0.412801
outer loop
vertex -0.555630 -0.487464 0.962380
vertex -0.192968 -0.487464 1.094378
vertex -0.227782 -0.390916 1.291817
endloop
endfacet
facet normal -0.150247 -0.898344 0.412800
outer loop
vertex -0.555630 -0.487464 0.962380
vertex -0.227782 -0.390916 1.291817
vertex -0.655872 -0.390916 1.136004
endloop
endfacet
facet normal -0.268984 -0.617648 0.739026
outer loop
vertex -0.655872 -0.390916 1.136004
vertex -0.227782 -0.390916 1.291817
vertex -0.251874 -0.216942 1.428448
endloop
endfacet
facet normal -0.268983 -0.617648 0.739026
outer loop
vertex -0.655872 -0.390916 1.136004
vertex -0.251874 -0.216942 1.428448
vertex -0.725242 -0.216942 1.256156
endloop
endfacet
facet normal -0.333694 -0.219304 0.916817
outer loop
vertex -0.725242 -0.216942 1.256156
vertex -0.251874 -0.216942 1.428448
vertex -0.260472 0.000000 1.477212
endloop
endfacet
facet normal -0.333694 -0.219304 0.916817
outer loop
vertex -0.725242 -0.216942 1.256156
vertex -0.260472 0.000000 1.477212
vertex -0.750000 0.000000 1.299038
endloop
endfacet
facet normal -0.000001 0.219304 0.975656
outer loop
vertex -0.260472 0.000000 1.477212
vertex 0.260472 0.000000 1.477212
vertex 0.251874 0.216942 1.428448
endloop
endfacet
facet normal -0.000001 0.219305 0.975657
outer loop
vertex -0.260472 0.000000 1.477212
vertex 0.251874 0.216942 1.428448
vertex -0.251874 0.216942 1.428448
endloop
endfacet
facet normal 0.000000 0.617648 0.786455
outer loop
vertex -0.251874 0.216942 1.428448
vertex 0.251874 0.216942 1.428448
vertex 0.227782 0.390916 1.291817
endloop
endfacet
facet normal 0.000000 0.617648 0.786455
outer loop
vertex -0.251874 0.216942 1.428448
vertex 0.227782 0.390916 1.291817
vertex -0.227782 0.390916 1.291817
endloop
endfacet
facet normal 0.000000 0.898344 0.439293
outer loop
vertex -0.227782 0.390916 1.291817
vertex 0.227782 0.390916 1.291817
vertex 0.192968 0.487464 1.094378
endloop
endfacet
facet normal 0.000000 0.898344 0.439293
outer loop
vertex -0.227782 0.390916 1.291817
vertex 0.192968 0.487464 1.094378
vertex -0.192968 0.487464 1.094378
endloop
endfacet
facet normal 0.000000 1.000000 0.000000
outer loop
vertex -0.192968 0.487464 1.094378
vertex 0.192968 0.487464 1.094378
vertex 0.154328 0.487464 0.875238
endloop
endfacet
facet normal 0.000000 1.000000 0.000000
outer loop
vertex -0.192968 0.487464 1.094378
vertex 0.154328 0.487464 0.875238
vertex -0.154328 0.487464 0.875238
endloop
endfacet
facet normal 0.000000 0.898344 -0.439293
outer loop
vertex -0.154328 0.487464 0.875238
vertex 0.154328 0.487464 0.875238
vertex 0.119514 0.390916 0.677799
endloop
endfacet
facet normal 0.000000 0.898344 -0.439294
outer loop
vertex -0.154328 0.487464 0.875238
vertex 0.119514 0.390916 0.677799
vertex -0.119514 0.390916 0.677799
endloop
endfacet
facet normal 0.000000 0.617648 -0.786455
outer loop
vertex -0.119514 0.390916 0.677799
vertex 0.119514 0.390916 0.677799
vertex 0.095422 0.216942 0.541167
endloop
endfacet
facet normal 0.000000 0.617648 -0.786454
outer loop
vertex -0.119514 0.390916 0.677799
vertex 0.095422 0.216942 0.541167
vertex -0.095422 0.216942 0.541167
endloop
endfacet
facet normal 0.000001 0.219304 -0.975657
outer loop
vertex -0.095422 0.216942 0.541167
vertex 0.095422 0.216942 0.541167
vertex 0.086824 0.000000 0.492404
endloop
endfacet
facet normal 0.000000 0.219304 -0.975657
outer loop
vertex -0.095422 0.216942 0.541167
vertex 0.086824 0.000000 0.492404
vertex -0.086824 0.000000 0.492404
endloop
endfacet
facet normal 0.000001 -0.219304 -0.975657
outer loop
vertex -0.086824 0.000000 0.492404
vertex 0.086824 0.000000 0.492404
vertex 0.095422 -0.216942 0.541167
endloop
endfacet
facet normal 0.000000 -0.219304 -0.975657
outer loop
vertex -0.086824 0.000000 0.492404
vertex 0.095422 -0.216942 0.541167
vertex -0.095422 -0.216942 0.541167
endloop
endfacet
facet normal 0.000000 -0.617648 -0.786454
outer loop
vertex -0.095422 -0.216942 0.541167
vertex 0.095422 -0.216942 0.541167
vertex 0.119514 -0.390916 0.677799
endloop
endfacet
facet normal 0.000000 -0.617648 -0.786454
outer loop
vertex -0.095422 -0.216942 0.541167
vertex 0.119514 -0.390916 0.677799
vertex -0.119514 -0.390916 0.677799
endloop
endfacet
facet normal 0.000000 -0.898344 -0.439293
outer loop
vertex -0.119514 -0.390916 0.677799
vertex 0.119514 -0.390916 0.677799
vertex 0.154328 -0.487464 0.875238
endloop
endfacet
facet normal 0.000000 -0.898344 -0.439293
outer loop
vertex -0.119514 -0.390916 0.677799
vertex 0.154328 -0.487464 0.875238
vertex -0.154328 -0.487464 0.875238
endloop
endfacet
facet normal 0.000000 -1.000000 -0.000000
outer loop
vertex -0.154328 -0.487464 0.875238
vertex 0.154328 -0.487464 0.875238
vertex 0.192968 -0.487464 1.094378
endloop
endfacet
facet normal 0.000000 -1.000000 0.000000
outer loop
vertex -0.154328 -0.487464 0.875238
vertex 0.192968 -0.487464 1.094378
vertex -0.192968 -0.487464 1.094378
endloop
endfacet
facet normal 0.000000 -0.898344 0.439293
outer loop
vertex -0.192968 -0.487464 1.094378
vertex 0.192968 -0.487464 1.094378
vertex 0.227782 -0.390916 1.291817
endloop
endfacet
facet normal 0.000000 -0.898344 0.439293
outer loop
vertex -0.192968 -0.487464 1.094378
vertex 0.227782 -0.390916 1.291817
vertex -0.227782 -0.390916 1.291817
endloop
endfacet
facet normal 0.000000 -0.617648 0.786455
outer loop
vertex -0.227782 -0.390916 1.291817
vertex 0.227782 -0.390916 1.291817
vertex 0.251874 -0.216942 1.428448
endloop
endfacet
facet normal 0.000000 -0.617648 0.786455
outer loop
vertex -0.227782 -0.390916 1.291817
vertex 0.251874 -0.216942 1.428448
vertex -0.251874 -0.216942 1.428448
endloop
endfacet
facet normal -0.000001 -0.219304 0.975657
outer loop
vertex -0.251874 -0.216942 1.428448
vertex 0.251874 -0.216942 1.428448
vertex 0.260472 0.000000 1.477212
endloop
endfacet
facet normal -0.000001 -0.219305 0.975656
outer loop
vertex -0.251874 -0.216942 1.428448
vertex 0.260472 0.000000 1.477212
vertex -0.260472 0.000000 1.477212
endloop
endfacet
facet normal 0.333694 0.219304 0.916817
outer loop
vertex 0.260472 0.000000 1.477212
vertex 0.750000 0.000000 1.299038
vertex 0.725242 0.216942 1.256156
endloop
endfacet
facet normal 0.333694 0.219304 0.916817
outer loop
vertex 0.260472 0.000000 1.477212
vertex 0.725242 0.216942 1.256156
vertex 0.251874 0.216942 1.428448
endloop
endfacet
facet normal 0.268983 0.617648 0.739026
outer loop
vertex 0.251874 0.216942 1.428448
vertex 0.725242 0.216942 1.256156
vertex 0.655872 0.390916 1.136005
endloop
endfacet
facet normal 0.268983 0.617648 0.739026
outer loop
vertex 0.251874 0.216942 1.428448
vertex 0.655872 0.390916 1.136005
vertex 0.227782 0.390916 1.291817
endloop
endfacet
facet normal 0.150247 0.898344 0.412801
outer loop
vertex 0.227782 0.390916 1.291817
vertex 0.655872 0.390916 1.136005
vertex 0.555630 0.487464 0.962380
endloop
endfacet
facet normal 0.150247 0.898344 0.412800
outer loop
vertex 0.227782 0.390916 1.291817
vertex 0.555630 0.487464 0.962380
vertex 0.192968 0.487464 1.094378
endloop
endfacet
facet normal 0.000000 1.000000 0.000000
outer loop
vertex 0.192968 0.487464 1.094378
vertex 0.555630 0.487464 0.962380
vertex 0.444370 0.487464 0.769671
endloop
endfacet
facet normal 0.000000 1.000000 0.000000
outer loop
vertex 0.192968 0.487464 1.094378
vertex 0.444370 0.487464 0.769671
vertex 0.154328 0.487464 0.875238
endloop
endfacet
facet normal -0.150247 0.898344 -0.412801
outer loop
vertex 0.154328 0.487464 0.875238
vertex 0.444370 0.487464 0.769671
vertex 0.344127 0.390916 0.596046
endloop
endfacet
facet normal -0.150247 0.898344 -0.412801
outer loop
vertex 0.154328 0.487464 0.875238
vertex 0.344127 0.390916 0.596046
vertex 0.119514 0.390916 0.677799
endloop
endfacet
facet normal -0.268983 0.617648 -0.739026
outer loop
vertex 0.119514 0.390916 0.677799
vertex 0.344127 0.390916 0.596046
vertex 0.274758 0.216942 0.475894
endloop
endfacet
facet normal -0.268983 0.617648 -0.739026
outer loop
vertex 0.119514 0.390916 0.677799
vertex 0.274758 0.216942 0.475894
vertex 0.095422 0.216942 0.541167
endloop
endfacet
facet normal -0.333694 0.219304 -0.916817
outer loop
vertex 0.095422 0.216942 0.541167
vertex 0.274758 0.216942 0.475894
vertex 0.250000 0.000000 0.433013
endloop
endfacet
facet normal -0.333694 0.219304 -0.916817
outer loop
vertex 0.095422 0.216942 0.541167
vertex 0.250000 0.000000 0.433013
vertex 0.086824 0.000000 0.492404
endloop
endfacet
facet normal -0.333694 -0.219304 -0.916817
outer loop
vertex 0.086824 0.000000 0.492404
vertex 0.250000 0.000000 0.433013
vertex 0.274758 -0.216942 0.475894
endloop
endfacet
facet normal -0.333694 -0.219304 -0.916817
outer loop
vertex 0.086824 0.000000 0.492404
vertex 0.274758 -0.216942 0.475894
vertex 0.095422 -0.216942 0.541167
endloop
endfacet
facet normal -0.268983 -0.617648 -0.739025
outer loop
vertex 0.095422 -0.216942 0.541167
vertex 0.274758 -0.216942 0.475894
vertex 0.344127 -0.390916 0.596046
endloop
endfacet
facet normal -0.268983 -0.617648 -0.739026
outer loop
vertex 0.095422 -0.216942 0.541167
vertex 0.344127 -0.390916 0.596046
vertex 0.119514 -0.390916 0.677799
endloop
endfacet
facet normal -0.150247 -0.898344 -0.412801
outer loop
vertex 0.119514 -0.390916 0.677799
vertex 0.344127 -0.390916 0.596046
vertex 0.444370 -0.487464 0.769671
endloop
endfacet
facet normal -0.150247 -0.898344 -0.412801
outer loop
vertex 0.119514 -0.390916 0.677799
vertex 0.444370 -0.487464 0.769671
vertex 0.154328 -0.487464 0.875238
endloop
endfacet
facet normal 0.000000 -1.000000 0.000000
outer loop
vertex 0.154328 -0.487464 0.875238
vertex 0.444370 -0.487464 0.769671
vertex 0.555630 -0.487464 0.962380
endloop
endfacet
facet normal 0.000000 -1.000000 0.000000
outer loop
vertex 0.154328 -0.487464 0.875238
vertex 0.555630 -0.487464 0.962380
vertex 0.192968 -0.487464 1.094378
endloop
endfacet
facet normal 0.150247 -0.898344 0.412801
outer loop
vertex 0.192968 -0.487464 1.094378
vertex 0.555630 -0.487464 0.962380
vertex 0.655872 -0.390916 1.136005
endloop
endfacet
facet normal 0.150247 -0.898344 0.412801
outer loop
vertex 0.192968 -0.487464 1.094378
vertex 0.655872 -0.390916 1.136005
vertex 0.227782 -0.390916 1.291817
endloop
endfacet
facet normal 0.268984 -0.617648 0.739026
outer loop
vertex 0.227782 -0.390916 1.291817
vertex 0.655872 -0.390916 1.136005
vertex 0.725242 -0.216942 1.256156
endloop
endfacet
facet normal 0.268983 -0.617648 0.739026
outer loop
vertex 0.227782 -0.390916 1.291817
vertex 0.725242 -0.216942 1.256156
vertex 0.251874 -0.216942 1.428448
endloop
endfacet
facet normal 0.333694 -0.219305 0.916817
outer loop
vertex 0.251874 -0.216942 1.428448
vertex 0.725242 -0.216942 1.256156
vertex 0.750000 0.000000 1.299038
endloop
endfacet
facet normal 0.333694 -0.219304 0.916817
outer loop
vertex 0.251874 -0.216942 1.428448
vertex 0.750000 0.000000 1.299038
vertex 0.260472 0.000000 1.477212
endloop
endfacet
facet normal 0.627140 0.219305 0.747396
outer loop
vertex 0.750000 0.000000 1.299038
vertex 1.149066 0.000000 0.964182
vertex 1.111135 0.216942 0.932354
endloop
endfacet
facet normal 0.627140 0.219305 0.747396
outer loop
vertex 0.750000 0.000000 1.299038
vertex 1.111135 0.216942 0.932354
vertex 0.725242 0.216942 1.256156
endloop
endfacet
facet normal 0.505523 0.617648 0.602459
outer loop
vertex 0.725242 0.216942 1.256156
vertex 1.111135 0.216942 0.932354
vertex 1.004855 0.390916 0.843174
endloop
endfacet
facet normal 0.505523 0.617648 0.602460
outer loop
vertex 0.725242 0.216942 1.256156
vertex 1.004855 0.390916 0.843174
vertex 0.655872 0.390916 1.136005
endloop
endfacet
facet normal 0.282372 0.898344 0.336518
outer loop
vertex 0.655872 0.390916 1.136005
vertex 1.004855 0.390916 0.843174
vertex 0.851275 0.487464 0.714305
endloop
endfacet
facet normal 0.282372 0.898344 0.336518
outer loop
vertex 0.655872 0.390916 1.136005
vertex 0.851275 0.487464 0.714305
vertex 0.555630 0.487464 0.962380
endloop
endfacet
facet normal 0.000000 1.000000 0.000000
outer loop
vertex 0.555630 0.487464 0.962380
vertex 0.851275 0.487464 0.714305
vertex 0.680814 0.487464 0.571271
endloop
endfacet
facet normal 0.000000 1.000000 0.000000
outer loop
vertex 0.555630 0.487464 0.962380
vertex 0.680814 0.487464 0.571271
vertex 0.444370 0.487464 0.769671
endloop
endfacet
facet normal -0.282372 0.898344 -0.336518
outer loop
vertex 0.444370 0.487464 0.769671
vertex 0.680814 0.487464 0.571271
vertex 0.527234 0.390916 0.442402
endloop
endfacet
facet normal -0.282372 0.898344 -0.336518
outer loop
vertex 0.444370 0.487464 0.769671
vertex 0.527234 0.390916 0.442402
vertex 0.344127 0.390916 0.596046
endloop
endfacet
facet normal -0.505523 0.617648 -0.602459
outer loop
vertex 0.344127 0.390916 0.596046
vertex 0.527234 0.390916 0.442402
vertex 0.420953 0.216942 0.353222
endloop
endfacet
facet normal -0.505523 0.617648 -0.602459
outer loop
vertex 0.344127 0.390916 0.596046
vertex 0.420953 0.216942 0.353222
vertex 0.274758 0.216942 0.475894
endloop
endfacet
facet normal -0.627140 0.219304 -0.747396
outer loop
vertex 0.274758 0.216942 0.475894
vertex 0.420953 0.216942 0.353222
vertex 0.383022 0.000000 0.321394
endloop
endfacet
facet normal -0.627140 0.219304 -0.747396
outer loop
vertex 0.274758 0.216942 0.475894
vertex 0.383022 0.000000 0.321394
vertex 0.250000 0.000000 0.433013
endloop
endfacet
facet normal -0.627140 -0.219304 -0.747397
outer loop
vertex 0.250000 0.000000 0.433013
vertex 0.383022 0.000000 0.321394
vertex 0.420953 -0.216942 0.353222
endloop
endfacet
facet normal -0.627140 -0.219304 -0.747396
outer loop
vertex 0.250000 0.000000 0.433013
vertex 0.420953 -0.216942 0.353222
vertex 0.274758 -0.216942 0.475894
endloop
endfacet
facet normal -0.505523 -0.617648 -0.602459
outer loop
vertex 0.274758 -0.216942 0.475894
vertex 0.420953 -0.216942 0.353222
vertex 0.527234 -0.390916 0.442402
endloop
endfacet
facet normal -0.505523 -0.617648 -0.602459
outer loop
vertex 0.274758 -0.216942 0.475894
vertex 0.527234 -0.390916 0.442402
vertex 0.344127 -0.390916 0.596046
endloop
endfacet
facet normal -0.282372 -0.898344 -0.336518
outer loop
vertex 0.344127 -0.390916 0.596046
vertex 0.527234 -0.390916 0.442402
vertex 0.680814 -0.487464 0.571271
endloop
endfacet
facet normal -0.282372 -0.898344 -0.336518
outer loop
vertex 0.344127 -0.390916 0.596046
vertex 0.680814 -0.487464 0.571271
vertex 0.444370 -0.487464 0.769671
endloop
endfacet
facet normal 0.000000 -1.000000 0.000000
outer loop
vertex 0.444370 -0.487464 0.769671
vertex 0.680814 -0.487464 0.571271
vertex 0.851275 -0.487464 0.714305
endloop
endfacet
facet normal 0.000000 -1.000000 0.000000
outer loop
vertex 0.444370 -0.487464 0.769671
vertex 0.851275 -0.487464 0.714305
vertex 0.555630 -0.487464 0.962380
endloop
endfacet
facet normal 0.282372 -0.898344 0.336518
outer loop
vertex 0.555630 -0.487464 0.962380
vertex 0.851275 -0.487464 0.714305
vertex 1.004855 -0.390916 0.843174
endloop
endfacet
facet normal 0.282372 -0.898344 0.336518
outer loop
vertex 0.555630 -0.487464 0.962380
vertex 1.004855 -0.390916 0.843174
vertex 0.655872 -0.390916 1.136005
endloop
endfacet
facet normal 0.505523 -0.617648 0.602459
outer loop
vertex 0.655872 -0.390916 1.136005
vertex 1.004855 -0.390916 0.843174
vertex 1.111135 -0.216942 0.932354
endloop
endfacet
facet normal 0.505523 -0.617648 0.602460
outer loop
vertex 0.655872 -0.390916 1.136005
vertex 1.111135 -0.216942 0.932354
vertex 0.725242 -0.216942 1.256156
endloop
endfacet
facet normal 0.627140 -0.219305 0.747396
outer loop
vertex 0.725242 -0.216942 1.256156
vertex 1.111135 -0.216942 0.932354
vertex 1.149066 0.000000 0.964182
endloop
endfacet
facet normal 0.627140 -0.219304 0.747396
outer loop
vertex 0.725242 -0.216942 1.256156
vertex 1.149066 0.000000 0.964182
vertex 0.750000 0.000000 1.299038
endloop
endfacet
facet normal 0.844943 0.219304 0.487828
outer loop
vertex 1.149066 0.000000 0.964182
vertex 1.409539 0.000000 0.513031
vertex 1.363009 0.216942 0.496095
endloop
endfacet
facet normal 0.844943 0.219305 0.487828
outer loop
vertex 1.149066 0.000000 0.964182
vertex 1.363009 0.216942 0.496095
vertex 1.111135 0.216942 0.932354
endloop
endfacet
facet normal 0.681089 0.617648 0.393227
outer loop
vertex 1.111135 0.216942 0.932354
vertex 1.363009 0.216942 0.496095
vertex 1.232637 0.390916 0.448644
endloop
endfacet
facet normal 0.681090 0.617647 0.393228
outer loop
vertex 1.111135 0.216942 0.932354
vertex 1.232637 0.390916 0.448644
vertex 1.004855 0.390916 0.843174
endloop
endfacet
facet normal 0.380439 0.898344 0.219646
outer loop
vertex 1.004855 0.390916 0.843174
vertex 1.232637 0.390916 0.448644
vertex 1.044243 0.487464 0.380074
endloop
endfacet
facet normal 0.380439 0.898344 0.219647
outer loop
vertex 1.004855 0.390916 0.843174
vertex 1.044243 0.487464 0.380074
vertex 0.851275 0.487464 0.714305
endloop
endfacet
facet normal 0.000000 1.000000 0.000000
outer loop
vertex 0.851275 0.487464 0.714305
vertex 1.044243 0.487464 0.380074
vertex 0.835142 0.487464 0.303967
endloop
endfacet
facet normal 0.000000 1.000000 0.000000
outer loop
vertex 0.851275 0.487464 0.714305
vertex 0.835142 0.487464 0.303967
vertex 0.680814 0.487464 0.571271
endloop
endfacet
facet normal -0.380439 0.898344 -0.219647
outer loop
vertex 0.680814 0.487464 0.571271
vertex 0.835142 0.487464 0.303967
vertex 0.646748 0.390916 0.235397
endloop
endfacet
facet normal -0.380439 0.898344 -0.219647
outer loop
vertex 0.680814 0.487464 0.571271
vertex 0.646748 0.390916 0.235397
vertex 0.527234 0.390916 0.442402
endloop
endfacet
facet normal -0.681089 0.617648 -0.393227
outer loop
vertex 0.527234 0.390916 0.442402
vertex 0.646748 0.390916 0.235397
vertex 0.516376 0.216942 0.187946
endloop
endfacet
facet normal -0.681090 0.617648 -0.393228
outer loop
vertex 0.527234 0.390916 0.442402
vertex 0.516376 0.216942 0.187946
vertex 0.420953 0.216942 0.353222
endloop
endfacet
facet normal -0.844943 0.219304 -0.487829
outer loop
vertex 0.420953 0.216942 0.353222
vertex 0.516376 0.216942 0.187946
vertex 0.469846 0.000000 0.171010
endloop
endfacet
facet normal -0.844943 0.219304 -0.487829
outer loop
vertex 0.420953 0.216942 0.353222
vertex 0.469846 0.000000 0.171010
vertex 0.383022 0.000000 0.321394
endloop
endfacet
facet normal -0.844943 -0.219304 -0.487829
outer loop
vertex 0.383022 0.000000 0.321394
vertex 0.469846 0.000000 0.171010
vertex 0.516376 -0.216942 0.187946
endloop
endfacet
facet normal -0.844943 -0.219304 -0.487829
outer loop
vertex 0.383022 0.000000 0.321394
vertex 0.516376 -0.216942 0.187946
vertex 0.420953 -0.216942 0.353222
endloop
endfacet
facet normal -0.681089 -0.617648 -0.393227
outer loop
vertex 0.420953 -0.216942 0.353222
vertex 0.516376 -0.216942 0.187946
vertex 0.646748 -0.390916 0.235397
endloop
endfacet
facet normal -0.681090 -0.617648 -0.393228
outer loop
vertex 0.420953 -0.216942 0.353222
vertex 0.646748 -0.390916 0.235397
vertex 0.527234 -0.390916 0.442402
endloop
endfacet
facet normal -0.380439 -0.898344 -0.219647
outer loop
vertex 0.527234 -0.390916 0.442402
vertex 0.646748 -0.390916 0.235397
vertex 0.835142 -0.487464 0.303967
endloop
endfacet
facet normal -0.380439 -0.898344 -0.219647
outer loop
vertex 0.527234 -0.390916 0.442402
vertex 0.835142 -0.487464 0.303967
vertex 0.680814 -0.487464 0.571271
endloop
endfacet
facet normal 0.000000 -1.000000 0.000000
outer loop
vertex 0.680814 -0.487464 0.571271
vertex 0.835142 -0.487464 0.303967
vertex 1.044243 -0.487464 0.380074
endloop
endfacet
facet normal 0.000000 -1.000000 0.000000
outer loop
vertex 0.680814 -0.487464 0.571271
vertex 1.044243 -0.487464 0.380074
vertex 0.851275 -0.487464 0.714305
endloop
endfacet
facet normal 0.380439 -0.898344 0.219647
outer loop
vertex 0.851275 -0.487464 0.714305
vertex 1.044243 -0.487464 0.380074
vertex 1.232637 -0.390916 0.448644
endloop
endfacet
facet normal 0.380439 -0.898344 0.219646
outer loop
vertex 0.851275 -0.487464 0.714305
vertex 1.232637 -0.390916 0.448644
vertex 1.004855 -0.390916 0.843174
endloop
endfacet
facet normal 0.681090 -0.617648 0.393227
outer loop
vertex 1.004855 -0.390916 0.843174
vertex 1.232637 -0.390916 0.448644
vertex 1.363009 -0.216942 0.496095
endloop
endfacet
facet normal 0.681090 -0.617648 0.393228
outer loop
vertex 1.004855 -0.390916 0.843174
vertex 1.363009 -0.216942 0.496095
vertex 1.111135 -0.216942 0.932354
endloop
endfacet
facet normal 0.844943 -0.219304 0.487829
outer loop
vertex 1.111135 -0.216942 0.932354
vertex 1.363009 -0.216942 0.496095
vertex 1.409539 0.000000 0.513031
endloop
endfacet
facet normal 0.844943 -0.219304 0.487828
outer loop
vertex 1.111135 -0.216942 0.932354
vertex 1.409539 0.000000 0.513031
vertex 1.149066 0.000000 0.964182
endloop
endfacet
facet normal 0.960834 0.219305 0.169421
outer loop
vertex 1.409539 0.000000 0.513031
vertex 1.500000 0.000000 0.000000
vertex 1.450484 0.216942 0.000000
endloop
endfacet
facet normal 0.960834 0.219303 0.169421
outer loop
vertex 1.409539 0.000000 0.513031
vertex 1.450484 0.216942 0.000000
vertex 1.363009 0.216942 0.496095
endloop
endfacet
facet normal 0.774506 0.617649 0.136566
outer loop
vertex 1.363009 0.216942 0.496095
vertex 1.450484 0.216942 0.000000
vertex 1.311745 0.390916 0.000000
endloop
endfacet
facet normal 0.774507 0.617648 0.136567
outer loop
vertex 1.363009 0.216942 0.496095
vertex 1.311745 0.390916 0.000000
vertex 1.232637 0.390916 0.448644
endloop
endfacet
facet normal 0.432620 0.898344 0.076283
outer loop
vertex 1.232637 0.390916 0.448644
vertex 1.311745 0.390916 0.000000
vertex 1.111260 0.487464 0.000000
endloop
endfacet
facet normal 0.432619 0.898344 0.076282
outer loop
vertex 1.232637 0.390916 0.448644
vertex 1.111260 0.487464 0.000000
vertex 1.044243 0.487464 0.380074
endloop
endfacet
facet normal 0.000000 1.000000 -0.000000
outer loop
vertex 1.044243 0.487464 0.380074
vertex 1.111260 0.487464 0.000000
vertex 0.888740 0.487464 0.000000
endloop
endfacet
facet normal 0.000000 1.000000 -0.000000
outer loop
vertex 1.044243 0.487464 0.380074
vertex 0.888740 0.487464 0.000000
vertex 0.835142 0.487464 0.303967
endloop
endfacet
facet normal -0.432620 0.898343 -0.076283
outer loop
vertex 0.835142 0.487464 0.303967
vertex 0.888740 0.487464 0.000000
vertex 0.688255 0.390916 0.000000
endloop
endfacet
facet normal -0.432619 0.898344 -0.076282
outer loop
vertex 0.835142 0.487464 0.303967
vertex 0.688255 0.390916 0.000000
vertex 0.646748 0.390916 0.235397
endloop
endfacet
facet normal -0.774507 0.617648 -0.136567
outer loop
vertex 0.646748 0.390916 0.235397
vertex 0.688255 0.390916 0.000000
vertex 0.549516 0.216942 0.000000
endloop
endfacet
facet normal -0.774507 0.617648 -0.136567
outer loop
vertex 0.646748 0.390916 0.235397
vertex 0.549516 0.216942 0.000000
vertex 0.516376 0.216942 0.187946
endloop
endfacet
facet normal -0.960834 0.219304 -0.169421
outer loop
vertex 0.516376 0.216942 0.187946
vertex 0.549516 0.216942 0.000000
vertex 0.500000 0.000000 0.000000
endloop
endfacet
facet normal -0.960834 0.219304 -0.169421
outer loop
vertex 0.516376 0.216942 0.187946
vertex 0.500000 0.000000 0.000000
vertex 0.469846 0.000000 0.171010
endloop
endfacet
facet normal -0.960834 -0.219304 -0.169421
outer loop
vertex 0.469846 0.000000 0.171010
vertex 0.500000 0.000000 0.000000
vertex 0.549516 -0.216942 0.000000
endloop
endfacet
facet normal -0.960834 -0.219305 -0.169421
outer loop
vertex 0.469846 0.000000 0.171010
vertex 0.549516 -0.216942 0.000000
vertex 0.516376 -0.216942 0.187946
endloop
endfacet
facet normal -0.774507 -0.617648 -0.136567
outer loop
vertex 0.516376 -0.216942 0.187946
vertex 0.549516 -0.216942 0.000000
vertex 0.688255 -0.390916 0.000000
endloop
endfacet
facet normal -0.774507 -0.617648 -0.136567
outer loop
vertex 0.516376 -0.216942 0.187946
vertex 0.688255 -0.390916 0.000000
vertex 0.646748 -0.390916 0.235397
endloop
endfacet
facet normal -0.432619 -0.898344 -0.076283
outer loop
vertex 0.646748 -0.390916 0.235397
vertex 0.688255 -0.390916 0.000000
vertex 0.888740 -0.487464 0.000000
endloop
endfacet
facet normal -0.432620 -0.898344 -0.076283
outer loop
vertex 0.646748 -0.390916 0.235397
vertex 0.888740 -0.487464 0.000000
vertex 0.835142 -0.487464 0.303967
endloop
endfacet
facet normal 0.000000 -1.000000 0.000000
outer loop
vertex 0.835142 -0.487464 0.303967
vertex 0.888740 -0.487464 0.000000
vertex 1.111260 -0.487464 0.000000
endloop
endfacet
facet normal 0.000000 -1.000000 -0.000000
outer loop
vertex 0.835142 -0.487464 0.303967
vertex 1.111260 -0.487464 0.000000
vertex 1.044243 -0.487464 0.380074
endloop
endfacet
facet normal 0.432619 -0.898344 0.076283
outer loop
vertex 1.044243 -0.487464 0.380074
vertex 1.111260 -0.487464 0.000000
vertex 1.311745 -0.390916 0.000000
endloop
endfacet
facet normal 0.432619 -0.898344 0.076283
outer loop
vertex 1.044243 -0.487464 0.380074
vertex 1.311745 -0.390916 0.000000
vertex 1.232637 -0.390916 0.448644
endloop
endfacet
facet normal 0.774507 -0.617648 0.136567
outer loop
vertex 1.232637 -0.390916 0.448644
vertex 1.311745 -0.390916 0.000000
vertex 1.450484 -0.216942 0.000000
endloop
endfacet
facet normal 0.774506 -0.617649 0.136566
outer loop
vertex 1.232637 -0.390916 0.448644
vertex 1.450484 -0.216942 0.000000
vertex 1.363009 -0.216942 0.496095
endloop
endfacet
facet normal 0.960834 -0.219305 0.169421
outer loop
vertex 1.363009 -0.216942 0.496095
vertex 1.450484 -0.216942 0.000000
vertex 1.500000 0.000000 0.000000
endloop
endfacet
facet normal 0.960834 -0.219303 0.169421
outer loop
vertex 1.363009 -0.216942 0.496095
vertex 1.500000 0.000000 0.000000
vertex 1.409539 0.000000 0.513031
endloop
endfacet
facet normal 0.960834 0.219305 -0.169421
outer loop
vertex 1.500000 0.000000 0.000000
vertex 1.409539 0.000000 -0.513030
vertex 1.363010 0.216942 -0.496095
endloop
endfacet
facet normal 0.960834 0.219304 -0.169421
outer loop
vertex 1.500000 0.000000 0.000000
vertex 1.363010 0.216942 -0.496095
vertex 1.450484 0.216942 0.000000
endloop
endfacet
facet normal 0.774507 0.617648 -0.136566
outer loop
vertex 1.450484 0.216942 0.000000
vertex 1.363010 0.216942 -0.496095
vertex 1.232637 0.390916 -0.448643
endloop
endfacet
facet normal 0.774507 0.617647 -0.136566
outer loop
vertex 1.450484 0.216942 0.000000
vertex 1.232637 0.390916 -0.448643
vertex 1.311745 0.390916 0.000000
endloop
endfacet
facet normal 0.432619 0.898344 -0.076283
outer loop
vertex 1.311745 0.390916 0.000000
vertex 1.232637 0.390916 -0.448643
vertex 1.044243 0.487464 -0.380073
endloop
endfacet
facet normal 0.432620 0.898344 -0.076282
outer loop
vertex 1.311745 0.390916 0.000000
vertex 1.044243 0.487464 -0.380073
vertex 1.111260 0.487464 0.000000
endloop
endfacet
facet normal 0.000000 1.000000 0.000000
outer loop
vertex 1.111260 0.487464 0.000000
vertex 1.044243 0.487464 -0.380073
vertex 0.835142 0.487464 -0.303967
endloop
endfacet
facet normal 0.000000 1.000000 0.000000
outer loop
vertex 1.111260 0.487464 0.000000
vertex 0.835142 0.487464 -0.303967
vertex 0.888740 0.487464 0.000000
endloop
endfacet
facet normal -0.432619 0.898344 0.076282
outer loop
vertex 0.888740 0.487464 0.000000
vertex 0.835142 0.487464 -0.303967
vertex 0.646748 0.390916 -0.235397
endloop
endfacet
facet normal -0.432619 0.898344 0.076283
outer loop
vertex 0.888740 0.487464 0.000000
vertex 0.646748 0.390916 -0.235397
vertex 0.688255 0.390916 0.000000
endloop
endfacet
facet normal -0.774506 0.617648 0.136566
outer loop
vertex 0.688255 0.390916 0.000000
vertex 0.646748 0.390916 -0.235397
vertex 0.516376 0.216942 -0.187945
endloop
endfacet
facet normal -0.774506 0.617648 0.136566
outer loop
vertex 0.688255 0.390916 0.000000
vertex 0.516376 0.216942 -0.187945
vertex 0.549516 0.216942 0.000000
endloop
endfacet
facet normal -0.960834 0.219304 0.169421
outer loop
vertex 0.549516 0.216942 0.000000
vertex 0.516376 0.216942 -0.187945
vertex 0.469846 0.000000 -0.171010
endloop
endfacet
facet normal -0.960834 0.219304 0.169421
outer loop
vertex 0.549516 0.216942 0.000000
vertex 0.469846 0.000000 -0.171010
vertex 0.500000 0.000000 0.000000
endloop
endfacet
facet normal -0.960834 -0.219304 0.169421
outer loop
vertex 0.500000 0.000000 0.000000
vertex 0.469846 0.000000 -0.171010
vertex 0.516376 -0.216942 -0.187945
endloop
endfacet
facet normal -0.960834 -0.219304 0.169421
outer loop
vertex 0.500000 0.000000 0.000000
vertex 0.516376 -0.216942 -0.187945
vertex 0.549516 -0.216942 0.000000
endloop
endfacet
facet normal -0.774506 -0.617648 0.136566
outer loop
vertex 0.549516 -0.216942 0.000000
vertex 0.516376 -0.216942 -0.187945
vertex 0.646748 -0.390916 -0.235397
endloop
endfacet
facet normal -0.774507 -0.617648 0.136566
outer loop
vertex 0.549516 -0.216942 0.000000
vertex 0.646748 -0.390916 -0.235397
vertex 0.688255 -0.390916 0.000000
endloop
endfacet
facet normal -0.432619 -0.898344 0.076283
outer loop
vertex 0.688255 -0.390916 0.000000
vertex 0.646748 -0.390916 -0.235397
vertex 0.835142 -0.487464 -0.303967
endloop
endfacet
facet normal -0.432619 -0.898344 0.076282
outer loop
vertex 0.688255 -0.390916 0.000000
vertex 0.835142 -0.487464 -0.303967
vertex 0.888740 -0.487464 0.000000
endloop
endfacet
facet normal 0.000000 -1.000000 0.000000
outer loop
vertex 0.888740 -0.487464 0.000000
vertex 0.835142 -0.487464 -0.303967
vertex 1.044243 -0.487464 -0.380073
endloop
endfacet
facet normal 0.000000 -1.000000 0.000000
outer loop
vertex 0.888740 -0.487464 0.000000
vertex 1.044243 -0.487464 -0.380073
vertex 1.111260 -0.487464 0.000000
endloop
endfacet
facet normal 0.432619 -0.898344 -0.076283
outer loop
vertex 1.111260 -0.487464 0.000000
vertex 1.044243 -0.487464 -0.380073
vertex 1.232637 -0.390916 -0.448643
endloop
endfacet
facet normal 0.432619 -0.898344 -0.076282
outer loop
vertex 1.111260 -0.487464 0.000000
vertex 1.232637 -0.390916 -0.448643
vertex 1.311745 -0.390916 0.000000
endloop
endfacet
facet normal 0.774507 -0.617648 -0.136566
outer loop
vertex 1.311745 -0.390916 0.000000
vertex 1.232637 -0.390916 -0.448643
vertex 1.363010 -0.216942 -0.496095
endloop
endfacet
facet normal 0.774507 -0.617648 -0.136566
outer loop
vertex 1.311745 -0.390916 0.000000
vertex 1.363010 -0.216942 -0.496095
vertex 1.450484 -0.216942 0.000000
endloop
endfacet
facet normal 0.960834 -0.219304 -0.169421
outer loop
vertex 1.450484 -0.216942 0.000000
vertex 1.363010 -0.216942 -0.496095
vertex 1.409539 0.000000 -0.513030
endloop
endfacet
facet normal 0.960834 -0.219305 -0.169421
outer loop
vertex 1.450484 -0.216942 0.000000
vertex 1.409539 0.000000 -0.513030
vertex 1.500000 0.000000 0.000000
endloop
endfacet
facet normal 0.844944 0.219304 -0.487828
outer loop
vertex 1.409539 0.000000 -0.513030
vertex 1.149067 0.000000 -0.964181
vertex 1.111136 0.216942 -0.932353
endloop
endfacet
facet normal 0.844944 0.219304 -0.487828
outer loop
vertex 1.409539 0.000000 -0.513030
vertex 1.111136 0.216942 -0.932353
vertex 1.363010 0.216942 -0.496095
endloop
endfacet
facet normal 0.681089 0.617649 -0.393227
outer loop
vertex 1.363010 0.216942 -0.496095
vertex 1.111136 0.216942 -0.932353
vertex 1.004855 0.390916 -0.843173
endloop
endfacet
facet normal 0.681089 0.617649 -0.393227
outer loop
vertex 1.363010 0.216942 -0.496095
vertex 1.004855 0.390916 -0.843173
vertex 1.232637 0.390916 -0.448643
endloop
endfacet
facet normal 0.380439 0.898344 -0.219647
outer loop
vertex 1.232637 0.390916 -0.448643
vertex 1.004855 0.390916 -0.843173
vertex 0.851275 0.487464 -0.714304
endloop
endfacet
facet normal 0.380439 0.898344 -0.219646
outer loop
vertex 1.232637 0.390916 -0.448643
vertex 0.851275 0.487464 -0.714304
vertex 1.044243 0.487464 -0.380073
endloop
endfacet
facet normal 0.000000 1.000000 0.000000
outer loop
vertex 1.044243 0.487464 -0.380073
vertex 0.851275 0.487464 -0.714304
vertex 0.680814 0.487464 -0.571271
endloop
endfacet
facet normal 0.000000 1.000000 -0.000000
outer loop
vertex 1.044243 0.487464 -0.380073
vertex 0.680814 0.487464 -0.571271
vertex 0.835142 0.487464 -0.303967
endloop
endfacet
facet normal -0.380439 0.898344 0.219647
outer loop
vertex 0.835142 0.487464 -0.303967
vertex 0.680814 0.487464 -0.571271
vertex 0.527234 0.390916 -0.442402
endloop
endfacet
facet normal -0.380439 0.898344 0.219646
outer loop
vertex 0.835142 0.487464 -0.303967
vertex 0.527234 0.390916 -0.442402
vertex 0.646748 0.390916 -0.235397
endloop
endfacet
facet normal -0.681090 0.617648 0.393227
outer loop
vertex 0.646748 0.390916 -0.235397
vertex 0.527234 0.390916 -0.442402
vertex 0.420953 0.216942 -0.353222
endloop
endfacet
facet normal -0.681090 0.617648 0.393227
outer loop
vertex 0.646748 0.390916 -0.235397
vertex 0.420953 0.216942 -0.353222
vertex 0.516376 0.216942 -0.187945
endloop
endfacet
facet normal -0.844944 0.219304 0.487828
outer loop
vertex 0.516376 0.216942 -0.187945
vertex 0.420953 0.216942 -0.353222
vertex 0.383022 0.000000 -0.321394
endloop
endfacet
facet normal -0.844944 0.219304 0.487828
outer loop
vertex 0.516376 0.216942 -0.187945
vertex 0.383022 0.000000 -0.321394
vertex 0.469846 0.000000 -0.171010
endloop
endfacet
facet normal -0.844944 -0.219304 0.487828
outer loop
vertex 0.469846 0.000000 -0.171010
vertex 0.383022 0.000000 -0.321394
vertex 0.420953 -0.216942 -0.353222
endloop
endfacet
facet normal -0.844944 -0.219304 0.487828
outer loop
vertex 0.469846 0.000000 -0.171010
vertex 0.420953 -0.216942 -0.353222
vertex 0.516376 -0.216942 -0.187945
endloop
endfacet
facet normal -0.681090 -0.617648 0.393227
outer loop
vertex 0.516376 -0.216942 -0.187945
vertex 0.420953 -0.216942 -0.353222
vertex 0.527234 -0.390916 -0.442402
endloop
endfacet
facet normal -0.681090 -0.617648 0.393227
outer loop
vertex 0.516376 -0.216942 -0.187945
vertex 0.527234 -0.390916 -0.442402
vertex 0.646748 -0.390916 -0.235397
endloop
endfacet
facet normal -0.380439 -0.898344 0.219646
outer loop
vertex 0.646748 -0.390916 -0.235397
vertex 0.527234 -0.390916 -0.442402
vertex 0.680814 -0.487464 -0.571271
endloop
endfacet
facet normal -0.380439 -0.898344 0.219646
outer loop
vertex 0.646748 -0.390916 -0.235397
vertex 0.680814 -0.487464 -0.571271
vertex 0.835142 -0.487464 -0.303967
endloop
endfacet
facet normal 0.000000 -1.000000 0.000000
outer loop
vertex 0.835142 -0.487464 -0.303967
vertex 0.680814 -0.487464 -0.571271
vertex 0.851275 -0.487464 -0.714304
endloop
endfacet
facet normal 0.000000 -1.000000 0.000000
outer loop
vertex 0.835142 -0.487464 -0.303967
vertex 0.851275 -0.487464 -0.714304
vertex 1.044243 -0.487464 -0.380073
endloop
endfacet
facet normal 0.380439 -0.898344 -0.219646
outer loop
vertex 1.044243 -0.487464 -0.380073
vertex 0.851275 -0.487464 -0.714304
vertex 1.004855 -0.390916 -0.843173
endloop
endfacet
facet normal 0.380440 -0.898344 -0.219647
outer loop
vertex 1.044243 -0.487464 -0.380073
vertex 1.004855 -0.390916 -0.843173
vertex 1.232637 -0.390916 -0.448643
endloop
endfacet
facet normal 0.681090 -0.617648 -0.393227
outer loop
vertex 1.232637 -0.390916 -0.448643
vertex 1.004855 -0.390916 -0.843173
vertex 1.111136 -0.216942 -0.932353
endloop
endfacet
facet normal 0.681090 -0.617648 -0.393227
outer loop
vertex 1.232637 -0.390916 -0.448643
vertex 1.111136 -0.216942 -0.932353
vertex 1.363010 -0.216942 -0.496095
endloop
endfacet
facet normal 0.844944 -0.219304 -0.487828
outer loop
vertex 1.363010 -0.216942 -0.496095
vertex 1.111136 -0.216942 -0.932353
vertex 1.149067 0.000000 -0.964181
endloop
endfacet
facet normal 0.844943 -0.219305 -0.487828
outer loop
vertex 1.363010 -0.216942 -0.496095
vertex 1.149067 0.000000 -0.964181
vertex 1.409539 0.000000 -0.513030
endloop
endfacet
facet normal 0.627140 0.219305 -0.747396
outer loop
vertex 1.149067 0.000000 -0.964181
vertex 0.750000 0.000000 -1.299038
vertex 0.725242 0.216942 -1.256156
endloop
endfacet
facet normal 0.627140 0.219304 -0.747396
outer loop
vertex 1.149067 0.000000 -0.964181
vertex 0.725242 0.216942 -1.256156
vertex 1.111136 0.216942 -0.932353
endloop
endfacet
facet normal 0.505523 0.617648 -0.602460
outer loop
vertex 1.111136 0.216942 -0.932353
vertex 0.725242 0.216942 -1.256156
vertex 0.655872 0.390916 -1.136005
endloop
endfacet
facet normal 0.505523 0.617648 -0.602459
outer loop
vertex 1.111136 0.216942 -0.932353
vertex 0.655872 0.390916 -1.136005
vertex 1.004855 0.390916 -0.843173
endloop
endfacet
facet normal 0.282372 0.898344 -0.336518
outer loop
vertex 1.004855 0.390916 -0.843173
vertex 0.655872 0.390916 -1.136005
vertex 0.555630 0.487464 -0.962380
endloop
endfacet
facet normal 0.282372 0.898344 -0.336518
outer loop
vertex 1.004855 0.390916 -0.843173
vertex 0.555630 0.487464 -0.962380
vertex 0.851275 0.487464 -0.714304
endloop
endfacet
facet normal 0.000000 1.000000 -0.000000
outer loop
vertex 0.851275 0.487464 -0.714304
vertex 0.555630 0.487464 -0.962380
vertex 0.444370 0.487464 -0.769671
endloop
endfacet
facet normal 0.000000 1.000000 0.000000
outer loop
vertex 0.851275 0.487464 -0.714304
vertex 0.444370 0.487464 -0.769671
vertex 0.680814 0.487464 -0.571271
endloop
endfacet
facet normal -0.282372 0.898344 0.336518
outer loop
vertex 0.680814 0.487464 -0.571271
vertex 0.444370 0.487464 -0.769671
vertex 0.344127 0.390916 -0.596046
endloop
endfacet
facet normal -0.282372 0.898344 0.336518
outer loop
vertex 0.680814 0.487464 -0.571271
vertex 0.344127 0.390916 -0.596046
vertex 0.527234 0.390916 -0.442402
endloop
endfacet
facet normal -0.505523 0.617648 0.602459
outer loop
vertex 0.527234 0.390916 -0.442402
vertex 0.344127 0.390916 -0.596046
vertex 0.274758 0.216942 -0.475894
endloop
endfacet
facet normal -0.505523 0.617648 0.602459
outer loop
vertex 0.527234 0.390916 -0.442402
vertex 0.274758 0.216942 -0.475894
vertex 0.420953 0.216942 -0.353222
endloop
endfacet
facet normal -0.627140 0.219304 0.747396
outer loop
vertex 0.420953 0.216942 -0.353222
vertex 0.274758 0.216942 -0.475894
vertex 0.250000 0.000000 -0.433013
endloop
endfacet
facet normal -0.627140 0.219304 0.747396
outer loop
vertex 0.420953 0.216942 -0.353222
vertex 0.250000 0.000000 -0.433013
vertex 0.383022 0.000000 -0.321394
endloop
endfacet
facet normal -0.627140 -0.219304 0.747396
outer loop
vertex 0.383022 0.000000 -0.321394
vertex 0.250000 0.000000 -0.433013
vertex 0.274758 -0.216942 -0.475894
endloop
endfacet
facet normal -0.627140 -0.219304 0.747397
outer loop
vertex 0.383022 0.000000 -0.321394
vertex 0.274758 -0.216942 -0.475894
vertex 0.420953 -0.216942 -0.353222
endloop
endfacet
facet normal -0.505523 -0.617648 0.602459
outer loop
vertex 0.420953 -0.216942 -0.353222
vertex 0.274758 -0.216942 -0.475894
vertex 0.344127 -0.390916 -0.596046
endloop
endfacet
facet normal -0.505523 -0.617648 0.602459
outer loop
vertex 0.420953 -0.216942 -0.353222
vertex 0.344127 -0.390916 -0.596046
vertex 0.527234 -0.390916 -0.442402
endloop
endfacet
facet normal -0.282372 -0.898344 0.336518
outer loop
vertex 0.527234 -0.390916 -0.442402
vertex 0.344127 -0.390916 -0.596046
vertex 0.444370 -0.487464 -0.769671
endloop
endfacet
facet normal -0.282372 -0.898344 0.336518
outer loop
vertex 0.527234 -0.390916 -0.442402
vertex 0.444370 -0.487464 -0.769671
vertex 0.680814 -0.487464 -0.571271
endloop
endfacet
facet normal 0.000000 -1.000000 -0.000000
outer loop
vertex 0.680814 -0.487464 -0.571271
vertex 0.444370 -0.487464 -0.769671
vertex 0.555630 -0.487464 -0.962380
endloop
endfacet
facet normal 0.000000 -1.000000 0.000000
outer loop
vertex 0.680814 -0.487464 -0.571271
vertex 0.555630 -0.487464 -0.962380
vertex 0.851275 -0.487464 -0.714304
endloop
endfacet
facet normal 0.282372 -0.898344 -0.336518
outer loop
vertex 0.851275 -0.487464 -0.714304
vertex 0.555630 -0.487464 -0.962380
vertex 0.655872 -0.390916 -1.136005
endloop
endfacet
facet normal 0.282372 -0.898344 -0.336518
outer loop
vertex 0.851275 -0.487464 -0.714304
vertex 0.655872 -0.390916 -1.136005
vertex 1.004855 -0.390916 -0.843173
endloop
endfacet
facet normal 0.505523 -0.617648 -0.602460
outer loop
vertex 1.004855 -0.390916 -0.843173
vertex 0.655872 -0.390916 -1.136005
vertex 0.725242 -0.216942 -1.256156
endloop
endfacet
facet normal 0.505523 -0.617648 -0.602459
outer loop
vertex 1.004855 -0.390916 -0.843173
vertex 0.725242 -0.216942 -1.256156
vertex 1.111136 -0.216942 -0.932353
endloop
endfacet
facet normal 0.627140 -0.219305 -0.747396
outer loop
vertex 1.111136 -0.216942 -0.932353
vertex 0.725242 -0.216942 -1.256156
vertex 0.750000 0.000000 -1.299038
endloop
endfacet
facet normal 0.627140 -0.219304 -0.747396
outer loop
vertex 1.111136 -0.216942 -0.932353
vertex 0.750000 0.000000 -1.299038
vertex 1.149067 0.000000 -0.964181
endloop
endfacet
facet normal 0.333694 0.219304 -0.916817
outer loop
vertex 0.750000 0.000000 -1.299038
vertex 0.260472 0.000000 -1.477212
vertex 0.251874 0.216942 -1.428448
endloop
endfacet
facet normal 0.333694 0.219305 -0.916817
outer loop
vertex 0.750000 0.000000 -1.299038
vertex 0.251874 0.216942 -1.428448
vertex 0.725242 0.216942 -1.256156
endloop
endfacet
facet normal 0.268983 0.617648 -0.739026
outer loop
vertex 0.725242 0.216942 -1.256156
vertex 0.251874 0.216942 -1.428448
vertex 0.227782 0.390916 -1.291817
endloop
endfacet
facet normal 0.268984 0.617648 -0.739026
outer loop
vertex 0.725242 0.216942 -1.256156
vertex 0.227782 0.390916 -1.291817
vertex 0.655872 0.390916 -1.136005
endloop
endfacet
facet normal 0.150247 0.898344 -0.412801
outer loop
vertex 0.655872 0.390916 -1.136005
vertex 0.227782 0.390916 -1.291817
vertex 0.192968 0.487464 -1.094378
endloop
endfacet
facet normal 0.150247 0.898344 -0.412800
outer loop
vertex 0.655872 0.390916 -1.136005
vertex 0.192968 0.487464 -1.094378
vertex 0.555630 0.487464 -0.962380
endloop
endfacet
facet normal 0.000000 1.000000 -0.000000
outer loop
vertex 0.555630 0.487464 -0.962380
vertex 0.192968 0.487464 -1.094378
vertex 0.154328 0.487464 -0.875238
endloop
endfacet
facet normal 0.000000 1.000000 -0.000000
outer loop
vertex 0.555630 0.487464 -0.962380
vertex 0.154328 0.487464 -0.875238
vertex 0.444370 0.487464 -0.769671
endloop
endfacet
facet normal -0.150247 0.898344 0.412801
outer loop
vertex 0.444370 0.487464 -0.769671
vertex 0.154328 0.487464 -0.875238
vertex 0.119514 0.390916 -0.677799
endloop
endfacet
facet normal -0.150247 0.898344 0.412801
outer loop
vertex 0.444370 0.487464 -0.769671
vertex 0.119514 0.390916 -0.677799
vertex 0.344127 0.390916 -0.596046
endloop
endfacet
facet normal -0.268983 0.617648 0.739026
outer loop
vertex 0.344127 0.390916 -0.596046
vertex 0.119514 0.390916 -0.677799
vertex 0.095422 0.216942 -0.541167
endloop
endfacet
facet normal -0.268983 0.617648 0.739025
outer loop
vertex 0.344127 0.390916 -0.596046
vertex 0.095422 0.216942 -0.541167
vertex 0.274758 0.216942 -0.475894
endloop
endfacet
facet normal -0.333694 0.219304 0.916817
outer loop
vertex 0.274758 0.216942 -0.475894
vertex 0.095422 0.216942 -0.541167
vertex 0.086824 0.000000 -0.492404
endloop
endfacet
facet normal -0.333694 0.219304 0.916817
outer loop
vertex 0.274758 0.216942 -0.475894
vertex 0.086824 0.000000 -0.492404
vertex 0.250000 0.000000 -0.433013
endloop
endfacet
facet normal -0.333694 -0.219304 0.916817
outer loop
vertex 0.250000 0.000000 -0.433013
vertex 0.086824 0.000000 -0.492404
vertex 0.095422 -0.216942 -0.541167
endloop
endfacet
facet normal -0.333694 -0.219304 0.916817
outer loop
vertex 0.250000 0.000000 -0.433013
vertex 0.095422 -0.216942 -0.541167
vertex 0.274758 -0.216942 -0.475894
endloop
endfacet
facet normal -0.268983 -0.617648 0.739026
outer loop
vertex 0.274758 -0.216942 -0.475894
vertex 0.095422 -0.216942 -0.541167
vertex 0.119514 -0.390916 -0.677799
endloop
endfacet
facet normal -0.268983 -0.617648 0.739026
outer loop
vertex 0.274758 -0.216942 -0.475894
vertex 0.119514 -0.390916 -0.677799
vertex 0.344127 -0.390916 -0.596046
endloop
endfacet
facet normal -0.150247 -0.898344 0.412801
outer loop
vertex 0.344127 -0.390916 -0.596046
vertex 0.119514 -0.390916 -0.677799
vertex 0.154328 -0.487464 -0.875238
endloop
endfacet
facet normal -0.150247 -0.898344 0.412801
outer loop
vertex 0.344127 -0.390916 -0.596046
vertex 0.154328 -0.487464 -0.875238
vertex 0.444370 -0.487464 -0.769671
endloop
endfacet
facet normal 0.000000 -1.000000 -0.000000
outer loop
vertex 0.444370 -0.487464 -0.769671
vertex 0.154328 -0.487464 -0.875238
vertex 0.192968 -0.487464 -1.094378
endloop
endfacet
facet normal 0.000000 -1.000000 -0.000000
outer loop
vertex 0.444370 -0.487464 -0.769671
vertex 0.192968 -0.487464 -1.094378
vertex 0.555630 -0.487464 -0.962380
endloop
endfacet
facet normal 0.150247 -0.898344 -0.412800
outer loop
vertex 0.555630 -0.487464 -0.962380
vertex 0.192968 -0.487464 -1.094378
vertex 0.227782 -0.390916 -1.291817
endloop
endfacet
facet normal 0.150247 -0.898344 -0.412801
outer loop
vertex 0.555630 -0.487464 -0.962380
vertex 0.227782 -0.390916 -1.291817
vertex 0.655872 -0.390916 -1.136005
endloop
endfacet
facet normal 0.268983 -0.617648 -0.739026
outer loop
vertex 0.655872 -0.390916 -1.136005
vertex 0.227782 -0.390916 -1.291817
vertex 0.251874 -0.216942 -1.428448
endloop
endfacet
facet normal 0.268984 -0.617648 -0.739026
outer loop
vertex 0.655872 -0.390916 -1.136005
vertex 0.251874 -0.216942 -1.428448
vertex 0.725242 -0.216942 -1.256156
endloop
endfacet
facet normal 0.333694 -0.219305 -0.916817
outer loop
vertex 0.725242 -0.216942 -1.256156
vertex 0.251874 -0.216942 -1.428448
vertex 0.260472 0.000000 -1.477212
endloop
endfacet
facet normal 0.333694 -0.219305 -0.916817
outer loop
vertex 0.725242 -0.216942 -1.256156
vertex 0.260472 0.000000 -1.477212
vertex 0.750000 0.000000 -1.299038
endloop
endfacet
facet normal -0.000001 0.219305 -0.975656
outer loop
vertex 0.260472 0.000000 -1.477212
vertex -0.260472 0.000000 -1.477212
vertex -0.251874 0.216942 -1.428448
endloop
endfacet
facet normal -0.000001 0.219304 -0.975657
outer loop
vertex 0.260472 0.000000 -1.477212
vertex -0.251874 0.216942 -1.428448
vertex 0.251874 0.216942 -1.428448
endloop
endfacet
facet normal 0.000000 0.617648 -0.786455
outer loop
vertex 0.251874 0.216942 -1.428448
vertex -0.251874 0.216942 -1.428448
vertex -0.227782 0.390916 -1.291817
endloop
endfacet
facet normal 0.000000 0.617648 -0.786455
outer loop
vertex 0.251874 0.216942 -1.428448
vertex -0.227782 0.390916 -1.291817
vertex 0.227782 0.390916 -1.291817
endloop
endfacet
facet normal 0.000000 0.898344 -0.439293
outer loop
vertex 0.227782 0.390916 -1.291817
vertex -0.227782 0.390916 -1.291817
vertex -0.192968 0.487464 -1.094378
endloop
endfacet
facet normal 0.000000 0.898344 -0.439293
outer loop
vertex 0.227782 0.390916 -1.291817
vertex -0.192968 0.487464 -1.094378
vertex 0.192968 0.487464 -1.094378
endloop
endfacet
facet normal 0.000000 1.000000 -0.000000
outer loop
vertex 0.192968 0.487464 -1.094378
vertex -0.192968 0.487464 -1.094378
vertex -0.154328 0.487464 -0.875238
endloop
endfacet
facet normal 0.000000 1.000000 0.000000
outer loop
vertex 0.192968 0.487464 -1.094378
vertex -0.154328 0.487464 -0.875238
vertex 0.154328 0.487464 -0.875238
endloop
endfacet
facet normal 0.000000 0.898344 0.439293
outer loop
vertex 0.154328 0.487464 -0.875238
vertex -0.154328 0.487464 -0.875238
vertex -0.119514 0.390916 -0.677799
endloop
endfacet
facet normal 0.000000 0.898344 0.439293
outer loop
vertex 0.154328 0.487464 -0.875238
vertex -0.119514 0.390916 -0.677799
vertex 0.119514 0.390916 -0.677799
endloop
endfacet
facet normal 0.000000 0.617648 0.786454
outer loop
vertex 0.119514 0.390916 -0.677799
vertex -0.119514 0.390916 -0.677799
vertex -0.095422 0.216942 -0.541167
endloop
endfacet
facet normal 0.000000 0.617648 0.786454
outer loop
vertex 0.119514 0.390916 -0.677799
vertex -0.095422 0.216942 -0.541167
vertex 0.095422 0.216942 -0.541167
endloop
endfacet
facet normal 0.000000 0.219304 0.975657
outer loop
vertex 0.095422 0.216942 -0.541167
vertex -0.095422 0.216942 -0.541167
vertex -0.086824 0.000000 -0.492404
endloop
endfacet
facet normal 0.000001 0.219304 0.975657
outer loop
vertex 0.095422 0.216942 -0.541167
vertex -0.086824 0.000000 -0.492404
vertex 0.086824 0.000000 -0.492404
endloop
endfacet
facet normal 0.000000 -0.219304 0.975657
outer loop
vertex 0.086824 0.000000 -0.492404
vertex -0.086824 0.000000 -0.492404
vertex -0.095422 -0.216942 -0.541167
endloop
endfacet
facet normal 0.000001 -0.219304 0.975657
outer loop
vertex 0.086824 0.000000 -0.492404
vertex -0.095422 -0.216942 -0.541167
vertex 0.095422 -0.216942 -0.541167
endloop
endfacet
facet normal 0.000000 -0.617648 0.786454
outer loop
vertex 0.095422 -0.216942 -0.541167
vertex -0.095422 -0.216942 -0.541167
vertex -0.119514 -0.390916 -0.677799
endloop
endfacet
facet normal 0.000000 -0.617648 0.786455
outer loop
vertex 0.095422 -0.216942 -0.541167
vertex -0.119514 -0.390916 -0.677799
vertex 0.119514 -0.390916 -0.677799
endloop
endfacet
facet normal 0.000000 -0.898344 0.439294
outer loop
vertex 0.119514 -0.390916 -0.677799
vertex -0.119514 -0.390916 -0.677799
vertex -0.154328 -0.487464 -0.875238
endloop
endfacet
facet normal 0.000000 -0.898344 0.439293
outer loop
vertex 0.119514 -0.390916 -0.677799
vertex -0.154328 -0.487464 -0.875238
vertex 0.154328 -0.487464 -0.875238
endloop
endfacet
facet normal 0.000000 -1.000000 -0.000000
outer loop
vertex 0.154328 -0.487464 -0.875238
vertex -0.154328 -0.487464 -0.875238
vertex -0.192968 -0.487464 -1.094378
endloop
endfacet
facet normal 0.000000 -1.000000 -0.000000
outer loop
vertex 0.154328 -0.487464 -0.875238
vertex -0.192968 -0.487464 -1.094378
vertex 0.192968 -0.487464 -1.094378
endloop
endfacet
facet normal 0.000000 -0.898344 -0.439293
outer loop
vertex 0.192968 -0.487464 -1.094378
vertex -0.192968 -0.487464 -1.094378
vertex -0.227782 -0.390916 -1.291817
endloop
endfacet
facet normal 0.000000 -0.898344 -0.439293
outer loop
vertex 0.192968 -0.487464 -1.094378
vertex -0.227782 -0.390916 -1.291817
vertex 0.227782 -0.390916 -1.291817
endloop
endfacet
facet normal 0.000000 -0.617648 -0.786455
outer loop
vertex 0.227782 -0.390916 -1.291817
vertex -0.227782 -0.390916 -1.291817
vertex -0.251874 -0.216942 -1.428448
endloop
endfacet
facet normal 0.000000 -0.617648 -0.786455
outer loop
vertex 0.227782 -0.390916 -1.291817
vertex -0.251874 -0.216942 -1.428448
vertex 0.251874 -0.216942 -1.428448
endloop
endfacet
facet normal -0.000001 -0.219305 -0.975657
outer loop
vertex 0.251874 -0.216942 -1.428448
vertex -0.251874 -0.216942 -1.428448
vertex -0.260472 0.000000 -1.477212
endloop
endfacet
facet normal -0.000001 -0.219304 -0.975656
outer loop
vertex 0.251874 -0.216942 -1.428448
vertex -0.260472 0.000000 -1.477212
vertex 0.260472 0.000000 -1.477212
endloop
endfacet
facet normal -0.333694 0.219304 -0.916817
outer loop
vertex -0.260472 0.000000 -1.477212
vertex -0.750000 0.000000 -1.299038
vertex -0.725242 0.216942 -1.256156
endloop
endfacet
facet normal -0.333694 0.219304 -0.916817
outer loop
vertex -0.260472 0.000000 -1.477212
vertex -0.725242 0.216942 -1.256156
vertex -0.251874 0.216942 -1.428448
endloop
endfacet
facet normal -0.268983 0.617648 -0.739026
outer loop
vertex -0.251874 0.216942 -1.428448
vertex -0.725242 0.216942 -1.256156
vertex -0.655872 0.390916 -1.136004
endloop
endfacet
facet normal -0.268984 0.617648 -0.739026
outer loop
vertex -0.251874 0.216942 -1.428448
vertex -0.655872 0.390916 -1.136004
vertex -0.227782 0.390916 -1.291817
endloop
endfacet
facet normal -0.150247 0.898344 -0.412801
outer loop
vertex -0.227782 0.390916 -1.291817
vertex -0.655872 0.390916 -1.136004
vertex -0.555630 0.487464 -0.962380
endloop
endfacet
facet normal -0.150247 0.898344 -0.412801
outer loop
vertex -0.227782 0.390916 -1.291817
vertex -0.555630 0.487464 -0.962380
vertex -0.192968 0.487464 -1.094378
endloop
endfacet
facet normal 0.000000 1.000000 0.000000
outer loop
vertex -0.192968 0.487464 -1.094378
vertex -0.555630 0.487464 -0.962380
vertex -0.444370 0.487464 -0.769671
endloop
endfacet
facet normal 0.000000 1.000000 0.000000
outer loop
vertex -0.192968 0.487464 -1.094378
vertex -0.444370 0.487464 -0.769671
vertex -0.154328 0.487464 -0.875238
endloop
endfacet
facet normal 0.150247 0.898344 0.412800
outer loop
vertex -0.154328 0.487464 -0.875238
vertex -0.444370 0.487464 -0.769671
vertex -0.344128 0.390916 -0.596046
endloop
endfacet
facet normal 0.150247 0.898344 0.412801
outer loop
vertex -0.154328 0.487464 -0.875238
vertex -0.344128 0.390916 -0.596046
vertex -0.119514 0.390916 -0.677799
endloop
endfacet
facet normal 0.268983 0.617648 0.739026
outer loop
vertex -0.119514 0.390916 -0.677799
vertex -0.344128 0.390916 -0.596046
vertex -0.274758 0.216942 -0.475894
endloop
endfacet
facet normal 0.268983 0.617648 0.739025
outer loop
vertex -0.119514 0.390916 -0.677799
vertex -0.274758 0.216942 -0.475894
vertex -0.095422 0.216942 -0.541167
endloop
endfacet
facet normal 0.333694 0.219304 0.916817
outer loop
vertex -0.095422 0.216942 -0.541167
vertex -0.274758 0.216942 -0.475894
vertex -0.250000 0.000000 -0.433013
endloop
endfacet
facet normal 0.333694 0.219304 0.916817
outer loop
vertex -0.095422 0.216942 -0.541167
vertex -0.250000 0.000000 -0.433013
vertex -0.086824 0.000000 -0.492404
endloop
endfacet
facet normal 0.333694 -0.219304 0.916817
outer loop
vertex -0.086824 0.000000 -0.492404
vertex -0.250000 0.000000 -0.433013
vertex -0.274758 -0.216942 -0.475894
endloop
endfacet
facet normal 0.333694 -0.219304 0.916817
outer loop
vertex -0.086824 0.000000 -0.492404
vertex -0.274758 -0.216942 -0.475894
vertex -0.095422 -0.216942 -0.541167
endloop
endfacet
facet normal 0.268983 -0.617648 0.739026
outer loop
vertex -0.095422 -0.216942 -0.541167
vertex -0.274758 -0.216942 -0.475894
vertex -0.344128 -0.390916 -0.596046
endloop
endfacet
facet normal 0.268983 -0.617648 0.739026
outer loop
vertex -0.095422 -0.216942 -0.541167
vertex -0.344128 -0.390916 -0.596046
vertex -0.119514 -0.390916 -0.677799
endloop
endfacet
facet normal 0.150247 -0.898344 0.412800
outer loop
vertex -0.119514 -0.390916 -0.677799
vertex -0.344128 -0.390916 -0.596046
vertex -0.444370 -0.487464 -0.769671
endloop
endfacet
facet normal 0.150247 -0.898344 0.412801
outer loop
vertex -0.119514 -0.390916 -0.677799
vertex -0.444370 -0.487464 -0.769671
vertex -0.154328 -0.487464 -0.875238
endloop
endfacet
facet normal 0.000000 -1.000000 0.000000
outer loop
vertex -0.154328 -0.487464 -0.875238
vertex -0.444370 -0.487464 -0.769671
vertex -0.555630 -0.487464 -0.962380
endloop
endfacet
facet normal 0.000000 -1.000000 0.000000
outer loop
vertex -0.154328 -0.487464 -0.875238
vertex -0.555630 -0.487464 -0.962380
vertex -0.192968 -0.487464 -1.094378
endloop
endfacet
facet normal -0.150247 -0.898344 -0.412801
outer loop
vertex -0.192968 -0.487464 -1.094378
vertex -0.555630 -0.487464 -0.962380
vertex -0.655872 -0.390916 -1.136004
endloop
endfacet
facet normal -0.150247 -0.898344 -0.412801
outer loop
vertex -0.192968 -0.487464 -1.094378
vertex -0.655872 -0.390916 -1.136004
vertex -0.227782 -0.390916 -1.291817
endloop
endfacet
facet normal -0.268984 -0.617648 -0.739025
outer loop
vertex -0.227782 -0.390916 -1.291817
vertex -0.655872 -0.390916 -1.136004
vertex -0.725242 -0.216942 -1.256156
endloop
endfacet
facet normal -0.268983 -0.617648 -0.739026
outer loop
vertex -0.227782 -0.390916 -1.291817
vertex -0.725242 -0.216942 -1.256156
vertex -0.251874 -0.216942 -1.428448
endloop
endfacet
facet normal -0.333694 -0.219304 -0.916817
outer loop
vertex -0.251874 -0.216942 -1.428448
vertex -0.725242 -0.216942 -1.256156
vertex -0.750000 0.000000 -1.299038
endloop
endfacet
facet normal -0.333694 -0.219304 -0.916817
outer loop
vertex -0.251874 -0.216942 -1.428448
vertex -0.750000 0.000000 -1.299038
vertex -0.260472 0.000000 -1.477212
endloop
endfacet
facet normal -0.627140 0.219305 -0.747396
outer loop
vertex -0.750000 0.000000 -1.299038
vertex -1.149067 0.000000 -0.964182
vertex -1.111135 0.216942 -0.932353
endloop
endfacet
facet normal -0.627140 0.219304 -0.747396
outer loop
vertex -0.750000 0.000000 -1.299038
vertex -1.111135 0.216942 -0.932353
vertex -0.725242 0.216942 -1.256156
endloop
endfacet
facet normal -0.505523 0.617648 -0.602459
outer loop
vertex -0.725242 0.216942 -1.256156
vertex -1.111135 0.216942 -0.932353
vertex -1.004855 0.390916 -0.843174
endloop
endfacet
facet normal -0.505523 0.617648 -0.602459
outer loop
vertex -0.725242 0.216942 -1.256156
vertex -1.004855 0.390916 -0.843174
vertex -0.655872 0.390916 -1.136004
endloop
endfacet
facet normal -0.282372 0.898344 -0.336518
outer loop
vertex -0.655872 0.390916 -1.136004
vertex -1.004855 0.390916 -0.843174
vertex -0.851275 0.487464 -0.714305
endloop
endfacet
facet normal -0.282372 0.898344 -0.336518
outer loop
vertex -0.655872 0.390916 -1.136004
vertex -0.851275 0.487464 -0.714305
vertex -0.555630 0.487464 -0.962380
endloop
endfacet
facet normal 0.000000 1.000000 0.000000
outer loop
vertex -0.555630 0.487464 -0.962380
vertex -0.851275 0.487464 -0.714305
vertex -0.680814 0.487464 -0.571271
endloop
endfacet
facet normal 0.000000 1.000000 0.000000
outer loop
vertex -0.555630 0.487464 -0.962380
vertex -0.680814 0.487464 -0.571271
vertex -0.444370 0.487464 -0.769671
endloop
endfacet
facet normal 0.282372 0.898344 0.336518
outer loop
vertex -0.444370 0.487464 -0.769671
vertex -0.680814 0.487464 -0.571271
vertex -0.527234 0.390916 -0.442402
endloop
endfacet
facet normal 0.282372 0.898344 0.336518
outer loop
vertex -0.444370 0.487464 -0.769671
vertex -0.527234 0.390916 -0.442402
vertex -0.344128 0.390916 -0.596046
endloop
endfacet
facet normal 0.505523 0.617648 0.602459
outer loop
vertex -0.344128 0.390916 -0.596046
vertex -0.527234 0.390916 -0.442402
vertex -0.420953 0.216942 -0.353222
endloop
endfacet
facet normal 0.505523 0.617648 0.602459
outer loop
vertex -0.344128 0.390916 -0.596046
vertex -0.420953 0.216942 -0.353222
vertex -0.274758 0.216942 -0.475894
endloop
endfacet
facet normal 0.627140 0.219304 0.747396
outer loop
vertex -0.274758 0.216942 -0.475894
vertex -0.420953 0.216942 -0.353222
vertex -0.383022 0.000000 -0.321394
endloop
endfacet
facet normal 0.627140 0.219304 0.747396
outer loop
vertex -0.274758 0.216942 -0.475894
vertex -0.383022 0.000000 -0.321394
vertex -0.250000 0.000000 -0.433013
endloop
endfacet
facet normal 0.627140 -0.219304 0.747396
outer loop
vertex -0.250000 0.000000 -0.433013
vertex -0.383022 0.000000 -0.321394
vertex -0.420953 -0.216942 -0.353222
endloop
endfacet
facet normal 0.627140 -0.219304 0.747396
outer loop
vertex -0.250000 0.000000 -0.433013
vertex -0.420953 -0.216942 -0.353222
vertex -0.274758 -0.216942 -0.475894
endloop
endfacet
facet normal 0.505523 -0.617648 0.602459
outer loop
vertex -0.274758 -0.216942 -0.475894
vertex -0.420953 -0.216942 -0.353222
vertex -0.527234 -0.390916 -0.442402
endloop
endfacet
facet normal 0.505523 -0.617648 0.602459
outer loop
vertex -0.274758 -0.216942 -0.475894
vertex -0.527234 -0.390916 -0.442402
vertex -0.344128 -0.390916 -0.596046
endloop
endfacet
facet normal 0.282372 -0.898344 0.336518
outer loop
vertex -0.344128 -0.390916 -0.596046
vertex -0.527234 -0.390916 -0.442402
vertex -0.680814 -0.487464 -0.571271
endloop
endfacet
facet normal 0.282372 -0.898344 0.336518
outer loop
vertex -0.344128 -0.390916 -0.596046
vertex -0.680814 -0.487464 -0.571271
vertex -0.444370 -0.487464 -0.769671
endloop
endfacet
facet normal 0.000000 -1.000000 0.000000
outer loop
vertex -0.444370 -0.487464 -0.769671
vertex -0.680814 -0.487464 -0.571271
vertex -0.851275 -0.487464 -0.714305
endloop
endfacet
facet normal 0.000000 -1.000000 0.000000
outer loop
vertex -0.444370 -0.487464 -0.769671
vertex -0.851275 -0.487464 -0.714305
vertex -0.555630 -0.487464 -0.962380
endloop
endfacet
facet normal -0.282372 -0.898344 -0.336518
outer loop
vertex -0.555630 -0.487464 -0.962380
vertex -0.851275 -0.487464 -0.714305
vertex -1.004855 -0.390916 -0.843174
endloop
endfacet
facet normal -0.282372 -0.898344 -0.336518
outer loop
vertex -0.555630 -0.487464 -0.962380
vertex -1.004855 -0.390916 -0.843174
vertex -0.655872 -0.390916 -1.136004
endloop
endfacet
facet normal -0.505523 -0.617648 -0.602459
outer loop
vertex -0.655872 -0.390916 -1.136004
vertex -1.004855 -0.390916 -0.843174
vertex -1.111135 -0.216942 -0.932353
endloop
endfacet
facet normal -0.505523 -0.617648 -0.602459
outer loop
vertex -0.655872 -0.390916 -1.136004
vertex -1.111135 -0.216942 -0.932353
vertex -0.725242 -0.216942 -1.256156
endloop
endfacet
facet normal -0.627140 -0.219305 -0.747396
outer loop
vertex -0.725242 -0.216942 -1.256156
vertex -1.111135 -0.216942 -0.932353
vertex -1.149067 0.000000 -0.964182
endloop
endfacet
facet normal -0.627140 -0.219304 -0.747396
outer loop
vertex -0.725242 -0.216942 -1.256156
vertex -1.149067 0.000000 -0.964182
vertex -0.750000 0.000000 -1.299038
endloop
endfacet
facet normal -0.844943 0.219305 -0.487828
outer loop
vertex -1.149067 0.000000 -0.964182
vertex -1.409539 0.000000 -0.513030
vertex -1.363009 0.216942 -0.496095
endloop
endfacet
facet normal -0.844943 0.219305 -0.487828
outer loop
vertex -1.149067 0.000000 -0.964182
vertex -1.363009 0.216942 -0.496095
vertex -1.111135 0.216942 -0.932353
endloop
endfacet
facet normal -0.681090 0.617647 -0.393228
outer loop
vertex -1.111135 0.216942 -0.932353
vertex -1.363009 0.216942 -0.496095
vertex -1.232637 0.390916 -0.448643
endloop
endfacet
facet normal -0.681089 0.617649 -0.393227
outer loop
vertex -1.111135 0.216942 -0.932353
vertex -1.232637 0.390916 -0.448643
vertex -1.004855 0.390916 -0.843174
endloop
endfacet
facet normal -0.380439 0.898344 -0.219647
outer loop
vertex -1.004855 0.390916 -0.843174
vertex -1.232637 0.390916 -0.448643
vertex -1.044243 0.487464 -0.380074
endloop
endfacet
facet normal -0.380439 0.898344 -0.219646
outer loop
vertex -1.004855 0.390916 -0.843174
vertex -1.044243 0.487464 -0.380074
vertex -0.851275 0.487464 -0.714305
endloop
endfacet
facet normal 0.000000 1.000000 -0.000000
outer loop
vertex -0.851275 0.487464 -0.714305
vertex -1.044243 0.487464 -0.380074
vertex -0.835142 0.487464 -0.303967
endloop
endfacet
facet normal 0.000000 1.000000 0.000000
outer loop
vertex -0.851275 0.487464 -0.714305
vertex -0.835142 0.487464 -0.303967
vertex -0.680814 0.487464 -0.571271
endloop
endfacet
facet normal 0.380439 0.898344 0.219647
outer loop
vertex -0.680814 0.487464 -0.571271
vertex -0.835142 0.487464 -0.303967
vertex -0.646748 0.390916 -0.235397
endloop
endfacet
facet normal 0.380439 0.898344 0.219647
outer loop
vertex -0.680814 0.487464 -0.571271
vertex -0.646748 0.390916 -0.235397
vertex -0.527234 0.390916 -0.442402
endloop
endfacet
facet normal 0.681089 0.617648 0.393227
outer loop
vertex -0.527234 0.390916 -0.442402
vertex -0.646748 0.390916 -0.235397
vertex -0.516376 0.216942 -0.187945
endloop
endfacet
facet normal 0.681090 0.617648 0.393227
outer loop
vertex -0.527234 0.390916 -0.442402
vertex -0.516376 0.216942 -0.187945
vertex -0.420953 0.216942 -0.353222
endloop
endfacet
facet normal 0.844943 0.219304 0.487828
outer loop
vertex -0.420953 0.216942 -0.353222
vertex -0.516376 0.216942 -0.187945
vertex -0.469846 0.000000 -0.171010
endloop
endfacet
facet normal 0.844943 0.219304 0.487828
outer loop
vertex -0.420953 0.216942 -0.353222
vertex -0.469846 0.000000 -0.171010
vertex -0.383022 0.000000 -0.321394
endloop
endfacet
facet normal 0.844943 -0.219304 0.487828
outer loop
vertex -0.383022 0.000000 -0.321394
vertex -0.469846 0.000000 -0.171010
vertex -0.516376 -0.216942 -0.187945
endloop
endfacet
facet normal 0.844943 -0.219304 0.487828
outer loop
vertex -0.383022 0.000000 -0.321394
vertex -0.516376 -0.216942 -0.187945
vertex -0.420953 -0.216942 -0.353222
endloop
endfacet
facet normal 0.681089 -0.617648 0.393227
outer loop
vertex -0.420953 -0.216942 -0.353222
vertex -0.516376 -0.216942 -0.187945
vertex -0.646748 -0.390916 -0.235397
endloop
endfacet
facet normal 0.681089 -0.617648 0.393227
outer loop
vertex -0.420953 -0.216942 -0.353222
vertex -0.646748 -0.390916 -0.235397
vertex -0.527234 -0.390916 -0.442402
endloop
endfacet
facet normal 0.380439 -0.898344 0.219646
outer loop
vertex -0.527234 -0.390916 -0.442402
vertex -0.646748 -0.390916 -0.235397
vertex -0.835142 -0.487464 -0.303967
endloop
endfacet
facet normal 0.380439 -0.898344 0.219647
outer loop
vertex -0.527234 -0.390916 -0.442402
vertex -0.835142 -0.487464 -0.303967
vertex -0.680814 -0.487464 -0.571271
endloop
endfacet
facet normal 0.000000 -1.000000 -0.000000
outer loop
vertex -0.680814 -0.487464 -0.571271
vertex -0.835142 -0.487464 -0.303967
vertex -1.044243 -0.487464 -0.380074
endloop
endfacet
facet normal 0.000000 -1.000000 0.000000
outer loop
vertex -0.680814 -0.487464 -0.571271
vertex -1.044243 -0.487464 -0.380074
vertex -0.851275 -0.487464 -0.714305
endloop
endfacet
facet normal -0.380439 -0.898344 -0.219647
outer loop
vertex -0.851275 -0.487464 -0.714305
vertex -1.044243 -0.487464 -0.380074
vertex -1.232637 -0.390916 -0.448643
endloop
endfacet
facet normal -0.380439 -0.898344 -0.219647
outer loop
vertex -0.851275 -0.487464 -0.714305
vertex -1.232637 -0.390916 -0.448643
vertex -1.004855 -0.390916 -0.843174
endloop
endfacet
facet normal -0.681090 -0.617648 -0.393227
outer loop
vertex -1.004855 -0.390916 -0.843174
vertex -1.232637 -0.390916 -0.448643
vertex -1.363009 -0.216942 -0.496095
endloop
endfacet
facet normal -0.681090 -0.617648 -0.393227
outer loop
vertex -1.004855 -0.390916 -0.843174
vertex -1.363009 -0.216942 -0.496095
vertex -1.111135 -0.216942 -0.932353
endloop
endfacet
facet normal -0.844943 -0.219305 -0.487828
outer loop
vertex -1.111135 -0.216942 -0.932353
vertex -1.363009 -0.216942 -0.496095
vertex -1.409539 0.000000 -0.513030
endloop
endfacet
facet normal -0.844943 -0.219305 -0.487828
outer loop
vertex -1.111135 -0.216942 -0.932353
vertex -1.409539 0.000000 -0.513030
vertex -1.149067 0.000000 -0.964182
endloop
endfacet
facet normal -0.960834 0.219303 -0.169421
outer loop
vertex -1.409539 0.000000 -0.513030
vertex -1.500000 0.000000 0.000000
vertex -1.450484 0.216942 0.000000
endloop
endfacet
facet normal -0.960834 0.219305 -0.169421
outer loop
vertex -1.409539 0.000000 -0.513030
vertex -1.450484 0.216942 0.000000
vertex -1.363009 0.216942 -0.496095
endloop
endfacet
facet normal -0.774506 0.617649 -0.136566
outer loop
vertex -1.363009 0.216942 -0.496095
vertex -1.450484 0.216942 0.000000
vertex -1.311745 0.390916 0.000000
endloop
endfacet
facet normal -0.774507 0.617647 -0.136567
outer loop
vertex -1.363009 0.216942 -0.496095
vertex -1.311745 0.390916 0.000000
vertex -1.232637 0.390916 -0.448643
endloop
endfacet
facet normal -0.432619 0.898344 -0.076282
outer loop
vertex -1.232637 0.390916 -0.448643
vertex -1.311745 0.390916 0.000000
vertex -1.111260 0.487464 0.000000
endloop
endfacet
facet normal -0.432619 0.898344 -0.076283
outer loop
vertex -1.232637 0.390916 -0.448643
vertex -1.111260 0.487464 0.000000
vertex -1.044243 0.487464 -0.380074
endloop
endfacet
facet normal 0.000000 1.000000 0.000000
outer loop
vertex -1.044243 0.487464 -0.380074
vertex -1.111260 0.487464 0.000000
vertex -0.888740 0.487464 0.000000
endloop
endfacet
facet normal 0.000000 1.000000 0.000000
outer loop
vertex -1.044243 0.487464 -0.380074
vertex -0.888740 0.487464 0.000000
vertex -0.835142 0.487464 -0.303967
endloop
endfacet
facet normal 0.432619 0.898344 0.076283
outer loop
vertex -0.835142 0.487464 -0.303967
vertex -0.888740 0.487464 0.000000
vertex -0.688255 0.390916 0.000000
endloop
endfacet
facet normal 0.432620 0.898344 0.076283
outer loop
vertex -0.835142 0.487464 -0.303967
vertex -0.688255 0.390916 0.000000
vertex -0.646748 0.390916 -0.235397
endloop
endfacet
facet normal 0.774506 0.617648 0.136566
outer loop
vertex -0.646748 0.390916 -0.235397
vertex -0.688255 0.390916 0.000000
vertex -0.549516 0.216942 0.000000
endloop
endfacet
facet normal 0.774507 0.617648 0.136567
outer loop
vertex -0.646748 0.390916 -0.235397
vertex -0.549516 0.216942 0.000000
vertex -0.516376 0.216942 -0.187945
endloop
endfacet
facet normal 0.960834 0.219304 0.169421
outer loop
vertex -0.516376 0.216942 -0.187945
vertex -0.549516 0.216942 0.000000
vertex -0.500000 0.000000 0.000000
endloop
endfacet
facet normal 0.960834 0.219304 0.169421
outer loop
vertex -0.516376 0.216942 -0.187945
vertex -0.500000 0.000000 0.000000
vertex -0.469846 0.000000 -0.171010
endloop
endfacet
facet normal 0.960834 -0.219304 0.169421
outer loop
vertex -0.469846 0.000000 -0.171010
vertex -0.500000 0.000000 0.000000
vertex -0.549516 -0.216942 0.000000
endloop
endfacet
facet normal 0.960834 -0.219304 0.169421
outer loop
vertex -0.469846 0.000000 -0.171010
vertex -0.549516 -0.216942 0.000000
vertex -0.516376 -0.216942 -0.187945
endloop
endfacet
facet normal 0.774507 -0.617648 0.136567
outer loop
vertex -0.516376 -0.216942 -0.187945
vertex -0.549516 -0.216942 0.000000
vertex -0.688255 -0.390916 0.000000
endloop
endfacet
facet normal 0.774506 -0.617648 0.136566
outer loop
vertex -0.516376 -0.216942 -0.187945
vertex -0.688255 -0.390916 0.000000
vertex -0.646748 -0.390916 -0.235397
endloop
endfacet
facet normal 0.432620 -0.898344 0.076282
outer loop
vertex -0.646748 -0.390916 -0.235397
vertex -0.688255 -0.390916 0.000000
vertex -0.888740 -0.487464 0.000000
endloop
endfacet
facet normal 0.432619 -0.898344 0.076282
outer loop
vertex -0.646748 -0.390916 -0.235397
vertex -0.888740 -0.487464 0.000000
vertex -0.835142 -0.487464 -0.303967
endloop
endfacet
facet normal 0.000000 -1.000000 0.000000
outer loop
vertex -0.835142 -0.487464 -0.303967
vertex -0.888740 -0.487464 0.000000
vertex -1.111260 -0.487464 0.000000
endloop
endfacet
facet normal 0.000000 -1.000000 0.000000
outer loop
vertex -0.835142 -0.487464 -0.303967
vertex -1.111260 -0.487464 0.000000
vertex -1.044243 -0.487464 -0.380074
endloop
endfacet
facet normal -0.432619 -0.898344 -0.076283
outer loop
vertex -1.044243 -0.487464 -0.380074
vertex -1.111260 -0.487464 0.000000
vertex -1.311745 -0.390916 0.000000
endloop
endfacet
facet normal -0.432619 -0.898344 -0.076283
outer loop
vertex -1.044243 -0.487464 -0.380074
vertex -1.311745 -0.390916 0.000000
vertex -1.232637 -0.390916 -0.448643
endloop
endfacet
facet normal -0.774507 -0.617647 -0.136567
outer loop
vertex -1.232637 -0.390916 -0.448643
vertex -1.311745 -0.390916 0.000000
vertex -1.450484 -0.216942 0.000000
endloop
endfacet
facet normal -0.774506 -0.617649 -0.136567
outer loop
vertex -1.232637 -0.390916 -0.448643
vertex -1.450484 -0.216942 0.000000
vertex -1.363009 -0.216942 -0.496095
endloop
endfacet
facet normal -0.960834 -0.219305 -0.169421
outer loop
vertex -1.363009 -0.216942 -0.496095
vertex -1.450484 -0.216942 0.000000
vertex -1.500000 0.000000 0.000000
endloop
endfacet
facet normal -0.960834 -0.219303 -0.169421
outer loop
vertex -1.363009 -0.216942 -0.496095
vertex -1.500000 0.000000 0.000000
vertex -1.409539 0.000000 -0.513030
endloop
endfacet
endsolid Exported from Blender-2.80 (sub 75)
