ply
format ascii 1.0
comment Created by Blender 2.80 (sub 75) - www.blender.org, source file: ''
element vertex 167
property float x
property float y
property float z
property float nx
property float ny
property float nz
property float s
property float t
element face 264
property list uchar uint vertex_indices
end_header
0.000000 0.258819 -0.965926 0.000000 0.253578 -0.967284 0.750000 0.583333
0.000000 0.500000 -0.866025 0.000000 0.490860 -0.871212 0.750000 0.666667
0.433013 0.500000 -0.750000 0.435591 0.490860 -0.754479 0.666667 0.666667
0.482963 0.258819 -0.836516 0.483627 0.253578 -0.837703 0.666667 0.583333
0.000000 -1.000000 -0.000000 0.000000 -1.000000 0.000000 0.708333 0.000000
0.000000 -0.965926 -0.258819 0.000000 -0.960326 -0.278848 0.750000 0.083333
0.129409 -0.965926 -0.224144 0.139409 -0.960326 -0.241493 0.666667 0.083333
0.000000 0.866025 -0.500000 0.000000 0.856624 -0.515915 0.750000 0.833333
0.000000 0.965926 -0.258819 0.000000 0.960326 -0.278848 0.750000 0.916667
0.129409 0.965926 -0.224144 0.139409 0.960326 -0.241493 0.666667 0.916667
0.250000 0.866025 -0.433013 0.257942 0.856624 -0.446791 0.666667 0.833333
0.000000 -0.707107 -0.707107 0.000000 -0.696432 -0.717582 0.750000 0.250000
0.000000 -0.500000 -0.866026 0.000000 -0.490860 -0.871212 0.750000 0.333333
0.433013 -0.500000 -0.750000 0.435591 -0.490860 -0.754479 0.666667 0.333333
0.353553 -0.707107 -0.612373 0.358776 -0.696432 -0.621448 0.666667 0.250000
0.000000 0.000000 -1.000000 0.000000 0.000000 -0.999969 0.750000 0.500000
0.500000 0.000000 -0.866025 0.499985 0.000000 -0.866024 0.666667 0.500000
0.000000 0.707107 -0.707107 0.000000 0.696432 -0.717582 0.750000 0.750000
0.353553 0.707107 -0.612372 0.358776 0.696432 -0.621448 0.666667 0.750000
0.000000 -0.866025 -0.500000 0.000000 -0.856624 -0.515915 0.750000 0.166667
0.250000 -0.866025 -0.433013 0.257942 -0.856624 -0.446791 0.666667 0.166667
0.000000 -0.258819 -0.965926 0.000000 -0.253578 -0.967284 0.750000 0.416667
0.482963 -0.258819 -0.836516 0.483627 -0.253578 -0.837703 0.666667 0.416667
-0.000000 1.000000 -0.000000 0.000000 0.999969 0.000000 0.708333 1.000000
0.433012 0.866025 -0.250000 0.446791 0.856624 -0.257942 0.583333 0.833333
0.612372 0.707107 -0.353554 0.621448 0.696432 -0.358776 0.583333 0.750000
0.612372 -0.707107 -0.353554 0.621448 -0.696432 -0.358776 0.583333 0.250000
0.433013 -0.866025 -0.250000 0.446791 -0.856624 -0.257942 0.583333 0.166667
0.866025 0.000000 -0.500000 0.866024 0.000000 -0.499985 0.583333 0.500000
0.836516 -0.258819 -0.482963 0.837703 -0.253578 -0.483627 0.583333 0.416667
0.750000 0.500000 -0.433013 0.754479 0.490860 -0.435591 0.583333 0.666667
0.224144 -0.965926 -0.129410 0.241493 -0.960326 -0.139409 0.583334 0.083333
-0.000000 1.000000 -0.000000 0.000000 0.999969 0.000000 0.625000 1.000000
0.224144 0.965926 -0.129410 0.241493 0.960326 -0.139409 0.583334 0.916667
0.750000 -0.500000 -0.433013 0.754479 -0.490860 -0.435591 0.583333 0.333333
0.836516 0.258819 -0.482963 0.837703 0.253578 -0.483627 0.583333 0.583333
0.000000 -1.000000 -0.000000 0.000000 -1.000000 0.000000 0.625000 0.000000
0.000000 -1.000000 -0.000000 0.000000 -1.000000 0.000000 0.541667 0.000000
0.258819 -0.965926 -0.000000 0.278848 -0.960326 0.000000 0.500000 0.083333
0.258819 0.965926 -0.000000 0.278848 0.960326 0.000000 0.500000 0.916667
0.500000 0.866025 -0.000000 0.515915 0.856624 0.000000 0.500000 0.833333
0.866025 -0.500000 -0.000000 0.871212 -0.490860 0.000000 0.500000 0.333333
0.707107 -0.707107 -0.000000 0.717582 -0.696432 0.000000 0.500000 0.250000
0.965925 0.258819 -0.000000 0.967284 0.253578 0.000000 0.500000 0.583333
1.000000 0.000000 -0.000000 1.000000 0.000000 0.000000 0.500000 0.500000
0.707106 0.707107 -0.000000 0.717582 0.696432 0.000000 0.500000 0.750000
0.500000 -0.866025 -0.000000 0.515915 -0.856624 0.000000 0.500000 0.166667
0.965926 -0.258819 -0.000000 0.967284 -0.253578 0.000000 0.500000 0.416667
0.866025 0.500000 -0.000000 0.871212 0.490860 0.000000 0.500000 0.666667
-0.000000 1.000000 -0.000000 0.000000 0.999969 0.000000 0.541667 1.000000
0.612372 0.707107 0.353553 0.621448 0.696432 0.358776 0.416667 0.750000
0.750000 0.500000 0.433012 0.754479 0.490860 0.435591 0.416667 0.666667
0.433012 -0.866025 0.250000 0.446791 -0.856624 0.257942 0.416667 0.166667
0.224144 -0.965926 0.129409 0.241493 -0.960326 0.139409 0.416667 0.083333
-0.000000 1.000000 -0.000000 0.000000 0.999969 0.000000 0.458334 1.000000
0.224144 0.965926 0.129409 0.241493 0.960326 0.139409 0.416667 0.916667
0.836516 -0.258819 0.482962 0.837703 -0.253578 0.483627 0.416667 0.416667
0.750000 -0.500000 0.433012 0.754479 -0.490860 0.435591 0.416667 0.333333
0.836516 0.258819 0.482962 0.837703 0.253578 0.483627 0.416667 0.583333
0.000000 -1.000000 -0.000000 0.000000 -1.000000 0.000000 0.458334 0.000000
0.433012 0.866025 0.249999 0.446791 0.856624 0.257942 0.416667 0.833333
0.612372 -0.707107 0.353553 0.621448 -0.696432 0.358776 0.416667 0.250000
0.866025 0.000000 0.499999 0.866024 0.000000 0.499985 0.416667 0.500000
0.250000 0.866025 0.433012 0.257942 0.856624 0.446791 0.333333 0.833334
0.353553 0.707107 0.612372 0.358776 0.696432 0.621448 0.333333 0.750000
0.353553 -0.707107 0.612372 0.358776 -0.696432 0.621448 0.333333 0.250000
0.250000 -0.866025 0.433012 0.257942 -0.856624 0.446791 0.333333 0.166667
0.500000 0.000000 0.866025 0.499985 0.000000 0.866024 0.333333 0.500000
0.482963 -0.258819 0.836516 0.483627 -0.253578 0.837703 0.333333 0.416667
0.433012 0.500000 0.749999 0.435591 0.490860 0.754479 0.333333 0.666667
0.129409 -0.965926 0.224143 0.139409 -0.960326 0.241493 0.333333 0.083333
-0.000000 1.000000 -0.000000 0.000000 0.999969 0.000000 0.375000 1.000000
0.129409 0.965926 0.224143 0.139409 0.960326 0.241493 0.333333 0.916667
0.433013 -0.500000 0.749999 0.435591 -0.490860 0.754479 0.333333 0.333333
0.482963 0.258819 0.836516 0.483627 0.253578 0.837703 0.333333 0.583333
0.000000 -1.000000 -0.000000 0.000000 -1.000000 0.000000 0.375000 0.000000
-0.000000 0.500000 0.866025 0.000000 0.490860 0.871212 0.250000 0.666667
-0.000000 0.258819 0.965925 0.000000 0.253578 0.967284 0.250000 0.583333
0.000000 -1.000000 -0.000000 0.000000 -1.000000 0.000000 0.291667 0.000000
0.000000 -0.965926 0.258819 0.000000 -0.960326 0.278848 0.250000 0.083333
0.000000 0.965926 0.258818 0.000000 0.960326 0.278848 0.250000 0.916667
-0.000000 0.866025 0.499999 0.000000 0.856624 0.515915 0.250000 0.833334
-0.000000 -0.500000 0.866025 0.000000 -0.490860 0.871212 0.250000 0.333333
-0.000000 -0.707107 0.707106 0.000000 -0.696432 0.717582 0.250000 0.250000
-0.000000 0.000000 0.999999 0.000000 0.000000 0.999969 0.250000 0.500000
-0.000000 0.707107 0.707106 0.000000 0.696432 0.717582 0.250000 0.750000
-0.000000 -0.866025 0.499999 0.000000 -0.856624 0.515915 0.250000 0.166666
-0.000000 -0.258819 0.965925 0.000000 -0.253578 0.967284 0.250000 0.416667
-0.000000 1.000000 -0.000000 0.000000 0.999969 0.000000 0.291667 1.000000
-0.353553 0.707107 0.612372 -0.358776 0.696432 0.621448 0.166667 0.750000
-0.433012 0.500000 0.749999 -0.435591 0.490860 0.754479 0.166667 0.666667
-0.250000 -0.866025 0.433012 -0.257942 -0.856624 0.446791 0.166667 0.166667
-0.129409 -0.965926 0.224143 -0.139409 -0.960326 0.241493 0.166667 0.083333
-0.000000 1.000000 -0.000000 0.000000 0.999969 0.000000 0.208333 1.000000
-0.129409 0.965926 0.224143 -0.139409 0.960326 0.241493 0.166667 0.916667
-0.482963 -0.258819 0.836516 -0.483627 -0.253578 0.837703 0.166667 0.416667
-0.433013 -0.500000 0.749999 -0.435591 -0.490860 0.754479 0.166667 0.333333
-0.482963 0.258819 0.836516 -0.483627 0.253578 0.837703 0.166667 0.583333
0.000000 -1.000000 -0.000000 0.000000 -1.000000 0.000000 0.208333 0.000000
-0.250000 0.866025 0.433012 -0.257942 0.856624 0.446791 0.166667 0.833334
-0.353553 -0.707107 0.612372 -0.358776 -0.696432 0.621448 0.166667 0.250000
-0.500000 0.000000 0.866025 -0.499985 0.000000 0.866024 0.166667 0.500000
-0.836516 0.258819 0.482962 -0.837703 0.253578 0.483627 0.083333 0.583333
-0.866025 0.000000 0.499999 -0.866024 0.000000 0.499985 0.083333 0.500000
-0.433012 0.866025 0.249999 -0.446791 0.856624 0.257942 0.083333 0.833333
-0.612372 0.707107 0.353553 -0.621448 0.696432 0.358776 0.083333 0.750000
-0.612372 -0.707107 0.353553 -0.621448 -0.696432 0.358776 0.083333 0.250000
-0.433013 -0.866025 0.249999 -0.446791 -0.856624 0.257942 0.083333 0.166667
-0.836516 -0.258819 0.482962 -0.837703 -0.253578 0.483627 0.083333 0.416667
-0.750000 0.500000 0.433012 -0.754479 0.490860 0.435591 0.083333 0.666667
-0.224144 -0.965926 0.129409 -0.241493 -0.960326 0.139409 0.083333 0.083333
-0.000000 1.000000 -0.000000 0.000000 0.999969 0.000000 0.125000 1.000000
-0.224143 0.965926 0.129409 -0.241493 0.960326 0.139409 0.083333 0.916667
-0.750000 -0.500000 0.433012 -0.754479 -0.490860 0.435591 0.083333 0.333333
0.000000 -1.000000 -0.000000 0.000000 -1.000000 0.000000 0.125000 0.000000
-0.866025 0.500000 -0.000000 -0.871212 0.490860 0.000000 0.000000 0.666667
-0.965925 0.258819 -0.000000 -0.967284 0.253578 0.000000 0.000000 0.583333
0.000000 -1.000000 -0.000000 0.000000 -1.000000 0.000000 0.041666 0.000000
-0.258819 -0.965926 -0.000000 -0.278848 -0.960326 0.000000 0.000000 0.083333
-0.258819 0.965926 -0.000000 -0.278848 0.960326 0.000000 0.000000 0.916667
-0.499999 0.866025 -0.000000 -0.515915 0.856624 0.000000 0.000000 0.833333
-0.866025 -0.500000 -0.000000 -0.871212 -0.490860 0.000000 0.000000 0.333333
-0.707107 -0.707107 -0.000000 -0.717582 -0.696432 0.000000 0.000000 0.250000
-0.999999 0.000000 -0.000001 -1.000000 0.000000 0.000000 0.000000 0.500000
-0.707106 0.707107 -0.000001 -0.717582 0.696432 0.000000 0.000000 0.750000
-0.500000 -0.866025 -0.000000 -0.515915 -0.856624 0.000000 0.000000 0.166667
-0.965925 -0.258819 -0.000000 -0.967284 -0.253578 0.000000 0.000000 0.416667
-0.000000 1.000000 -0.000000 0.000000 0.999969 0.000000 0.041666 1.000000
-0.965925 -0.258819 -0.000000 -0.967284 -0.253578 0.000000 1.000000 0.416667
-0.999999 0.000000 -0.000001 -1.000000 0.000000 0.000000 1.000000 0.500000
-0.866025 0.000000 -0.500000 -0.866024 0.000000 -0.499985 0.916667 0.500000
-0.836516 -0.258819 -0.482963 -0.837703 -0.253578 -0.483627 0.916667 0.416667
-0.866025 0.500000 -0.000000 -0.871212 0.490860 0.000000 1.000000 0.666667
-0.707106 0.707107 -0.000001 -0.717582 0.696432 0.000000 1.000000 0.750000
-0.612372 0.707107 -0.353554 -0.621448 0.696432 -0.358776 0.916667 0.750000
-0.749999 0.500000 -0.433013 -0.754479 0.490860 -0.435591 0.916667 0.666667
-0.258819 -0.965926 -0.000000 -0.278848 -0.960326 0.000000 1.000000 0.083333
-0.500000 -0.866025 -0.000000 -0.515915 -0.856624 0.000000 1.000000 0.166667
-0.433012 -0.866025 -0.250000 -0.446791 -0.856624 -0.257942 0.916667 0.166667
-0.224144 -0.965926 -0.129410 -0.241493 -0.960326 -0.139409 0.916666 0.083333
-0.258819 0.965926 -0.000000 -0.278848 0.960326 0.000000 1.000000 0.916667
-0.000000 1.000000 -0.000000 0.000000 0.999969 0.000000 0.958333 1.000000
-0.224143 0.965926 -0.129410 -0.241493 0.960326 -0.139409 0.916666 0.916667
-0.866025 -0.500000 -0.000000 -0.871212 -0.490860 0.000000 1.000000 0.333333
-0.750000 -0.500000 -0.433013 -0.754479 -0.490860 -0.435591 0.916667 0.333333
-0.965925 0.258819 -0.000000 -0.967284 0.253578 0.000000 1.000000 0.583333
-0.836516 0.258819 -0.482963 -0.837703 0.253578 -0.483627 0.916667 0.583333
0.000000 -1.000000 -0.000000 0.000000 -1.000000 0.000000 0.958333 0.000000
-0.499999 0.866025 -0.000000 -0.515915 0.856624 0.000000 1.000000 0.833333
-0.433012 0.866025 -0.250000 -0.446791 0.856624 -0.257942 0.916667 0.833333
-0.707107 -0.707107 -0.000000 -0.717582 -0.696432 0.000000 1.000000 0.250000
-0.612372 -0.707107 -0.353554 -0.621448 -0.696432 -0.358776 0.916667 0.250000
-0.482963 0.258819 -0.836516 -0.483627 0.253578 -0.837703 0.833333 0.583333
-0.500000 0.000000 -0.866025 -0.499985 0.000000 -0.866024 0.833333 0.500000
-0.250000 0.866025 -0.433013 -0.257942 0.856624 -0.446791 0.833333 0.833333
-0.353553 0.707107 -0.612372 -0.358776 0.696432 -0.621448 0.833333 0.750000
-0.353553 -0.707107 -0.612373 -0.358776 -0.696432 -0.621448 0.833333 0.250000
-0.250000 -0.866025 -0.433013 -0.257942 -0.856624 -0.446791 0.833333 0.166667
-0.482963 -0.258819 -0.836516 -0.483627 -0.253578 -0.837703 0.833333 0.416667
-0.433012 0.500000 -0.750000 -0.435591 0.490860 -0.754479 0.833333 0.666667
-0.129409 -0.965926 -0.224144 -0.139409 -0.960326 -0.241493 0.833333 0.083333
-0.000000 1.000000 -0.000000 0.000000 0.999969 0.000000 0.875000 1.000000
-0.129409 0.965926 -0.224144 -0.139409 0.960326 -0.241493 0.833333 0.916667
-0.433012 -0.500000 -0.750000 -0.435591 -0.490860 -0.754479 0.833333 0.333333
0.000000 -1.000000 -0.000000 0.000000 -1.000000 0.000000 0.875000 0.000000
0.000000 -1.000000 -0.000000 0.000000 -1.000000 0.000000 0.791667 0.000000
-0.000000 1.000000 -0.000000 0.000000 0.999969 0.000000 0.791667 1.000000
3 0 1 2
3 0 2 3
3 4 5 6
3 7 8 9
3 7 9 10
3 11 12 13
3 11 13 14
3 15 0 3
3 15 3 16
3 17 7 10
3 17 10 18
3 19 11 14
3 19 14 20
3 21 15 16
3 21 16 22
3 1 17 18
3 1 18 2
3 5 19 20
3 5 20 6
3 8 23 9
3 12 21 22
3 12 22 13
3 18 10 24
3 18 24 25
3 20 14 26
3 20 26 27
3 22 16 28
3 22 28 29
3 2 18 25
3 2 25 30
3 6 20 27
3 6 27 31
3 9 32 33
3 13 22 29
3 13 29 34
3 3 2 30
3 3 30 35
3 36 6 31
3 10 9 33
3 10 33 24
3 14 13 34
3 14 34 26
3 16 3 35
3 16 35 28
3 37 31 38
3 24 33 39
3 24 39 40
3 26 34 41
3 26 41 42
3 28 35 43
3 28 43 44
3 25 24 40
3 25 40 45
3 27 26 42
3 27 42 46
3 29 28 44
3 29 44 47
3 30 25 45
3 30 45 48
3 31 27 46
3 31 46 38
3 33 49 39
3 34 29 47
3 34 47 41
3 35 30 48
3 35 48 43
3 48 45 50
3 48 50 51
3 38 46 52
3 38 52 53
3 39 54 55
3 41 47 56
3 41 56 57
3 43 48 51
3 43 51 58
3 59 38 53
3 40 39 55
3 40 55 60
3 42 41 57
3 42 57 61
3 44 43 58
3 44 58 62
3 45 40 60
3 45 60 50
3 46 42 61
3 46 61 52
3 47 44 62
3 47 62 56
3 50 60 63
3 50 63 64
3 52 61 65
3 52 65 66
3 56 62 67
3 56 67 68
3 51 50 64
3 51 64 69
3 53 52 66
3 53 66 70
3 55 71 72
3 57 56 68
3 57 68 73
3 58 51 69
3 58 69 74
3 75 53 70
3 60 55 72
3 60 72 63
3 61 57 73
3 61 73 65
3 62 58 74
3 62 74 67
3 74 69 76
3 74 76 77
3 78 70 79
3 63 72 80
3 63 80 81
3 65 73 82
3 65 82 83
3 67 74 77
3 67 77 84
3 64 63 81
3 64 81 85
3 66 65 83
3 66 83 86
3 68 67 84
3 68 84 87
3 69 64 85
3 69 85 76
3 70 66 86
3 70 86 79
3 72 88 80
3 73 68 87
3 73 87 82
3 76 85 89
3 76 89 90
3 79 86 91
3 79 91 92
3 80 93 94
3 82 87 95
3 82 95 96
3 77 76 90
3 77 90 97
3 98 79 92
3 81 80 94
3 81 94 99
3 83 82 96
3 83 96 100
3 84 77 97
3 84 97 101
3 85 81 99
3 85 99 89
3 86 83 100
3 86 100 91
3 87 84 101
3 87 101 95
3 101 97 102
3 101 102 103
3 89 99 104
3 89 104 105
3 91 100 106
3 91 106 107
3 95 101 103
3 95 103 108
3 90 89 105
3 90 105 109
3 92 91 107
3 92 107 110
3 94 111 112
3 96 95 108
3 96 108 113
3 97 90 109
3 97 109 102
3 114 92 110
3 99 94 112
3 99 112 104
3 100 96 113
3 100 113 106
3 102 109 115
3 102 115 116
3 117 110 118
3 104 112 119
3 104 119 120
3 106 113 121
3 106 121 122
3 103 102 116
3 103 116 123
3 105 104 120
3 105 120 124
3 107 106 122
3 107 122 125
3 108 103 123
3 108 123 126
3 109 105 124
3 109 124 115
3 110 107 125
3 110 125 118
3 112 127 119
3 113 108 126
3 113 126 121
3 128 129 130
3 128 130 131
3 132 133 134
3 132 134 135
3 136 137 138
3 136 138 139
3 140 141 142
3 143 128 131
3 143 131 144
3 145 132 135
3 145 135 146
3 147 136 139
3 148 140 142
3 148 142 149
3 150 143 144
3 150 144 151
3 129 145 146
3 129 146 130
3 133 148 149
3 133 149 134
3 137 150 151
3 137 151 138
3 130 146 152
3 130 152 153
3 134 149 154
3 134 154 155
3 138 151 156
3 138 156 157
3 131 130 153
3 131 153 158
3 135 134 155
3 135 155 159
3 139 138 157
3 139 157 160
3 142 161 162
3 144 131 158
3 144 158 163
3 146 135 159
3 146 159 152
3 164 139 160
3 149 142 162
3 149 162 154
3 151 144 163
3 151 163 156
3 163 158 21
3 163 21 12
3 152 159 1
3 152 1 0
3 165 160 5
3 154 162 8
3 154 8 7
3 156 163 12
3 156 12 11
3 153 152 0
3 153 0 15
3 155 154 7
3 155 7 17
3 157 156 11
3 157 11 19
3 158 153 15
3 158 15 21
3 159 155 17
3 159 17 1
3 160 157 19
3 160 19 5
3 162 166 8
