ply
format ascii 1.0
comment Created by Blender 2.80 (sub 75) - www.blender.org, source file: ''
element vertex 600
property float x
property float y
property float z
property float nx
property float ny
property float nz
property float s
property float t
element face 264
property list uchar uint vertex_indices
end_header
0.000000 0.258819 -0.965926 0.240299 0.371470 -0.896809 0.750000 0.583333
0.000000 0.500000 -0.866025 0.240299 0.371470 -0.896809 0.750000 0.666667
0.433013 0.500000 -0.750000 0.240299 0.371470 -0.896809 0.666667 0.666667
0.482963 0.258819 -0.836516 0.240299 0.371470 -0.896809 0.666667 0.583333
0.000000 -1.000000 -0.000000 0.034953 -0.990839 -0.130447 0.708333 0.000000
0.000000 -0.965926 -0.258819 0.034953 -0.990839 -0.130447 0.750000 0.083333
0.129409 -0.965926 -0.224144 0.034953 -0.990839 -0.130447 0.666667 0.083333
0.000000 0.866025 -0.500000 0.102005 0.919061 -0.380687 0.750000 0.833333
0.000000 0.965926 -0.258819 0.102005 0.919061 -0.380687 0.750000 0.916667
0.129409 0.965926 -0.224144 0.102005 0.919061 -0.380687 0.666667 0.916667
0.000000 0.866025 -0.500000 0.102005 0.919060 -0.380687 0.750000 0.833333
0.129409 0.965926 -0.224144 0.102005 0.919060 -0.380687 0.666667 0.916667
0.250000 0.866025 -0.433013 0.102005 0.919060 -0.380687 0.666667 0.833333
0.000000 -0.707107 -0.707107 0.207932 -0.595456 -0.776013 0.750000 0.250000
0.000000 -0.500000 -0.866026 0.207932 -0.595456 -0.776013 0.750000 0.333333
0.433013 -0.500000 -0.750000 0.207932 -0.595456 -0.776013 0.666667 0.333333
0.353553 -0.707107 -0.612373 0.207932 -0.595456 -0.776013 0.666667 0.250000
0.000000 0.000000 -1.000000 0.256751 0.126151 -0.958209 0.750000 0.500000
0.000000 0.258819 -0.965926 0.256751 0.126151 -0.958209 0.750000 0.583333
0.482963 0.258819 -0.836516 0.256751 0.126151 -0.958209 0.666667 0.583333
0.500000 0.000000 -0.866025 0.256751 0.126151 -0.958209 0.666667 0.500000
0.000000 0.707107 -0.707107 0.160989 0.783005 -0.600821 0.750000 0.750000
0.000000 0.866025 -0.500000 0.160989 0.783005 -0.600821 0.750000 0.833333
0.250000 0.866025 -0.433013 0.160989 0.783005 -0.600821 0.666667 0.833333
0.353553 0.707107 -0.612372 0.160989 0.783005 -0.600821 0.666667 0.750000
0.000000 -0.866025 -0.500000 0.160990 -0.783005 -0.600821 0.750000 0.166667
0.000000 -0.707107 -0.707107 0.160990 -0.783005 -0.600821 0.750000 0.250000
0.353553 -0.707107 -0.612373 0.160990 -0.783005 -0.600821 0.666667 0.250000
0.250000 -0.866025 -0.433013 0.160990 -0.783005 -0.600821 0.666667 0.166667
0.000000 -0.258819 -0.965926 0.256751 -0.126150 -0.958209 0.750000 0.416667
0.000000 0.000000 -1.000000 0.256751 -0.126150 -0.958209 0.750000 0.500000
0.500000 0.000000 -0.866025 0.256751 -0.126150 -0.958209 0.666667 0.500000
0.000000 -0.258819 -0.965926 0.256751 -0.126151 -0.958209 0.750000 0.416667
0.500000 0.000000 -0.866025 0.256751 -0.126151 -0.958209 0.666667 0.500000
0.482963 -0.258819 -0.836516 0.256751 -0.126151 -0.958209 0.666667 0.416667
0.000000 0.500000 -0.866025 0.207932 0.595456 -0.776013 0.750000 0.666667
0.000000 0.707107 -0.707107 0.207932 0.595456 -0.776013 0.750000 0.750000
0.353553 0.707107 -0.612372 0.207932 0.595456 -0.776013 0.666667 0.750000
0.433013 0.500000 -0.750000 0.207932 0.595456 -0.776013 0.666667 0.666667
0.000000 -0.965926 -0.258819 0.102005 -0.919060 -0.380688 0.750000 0.083333
0.000000 -0.866025 -0.500000 0.102005 -0.919060 -0.380688 0.750000 0.166667
0.250000 -0.866025 -0.433013 0.102005 -0.919060 -0.380688 0.666667 0.166667
0.129409 -0.965926 -0.224144 0.102005 -0.919060 -0.380688 0.666667 0.083333
0.000000 0.965926 -0.258819 0.034953 0.990839 -0.130446 0.750000 0.916667
-0.000000 1.000000 -0.000000 0.034953 0.990839 -0.130446 0.708333 1.000000
0.129409 0.965926 -0.224144 0.034953 0.990839 -0.130446 0.666667 0.916667
0.000000 -0.500000 -0.866026 0.240299 -0.371470 -0.896809 0.750000 0.333333
0.000000 -0.258819 -0.965926 0.240299 -0.371470 -0.896809 0.750000 0.416667
0.482963 -0.258819 -0.836516 0.240299 -0.371470 -0.896809 0.666667 0.416667
0.433013 -0.500000 -0.750000 0.240299 -0.371470 -0.896809 0.666667 0.333333
0.353553 0.707107 -0.612372 0.439831 0.783005 -0.439831 0.666667 0.750000
0.250000 0.866025 -0.433013 0.439831 0.783005 -0.439831 0.666667 0.833333
0.433012 0.866025 -0.250000 0.439831 0.783005 -0.439831 0.583333 0.833333
0.612372 0.707107 -0.353554 0.439831 0.783005 -0.439831 0.583333 0.750000
0.250000 -0.866025 -0.433013 0.439832 -0.783005 -0.439832 0.666667 0.166667
0.353553 -0.707107 -0.612373 0.439832 -0.783005 -0.439832 0.666667 0.250000
0.612372 -0.707107 -0.353554 0.439832 -0.783005 -0.439832 0.583333 0.250000
0.433013 -0.866025 -0.250000 0.439832 -0.783005 -0.439832 0.583333 0.166667
0.482963 -0.258819 -0.836516 0.701458 -0.126151 -0.701458 0.666667 0.416667
0.500000 0.000000 -0.866025 0.701458 -0.126151 -0.701458 0.666667 0.500000
0.866025 0.000000 -0.500000 0.701458 -0.126151 -0.701458 0.583333 0.500000
0.482963 -0.258819 -0.836516 0.701458 -0.126150 -0.701458 0.666667 0.416667
0.866025 0.000000 -0.500000 0.701458 -0.126150 -0.701458 0.583333 0.500000
0.836516 -0.258819 -0.482963 0.701458 -0.126150 -0.701458 0.583333 0.416667
0.433013 0.500000 -0.750000 0.568081 0.595456 -0.568081 0.666667 0.666667
0.353553 0.707107 -0.612372 0.568081 0.595456 -0.568081 0.666667 0.750000
0.612372 0.707107 -0.353554 0.568081 0.595456 -0.568081 0.583333 0.750000
0.750000 0.500000 -0.433013 0.568081 0.595456 -0.568081 0.583333 0.666667
0.129409 -0.965926 -0.224144 0.278683 -0.919060 -0.278683 0.666667 0.083333
0.250000 -0.866025 -0.433013 0.278683 -0.919060 -0.278683 0.666667 0.166667
0.433013 -0.866025 -0.250000 0.278683 -0.919060 -0.278683 0.583333 0.166667
0.224144 -0.965926 -0.129410 0.278683 -0.919060 -0.278683 0.583334 0.083333
0.129409 0.965926 -0.224144 0.095493 0.990839 -0.095493 0.666667 0.916667
-0.000000 1.000000 -0.000000 0.095493 0.990839 -0.095493 0.625000 1.000000
0.224144 0.965926 -0.129410 0.095493 0.990839 -0.095493 0.583334 0.916667
0.433013 -0.500000 -0.750000 0.656510 -0.371470 -0.656510 0.666667 0.333333
0.482963 -0.258819 -0.836516 0.656510 -0.371470 -0.656510 0.666667 0.416667
0.836516 -0.258819 -0.482963 0.656510 -0.371470 -0.656510 0.583333 0.416667
0.750000 -0.500000 -0.433013 0.656510 -0.371470 -0.656510 0.583333 0.333333
0.482963 0.258819 -0.836516 0.656510 0.371470 -0.656510 0.666667 0.583333
0.433013 0.500000 -0.750000 0.656510 0.371470 -0.656510 0.666667 0.666667
0.750000 0.500000 -0.433013 0.656510 0.371470 -0.656510 0.583333 0.666667
0.836516 0.258819 -0.482963 0.656510 0.371470 -0.656510 0.583333 0.583333
0.000000 -1.000000 -0.000000 0.095494 -0.990839 -0.095494 0.625000 0.000000
0.129409 -0.965926 -0.224144 0.095494 -0.990839 -0.095494 0.666667 0.083333
0.224144 -0.965926 -0.129410 0.095494 -0.990839 -0.095494 0.583334 0.083333
0.250000 0.866025 -0.433013 0.278682 0.919060 -0.278682 0.666667 0.833333
0.129409 0.965926 -0.224144 0.278682 0.919060 -0.278682 0.666667 0.916667
0.224144 0.965926 -0.129410 0.278682 0.919060 -0.278682 0.583334 0.916667
0.250000 0.866025 -0.433013 0.278683 0.919061 -0.278682 0.666667 0.833333
0.224144 0.965926 -0.129410 0.278683 0.919061 -0.278682 0.583334 0.916667
0.433012 0.866025 -0.250000 0.278683 0.919061 -0.278682 0.583333 0.833333
0.353553 -0.707107 -0.612373 0.568081 -0.595456 -0.568081 0.666667 0.250000
0.433013 -0.500000 -0.750000 0.568081 -0.595456 -0.568081 0.666667 0.333333
0.750000 -0.500000 -0.433013 0.568081 -0.595456 -0.568081 0.583333 0.333333
0.612372 -0.707107 -0.353554 0.568081 -0.595456 -0.568081 0.583333 0.250000
0.500000 0.000000 -0.866025 0.701458 0.126151 -0.701458 0.666667 0.500000
0.482963 0.258819 -0.836516 0.701458 0.126151 -0.701458 0.666667 0.583333
0.836516 0.258819 -0.482963 0.701458 0.126151 -0.701458 0.583333 0.583333
0.866025 0.000000 -0.500000 0.701458 0.126151 -0.701458 0.583333 0.500000
0.000000 -1.000000 -0.000000 0.130447 -0.990839 -0.034953 0.541667 0.000000
0.224144 -0.965926 -0.129410 0.130447 -0.990839 -0.034953 0.583334 0.083333
0.258819 -0.965926 -0.000000 0.130447 -0.990839 -0.034953 0.500000 0.083333
0.433012 0.866025 -0.250000 0.380687 0.919060 -0.102005 0.583333 0.833333
0.224144 0.965926 -0.129410 0.380687 0.919060 -0.102005 0.583334 0.916667
0.258819 0.965926 -0.000000 0.380687 0.919060 -0.102005 0.500000 0.916667
0.433012 0.866025 -0.250000 0.380687 0.919061 -0.102005 0.583333 0.833333
0.258819 0.965926 -0.000000 0.380687 0.919061 -0.102005 0.500000 0.916667
0.500000 0.866025 -0.000000 0.380687 0.919061 -0.102005 0.500000 0.833333
0.612372 -0.707107 -0.353554 0.776013 -0.595456 -0.207932 0.583333 0.250000
0.750000 -0.500000 -0.433013 0.776013 -0.595456 -0.207932 0.583333 0.333333
0.866025 -0.500000 -0.000000 0.776013 -0.595456 -0.207932 0.500000 0.333333
0.707107 -0.707107 -0.000000 0.776013 -0.595456 -0.207932 0.500000 0.250000
0.866025 0.000000 -0.500000 0.958209 0.126151 -0.256751 0.583333 0.500000
0.836516 0.258819 -0.482963 0.958209 0.126151 -0.256751 0.583333 0.583333
0.965925 0.258819 -0.000000 0.958209 0.126151 -0.256751 0.500000 0.583333
1.000000 0.000000 -0.000000 0.958209 0.126151 -0.256751 0.500000 0.500000
0.612372 0.707107 -0.353554 0.600821 0.783005 -0.160989 0.583333 0.750000
0.433012 0.866025 -0.250000 0.600821 0.783005 -0.160989 0.583333 0.833333
0.500000 0.866025 -0.000000 0.600821 0.783005 -0.160989 0.500000 0.833333
0.707106 0.707107 -0.000000 0.600821 0.783005 -0.160989 0.500000 0.750000
0.433013 -0.866025 -0.250000 0.600821 -0.783005 -0.160990 0.583333 0.166667
0.612372 -0.707107 -0.353554 0.600821 -0.783005 -0.160990 0.583333 0.250000
0.707107 -0.707107 -0.000000 0.600821 -0.783005 -0.160990 0.500000 0.250000
0.433013 -0.866025 -0.250000 0.600821 -0.783005 -0.160989 0.583333 0.166667
0.707107 -0.707107 -0.000000 0.600821 -0.783005 -0.160989 0.500000 0.250000
0.500000 -0.866025 -0.000000 0.600821 -0.783005 -0.160989 0.500000 0.166667
0.836516 -0.258819 -0.482963 0.958209 -0.126150 -0.256751 0.583333 0.416667
0.866025 0.000000 -0.500000 0.958209 -0.126150 -0.256751 0.583333 0.500000
1.000000 0.000000 -0.000000 0.958209 -0.126150 -0.256751 0.500000 0.500000
0.836516 -0.258819 -0.482963 0.958209 -0.126150 -0.256752 0.583333 0.416667
1.000000 0.000000 -0.000000 0.958209 -0.126150 -0.256752 0.500000 0.500000
0.965926 -0.258819 -0.000000 0.958209 -0.126150 -0.256752 0.500000 0.416667
0.750000 0.500000 -0.433013 0.776013 0.595456 -0.207932 0.583333 0.666667
0.612372 0.707107 -0.353554 0.776013 0.595456 -0.207932 0.583333 0.750000
0.707106 0.707107 -0.000000 0.776013 0.595456 -0.207932 0.500000 0.750000
0.866025 0.500000 -0.000000 0.776013 0.595456 -0.207932 0.500000 0.666667
0.224144 -0.965926 -0.129410 0.380688 -0.919060 -0.102005 0.583334 0.083333
0.433013 -0.866025 -0.250000 0.380688 -0.919060 -0.102005 0.583333 0.166667
0.500000 -0.866025 -0.000000 0.380688 -0.919060 -0.102005 0.500000 0.166667
0.258819 -0.965926 -0.000000 0.380688 -0.919060 -0.102005 0.500000 0.083333
0.224144 0.965926 -0.129410 0.130447 0.990839 -0.034953 0.583334 0.916667
-0.000000 1.000000 -0.000000 0.130447 0.990839 -0.034953 0.541667 1.000000
0.258819 0.965926 -0.000000 0.130447 0.990839 -0.034953 0.500000 0.916667
0.750000 -0.500000 -0.433013 0.896809 -0.371470 -0.240299 0.583333 0.333333
0.836516 -0.258819 -0.482963 0.896809 -0.371470 -0.240299 0.583333 0.416667
0.965926 -0.258819 -0.000000 0.896809 -0.371470 -0.240299 0.500000 0.416667
0.866025 -0.500000 -0.000000 0.896809 -0.371470 -0.240299 0.500000 0.333333
0.836516 0.258819 -0.482963 0.896809 0.371470 -0.240299 0.583333 0.583333
0.750000 0.500000 -0.433013 0.896809 0.371470 -0.240299 0.583333 0.666667
0.866025 0.500000 -0.000000 0.896809 0.371470 -0.240299 0.500000 0.666667
0.965925 0.258819 -0.000000 0.896809 0.371470 -0.240299 0.500000 0.583333
0.866025 0.500000 -0.000000 0.776013 0.595456 0.207932 0.500000 0.666667
0.707106 0.707107 -0.000000 0.776013 0.595456 0.207932 0.500000 0.750000
0.612372 0.707107 0.353553 0.776013 0.595456 0.207932 0.416667 0.750000
0.750000 0.500000 0.433012 0.776013 0.595456 0.207932 0.416667 0.666667
0.258819 -0.965926 -0.000000 0.380688 -0.919060 0.102005 0.500000 0.083333
0.500000 -0.866025 -0.000000 0.380688 -0.919060 0.102005 0.500000 0.166667
0.433012 -0.866025 0.250000 0.380688 -0.919060 0.102005 0.416667 0.166667
0.224144 -0.965926 0.129409 0.380688 -0.919060 0.102005 0.416667 0.083333
0.258819 0.965926 -0.000000 0.130447 0.990839 0.034953 0.500000 0.916667
-0.000000 1.000000 -0.000000 0.130447 0.990839 0.034953 0.458334 1.000000
0.224144 0.965926 0.129409 0.130447 0.990839 0.034953 0.416667 0.916667
0.866025 -0.500000 -0.000000 0.896809 -0.371470 0.240299 0.500000 0.333333
0.965926 -0.258819 -0.000000 0.896809 -0.371470 0.240299 0.500000 0.416667
0.836516 -0.258819 0.482962 0.896809 -0.371470 0.240299 0.416667 0.416667
0.750000 -0.500000 0.433012 0.896809 -0.371470 0.240299 0.416667 0.333333
0.965925 0.258819 -0.000000 0.896809 0.371471 0.240299 0.500000 0.583333
0.866025 0.500000 -0.000000 0.896809 0.371471 0.240299 0.500000 0.666667
0.750000 0.500000 0.433012 0.896809 0.371471 0.240299 0.416667 0.666667
0.836516 0.258819 0.482962 0.896809 0.371471 0.240299 0.416667 0.583333
0.000000 -1.000000 -0.000000 0.130447 -0.990839 0.034953 0.458334 0.000000
0.258819 -0.965926 -0.000000 0.130447 -0.990839 0.034953 0.500000 0.083333
0.224144 -0.965926 0.129409 0.130447 -0.990839 0.034953 0.416667 0.083333
0.500000 0.866025 -0.000000 0.380687 0.919060 0.102005 0.500000 0.833333
0.258819 0.965926 -0.000000 0.380687 0.919060 0.102005 0.500000 0.916667
0.224144 0.965926 0.129409 0.380687 0.919060 0.102005 0.416667 0.916667
0.433012 0.866025 0.249999 0.380687 0.919060 0.102005 0.416667 0.833333
0.707107 -0.707107 -0.000000 0.776013 -0.595456 0.207932 0.500000 0.250000
0.866025 -0.500000 -0.000000 0.776013 -0.595456 0.207932 0.500000 0.333333
0.750000 -0.500000 0.433012 0.776013 -0.595456 0.207932 0.416667 0.333333
0.612372 -0.707107 0.353553 0.776013 -0.595456 0.207932 0.416667 0.250000
1.000000 0.000000 -0.000000 0.958209 0.126150 0.256751 0.500000 0.500000
0.965925 0.258819 -0.000000 0.958209 0.126150 0.256751 0.500000 0.583333
0.836516 0.258819 0.482962 0.958209 0.126150 0.256751 0.416667 0.583333
0.866025 0.000000 0.499999 0.958209 0.126150 0.256751 0.416667 0.500000
0.707106 0.707107 -0.000000 0.600821 0.783005 0.160990 0.500000 0.750000
0.500000 0.866025 -0.000000 0.600821 0.783005 0.160990 0.500000 0.833333
0.433012 0.866025 0.249999 0.600821 0.783005 0.160990 0.416667 0.833333
0.707106 0.707107 -0.000000 0.600821 0.783005 0.160989 0.500000 0.750000
0.433012 0.866025 0.249999 0.600821 0.783005 0.160989 0.416667 0.833333
0.612372 0.707107 0.353553 0.600821 0.783005 0.160989 0.416667 0.750000
0.500000 -0.866025 -0.000000 0.600821 -0.783005 0.160990 0.500000 0.166667
0.707107 -0.707107 -0.000000 0.600821 -0.783005 0.160990 0.500000 0.250000
0.612372 -0.707107 0.353553 0.600821 -0.783005 0.160990 0.416667 0.250000
0.433012 -0.866025 0.250000 0.600821 -0.783005 0.160990 0.416667 0.166667
0.965926 -0.258819 -0.000000 0.958209 -0.126150 0.256751 0.500000 0.416667
1.000000 0.000000 -0.000000 0.958209 -0.126150 0.256751 0.500000 0.500000
0.866025 0.000000 0.499999 0.958209 -0.126150 0.256751 0.416667 0.500000
0.836516 -0.258819 0.482962 0.958209 -0.126150 0.256751 0.416667 0.416667
0.612372 0.707107 0.353553 0.439831 0.783005 0.439831 0.416667 0.750000
0.433012 0.866025 0.249999 0.439831 0.783005 0.439831 0.416667 0.833333
0.250000 0.866025 0.433012 0.439831 0.783005 0.439831 0.333333 0.833334
0.353553 0.707107 0.612372 0.439831 0.783005 0.439831 0.333333 0.750000
0.433012 -0.866025 0.250000 0.439831 -0.783005 0.439831 0.416667 0.166667
0.612372 -0.707107 0.353553 0.439831 -0.783005 0.439831 0.416667 0.250000
0.353553 -0.707107 0.612372 0.439831 -0.783005 0.439831 0.333333 0.250000
0.250000 -0.866025 0.433012 0.439831 -0.783005 0.439831 0.333333 0.166667
0.836516 -0.258819 0.482962 0.701458 -0.126150 0.701458 0.416667 0.416667
0.866025 0.000000 0.499999 0.701458 -0.126150 0.701458 0.416667 0.500000
0.500000 0.000000 0.866025 0.701458 -0.126150 0.701458 0.333333 0.500000
0.482963 -0.258819 0.836516 0.701458 -0.126150 0.701458 0.333333 0.416667
0.750000 0.500000 0.433012 0.568081 0.595456 0.568081 0.416667 0.666667
0.612372 0.707107 0.353553 0.568081 0.595456 0.568081 0.416667 0.750000
0.353553 0.707107 0.612372 0.568081 0.595456 0.568081 0.333333 0.750000
0.433012 0.500000 0.749999 0.568081 0.595456 0.568081 0.333333 0.666667
0.224144 -0.965926 0.129409 0.278683 -0.919060 0.278683 0.416667 0.083333
0.433012 -0.866025 0.250000 0.278683 -0.919060 0.278683 0.416667 0.166667
0.250000 -0.866025 0.433012 0.278683 -0.919060 0.278683 0.333333 0.166667
0.129409 -0.965926 0.224143 0.278683 -0.919060 0.278683 0.333333 0.083333
0.224144 0.965926 0.129409 0.095494 0.990839 0.095494 0.416667 0.916667
-0.000000 1.000000 -0.000000 0.095494 0.990839 0.095494 0.375000 1.000000
0.129409 0.965926 0.224143 0.095494 0.990839 0.095494 0.333333 0.916667
0.750000 -0.500000 0.433012 0.656510 -0.371470 0.656510 0.416667 0.333333
0.836516 -0.258819 0.482962 0.656510 -0.371470 0.656510 0.416667 0.416667
0.482963 -0.258819 0.836516 0.656510 -0.371470 0.656510 0.333333 0.416667
0.433013 -0.500000 0.749999 0.656510 -0.371470 0.656510 0.333333 0.333333
0.836516 0.258819 0.482962 0.656510 0.371471 0.656510 0.416667 0.583333
0.750000 0.500000 0.433012 0.656510 0.371471 0.656510 0.416667 0.666667
0.433012 0.500000 0.749999 0.656510 0.371471 0.656510 0.333333 0.666667
0.836516 0.258819 0.482962 0.656509 0.371471 0.656510 0.416667 0.583333
0.433012 0.500000 0.749999 0.656509 0.371471 0.656510 0.333333 0.666667
0.482963 0.258819 0.836516 0.656509 0.371471 0.656510 0.333333 0.583333
0.000000 -1.000000 -0.000000 0.095494 -0.990839 0.095494 0.375000 0.000000
0.224144 -0.965926 0.129409 0.095494 -0.990839 0.095494 0.416667 0.083333
0.129409 -0.965926 0.224143 0.095494 -0.990839 0.095494 0.333333 0.083333
0.433012 0.866025 0.249999 0.278683 0.919060 0.278683 0.416667 0.833333
0.224144 0.965926 0.129409 0.278683 0.919060 0.278683 0.416667 0.916667
0.129409 0.965926 0.224143 0.278683 0.919060 0.278683 0.333333 0.916667
0.250000 0.866025 0.433012 0.278683 0.919060 0.278683 0.333333 0.833334
0.612372 -0.707107 0.353553 0.568081 -0.595456 0.568081 0.416667 0.250000
0.750000 -0.500000 0.433012 0.568081 -0.595456 0.568081 0.416667 0.333333
0.433013 -0.500000 0.749999 0.568081 -0.595456 0.568081 0.333333 0.333333
0.353553 -0.707107 0.612372 0.568081 -0.595456 0.568081 0.333333 0.250000
0.866025 0.000000 0.499999 0.701458 0.126150 0.701458 0.416667 0.500000
0.836516 0.258819 0.482962 0.701458 0.126150 0.701458 0.416667 0.583333
0.482963 0.258819 0.836516 0.701458 0.126150 0.701458 0.333333 0.583333
0.500000 0.000000 0.866025 0.701458 0.126150 0.701458 0.333333 0.500000
0.482963 0.258819 0.836516 0.240299 0.371471 0.896809 0.333333 0.583333
0.433012 0.500000 0.749999 0.240299 0.371471 0.896809 0.333333 0.666667
-0.000000 0.500000 0.866025 0.240299 0.371471 0.896809 0.250000 0.666667
-0.000000 0.258819 0.965925 0.240299 0.371471 0.896809 0.250000 0.583333
0.000000 -1.000000 -0.000000 0.034953 -0.990839 0.130447 0.291667 0.000000
0.129409 -0.965926 0.224143 0.034953 -0.990839 0.130447 0.333333 0.083333
0.000000 -0.965926 0.258819 0.034953 -0.990839 0.130447 0.250000 0.083333
0.250000 0.866025 0.433012 0.102005 0.919060 0.380687 0.333333 0.833334
0.129409 0.965926 0.224143 0.102005 0.919060 0.380687 0.333333 0.916667
0.000000 0.965926 0.258818 0.102005 0.919060 0.380687 0.250000 0.916667
-0.000000 0.866025 0.499999 0.102005 0.919060 0.380687 0.250000 0.833334
0.353553 -0.707107 0.612372 0.207932 -0.595456 0.776013 0.333333 0.250000
0.433013 -0.500000 0.749999 0.207932 -0.595456 0.776013 0.333333 0.333333
-0.000000 -0.500000 0.866025 0.207932 -0.595456 0.776013 0.250000 0.333333
-0.000000 -0.707107 0.707106 0.207932 -0.595456 0.776013 0.250000 0.250000
0.500000 0.000000 0.866025 0.256751 0.126150 0.958209 0.333333 0.500000
0.482963 0.258819 0.836516 0.256751 0.126150 0.958209 0.333333 0.583333
-0.000000 0.258819 0.965925 0.256751 0.126150 0.958209 0.250000 0.583333
-0.000000 0.000000 0.999999 0.256751 0.126150 0.958209 0.250000 0.500000
0.353553 0.707107 0.612372 0.160989 0.783005 0.600821 0.333333 0.750000
0.250000 0.866025 0.433012 0.160989 0.783005 0.600821 0.333333 0.833334
-0.000000 0.866025 0.499999 0.160989 0.783005 0.600821 0.250000 0.833334
-0.000000 0.707107 0.707106 0.160989 0.783005 0.600821 0.250000 0.750000
0.250000 -0.866025 0.433012 0.160989 -0.783005 0.600821 0.333333 0.166667
0.353553 -0.707107 0.612372 0.160989 -0.783005 0.600821 0.333333 0.250000
-0.000000 -0.707107 0.707106 0.160989 -0.783005 0.600821 0.250000 0.250000
-0.000000 -0.866025 0.499999 0.160989 -0.783005 0.600821 0.250000 0.166666
0.482963 -0.258819 0.836516 0.256751 -0.126150 0.958209 0.333333 0.416667
0.500000 0.000000 0.866025 0.256751 -0.126150 0.958209 0.333333 0.500000
-0.000000 0.000000 0.999999 0.256751 -0.126150 0.958209 0.250000 0.500000
-0.000000 -0.258819 0.965925 0.256751 -0.126150 0.958209 0.250000 0.416667
0.433012 0.500000 0.749999 0.207932 0.595456 0.776013 0.333333 0.666667
0.353553 0.707107 0.612372 0.207932 0.595456 0.776013 0.333333 0.750000
-0.000000 0.707107 0.707106 0.207932 0.595456 0.776013 0.250000 0.750000
-0.000000 0.500000 0.866025 0.207932 0.595456 0.776013 0.250000 0.666667
0.129409 -0.965926 0.224143 0.102005 -0.919060 0.380688 0.333333 0.083333
0.250000 -0.866025 0.433012 0.102005 -0.919060 0.380688 0.333333 0.166667
-0.000000 -0.866025 0.499999 0.102005 -0.919060 0.380688 0.250000 0.166666
0.000000 -0.965926 0.258819 0.102005 -0.919060 0.380688 0.250000 0.083333
0.129409 0.965926 0.224143 0.034953 0.990839 0.130447 0.333333 0.916667
-0.000000 1.000000 -0.000000 0.034953 0.990839 0.130447 0.291667 1.000000
0.000000 0.965926 0.258818 0.034953 0.990839 0.130447 0.250000 0.916667
0.433013 -0.500000 0.749999 0.240299 -0.371470 0.896809 0.333333 0.333333
0.482963 -0.258819 0.836516 0.240299 -0.371470 0.896809 0.333333 0.416667
-0.000000 -0.258819 0.965925 0.240299 -0.371470 0.896809 0.250000 0.416667
-0.000000 -0.500000 0.866025 0.240299 -0.371470 0.896809 0.250000 0.333333
-0.000000 0.500000 0.866025 -0.207932 0.595456 0.776013 0.250000 0.666667
-0.000000 0.707107 0.707106 -0.207932 0.595456 0.776013 0.250000 0.750000
-0.353553 0.707107 0.612372 -0.207932 0.595456 0.776013 0.166667 0.750000
-0.433012 0.500000 0.749999 -0.207932 0.595456 0.776013 0.166667 0.666667
0.000000 -0.965926 0.258819 -0.102005 -0.919060 0.380688 0.250000 0.083333
-0.000000 -0.866025 0.499999 -0.102005 -0.919060 0.380688 0.250000 0.166666
-0.250000 -0.866025 0.433012 -0.102005 -0.919060 0.380688 0.166667 0.166667
-0.129409 -0.965926 0.224143 -0.102005 -0.919060 0.380688 0.166667 0.083333
0.000000 0.965926 0.258818 -0.034953 0.990839 0.130447 0.250000 0.916667
-0.000000 1.000000 -0.000000 -0.034953 0.990839 0.130447 0.208333 1.000000
-0.129409 0.965926 0.224143 -0.034953 0.990839 0.130447 0.166667 0.916667
-0.000000 -0.500000 0.866025 -0.240299 -0.371470 0.896809 0.250000 0.333333
-0.000000 -0.258819 0.965925 -0.240299 -0.371470 0.896809 0.250000 0.416667
-0.482963 -0.258819 0.836516 -0.240299 -0.371470 0.896809 0.166667 0.416667
-0.433013 -0.500000 0.749999 -0.240299 -0.371470 0.896809 0.166667 0.333333
-0.000000 0.258819 0.965925 -0.240299 0.371471 0.896809 0.250000 0.583333
-0.000000 0.500000 0.866025 -0.240299 0.371471 0.896809 0.250000 0.666667
-0.433012 0.500000 0.749999 -0.240299 0.371471 0.896809 0.166667 0.666667
-0.482963 0.258819 0.836516 -0.240299 0.371471 0.896809 0.166667 0.583333
0.000000 -1.000000 -0.000000 -0.034953 -0.990839 0.130447 0.208333 0.000000
0.000000 -0.965926 0.258819 -0.034953 -0.990839 0.130447 0.250000 0.083333
-0.129409 -0.965926 0.224143 -0.034953 -0.990839 0.130447 0.166667 0.083333
-0.000000 0.866025 0.499999 -0.102005 0.919060 0.380687 0.250000 0.833334
0.000000 0.965926 0.258818 -0.102005 0.919060 0.380687 0.250000 0.916667
-0.129409 0.965926 0.224143 -0.102005 0.919060 0.380687 0.166667 0.916667
-0.000000 0.866025 0.499999 -0.102005 0.919060 0.380688 0.250000 0.833334
-0.129409 0.965926 0.224143 -0.102005 0.919060 0.380688 0.166667 0.916667
-0.250000 0.866025 0.433012 -0.102005 0.919060 0.380688 0.166667 0.833334
-0.000000 -0.707107 0.707106 -0.207932 -0.595456 0.776013 0.250000 0.250000
-0.000000 -0.500000 0.866025 -0.207932 -0.595456 0.776013 0.250000 0.333333
-0.433013 -0.500000 0.749999 -0.207932 -0.595456 0.776013 0.166667 0.333333
-0.353553 -0.707107 0.612372 -0.207932 -0.595456 0.776013 0.166667 0.250000
-0.000000 0.000000 0.999999 -0.256751 0.126151 0.958209 0.250000 0.500000
-0.000000 0.258819 0.965925 -0.256751 0.126151 0.958209 0.250000 0.583333
-0.482963 0.258819 0.836516 -0.256751 0.126151 0.958209 0.166667 0.583333
-0.000000 0.000000 0.999999 -0.256752 0.126150 0.958209 0.250000 0.500000
-0.482963 0.258819 0.836516 -0.256752 0.126150 0.958209 0.166667 0.583333
-0.500000 0.000000 0.866025 -0.256752 0.126150 0.958209 0.166667 0.500000
-0.000000 0.707107 0.707106 -0.160989 0.783005 0.600821 0.250000 0.750000
-0.000000 0.866025 0.499999 -0.160989 0.783005 0.600821 0.250000 0.833334
-0.250000 0.866025 0.433012 -0.160989 0.783005 0.600821 0.166667 0.833334
-0.000000 0.707107 0.707106 -0.160990 0.783005 0.600821 0.250000 0.750000
-0.250000 0.866025 0.433012 -0.160990 0.783005 0.600821 0.166667 0.833334
-0.353553 0.707107 0.612372 -0.160990 0.783005 0.600821 0.166667 0.750000
-0.000000 -0.866025 0.499999 -0.160989 -0.783005 0.600821 0.250000 0.166666
-0.000000 -0.707107 0.707106 -0.160989 -0.783005 0.600821 0.250000 0.250000
-0.353553 -0.707107 0.612372 -0.160989 -0.783005 0.600821 0.166667 0.250000
-0.000000 -0.866025 0.499999 -0.160990 -0.783005 0.600821 0.250000 0.166666
-0.353553 -0.707107 0.612372 -0.160990 -0.783005 0.600821 0.166667 0.250000
-0.250000 -0.866025 0.433012 -0.160990 -0.783005 0.600821 0.166667 0.166667
-0.000000 -0.258819 0.965925 -0.256752 -0.126151 0.958209 0.250000 0.416667
-0.000000 0.000000 0.999999 -0.256752 -0.126151 0.958209 0.250000 0.500000
-0.500000 0.000000 0.866025 -0.256752 -0.126151 0.958209 0.166667 0.500000
-0.000000 -0.258819 0.965925 -0.256751 -0.126150 0.958209 0.250000 0.416667
-0.500000 0.000000 0.866025 -0.256751 -0.126150 0.958209 0.166667 0.500000
-0.482963 -0.258819 0.836516 -0.256751 -0.126150 0.958209 0.166667 0.416667
-0.500000 0.000000 0.866025 -0.701458 0.126150 0.701458 0.166667 0.500000
-0.482963 0.258819 0.836516 -0.701458 0.126150 0.701458 0.166667 0.583333
-0.836516 0.258819 0.482962 -0.701458 0.126150 0.701458 0.083333 0.583333
-0.866025 0.000000 0.499999 -0.701458 0.126150 0.701458 0.083333 0.500000
-0.353553 0.707107 0.612372 -0.439831 0.783005 0.439831 0.166667 0.750000
-0.250000 0.866025 0.433012 -0.439831 0.783005 0.439831 0.166667 0.833334
-0.433012 0.866025 0.249999 -0.439831 0.783005 0.439831 0.083333 0.833333
-0.612372 0.707107 0.353553 -0.439831 0.783005 0.439831 0.083333 0.750000
-0.250000 -0.866025 0.433012 -0.439831 -0.783005 0.439831 0.166667 0.166667
-0.353553 -0.707107 0.612372 -0.439831 -0.783005 0.439831 0.166667 0.250000
-0.612372 -0.707107 0.353553 -0.439831 -0.783005 0.439831 0.083333 0.250000
-0.433013 -0.866025 0.249999 -0.439831 -0.783005 0.439831 0.083333 0.166667
-0.482963 -0.258819 0.836516 -0.701458 -0.126150 0.701458 0.166667 0.416667
-0.500000 0.000000 0.866025 -0.701458 -0.126150 0.701458 0.166667 0.500000
-0.866025 0.000000 0.499999 -0.701458 -0.126150 0.701458 0.083333 0.500000
-0.836516 -0.258819 0.482962 -0.701458 -0.126150 0.701458 0.083333 0.416667
-0.433012 0.500000 0.749999 -0.568081 0.595456 0.568081 0.166667 0.666667
-0.353553 0.707107 0.612372 -0.568081 0.595456 0.568081 0.166667 0.750000
-0.612372 0.707107 0.353553 -0.568081 0.595456 0.568081 0.083333 0.750000
-0.750000 0.500000 0.433012 -0.568081 0.595456 0.568081 0.083333 0.666667
-0.129409 -0.965926 0.224143 -0.278683 -0.919060 0.278683 0.166667 0.083333
-0.250000 -0.866025 0.433012 -0.278683 -0.919060 0.278683 0.166667 0.166667
-0.433013 -0.866025 0.249999 -0.278683 -0.919060 0.278683 0.083333 0.166667
-0.224144 -0.965926 0.129409 -0.278683 -0.919060 0.278683 0.083333 0.083333
-0.129409 0.965926 0.224143 -0.095494 0.990839 0.095494 0.166667 0.916667
-0.000000 1.000000 -0.000000 -0.095494 0.990839 0.095494 0.125000 1.000000
-0.224143 0.965926 0.129409 -0.095494 0.990839 0.095494 0.083333 0.916667
-0.433013 -0.500000 0.749999 -0.656510 -0.371470 0.656510 0.166667 0.333333
-0.482963 -0.258819 0.836516 -0.656510 -0.371470 0.656510 0.166667 0.416667
-0.836516 -0.258819 0.482962 -0.656510 -0.371470 0.656510 0.083333 0.416667
-0.750000 -0.500000 0.433012 -0.656510 -0.371470 0.656510 0.083333 0.333333
-0.482963 0.258819 0.836516 -0.656510 0.371471 0.656510 0.166667 0.583333
-0.433012 0.500000 0.749999 -0.656510 0.371471 0.656510 0.166667 0.666667
-0.750000 0.500000 0.433012 -0.656510 0.371471 0.656510 0.083333 0.666667
-0.482963 0.258819 0.836516 -0.656510 0.371471 0.656509 0.166667 0.583333
-0.750000 0.500000 0.433012 -0.656510 0.371471 0.656509 0.083333 0.666667
-0.836516 0.258819 0.482962 -0.656510 0.371471 0.656509 0.083333 0.583333
0.000000 -1.000000 -0.000000 -0.095494 -0.990839 0.095494 0.125000 0.000000
-0.129409 -0.965926 0.224143 -0.095494 -0.990839 0.095494 0.166667 0.083333
-0.224144 -0.965926 0.129409 -0.095494 -0.990839 0.095494 0.083333 0.083333
-0.250000 0.866025 0.433012 -0.278683 0.919060 0.278683 0.166667 0.833334
-0.129409 0.965926 0.224143 -0.278683 0.919060 0.278683 0.166667 0.916667
-0.224143 0.965926 0.129409 -0.278683 0.919060 0.278683 0.083333 0.916667
-0.433012 0.866025 0.249999 -0.278683 0.919060 0.278683 0.083333 0.833333
-0.353553 -0.707107 0.612372 -0.568081 -0.595456 0.568081 0.166667 0.250000
-0.433013 -0.500000 0.749999 -0.568081 -0.595456 0.568081 0.166667 0.333333
-0.750000 -0.500000 0.433012 -0.568081 -0.595456 0.568081 0.083333 0.333333
-0.353553 -0.707107 0.612372 -0.568081 -0.595455 0.568081 0.166667 0.250000
-0.750000 -0.500000 0.433012 -0.568081 -0.595455 0.568081 0.083333 0.333333
-0.612372 -0.707107 0.353553 -0.568081 -0.595455 0.568081 0.083333 0.250000
-0.836516 0.258819 0.482962 -0.896809 0.371471 0.240299 0.083333 0.583333
-0.750000 0.500000 0.433012 -0.896809 0.371471 0.240299 0.083333 0.666667
-0.866025 0.500000 -0.000000 -0.896809 0.371471 0.240299 0.000000 0.666667
-0.965925 0.258819 -0.000000 -0.896809 0.371471 0.240299 0.000000 0.583333
0.000000 -1.000000 -0.000000 -0.130447 -0.990839 0.034953 0.041666 0.000000
-0.224144 -0.965926 0.129409 -0.130447 -0.990839 0.034953 0.083333 0.083333
-0.258819 -0.965926 -0.000000 -0.130447 -0.990839 0.034953 0.000000 0.083333
-0.433012 0.866025 0.249999 -0.380687 0.919060 0.102005 0.083333 0.833333
-0.224143 0.965926 0.129409 -0.380687 0.919060 0.102005 0.083333 0.916667
-0.258819 0.965926 -0.000000 -0.380687 0.919060 0.102005 0.000000 0.916667
-0.499999 0.866025 -0.000000 -0.380687 0.919060 0.102005 0.000000 0.833333
-0.612372 -0.707107 0.353553 -0.776013 -0.595456 0.207932 0.083333 0.250000
-0.750000 -0.500000 0.433012 -0.776013 -0.595456 0.207932 0.083333 0.333333
-0.866025 -0.500000 -0.000000 -0.776013 -0.595456 0.207932 0.000000 0.333333
-0.707107 -0.707107 -0.000000 -0.776013 -0.595456 0.207932 0.000000 0.250000
-0.866025 0.000000 0.499999 -0.958209 0.126150 0.256751 0.083333 0.500000
-0.836516 0.258819 0.482962 -0.958209 0.126150 0.256751 0.083333 0.583333
-0.965925 0.258819 -0.000000 -0.958209 0.126150 0.256751 0.000000 0.583333
-0.999999 0.000000 -0.000001 -0.958209 0.126150 0.256751 0.000000 0.500000
-0.612372 0.707107 0.353553 -0.600821 0.783005 0.160989 0.083333 0.750000
-0.433012 0.866025 0.249999 -0.600821 0.783005 0.160989 0.083333 0.833333
-0.499999 0.866025 -0.000000 -0.600821 0.783005 0.160989 0.000000 0.833333
-0.707106 0.707107 -0.000001 -0.600821 0.783005 0.160989 0.000000 0.750000
-0.433013 -0.866025 0.249999 -0.600821 -0.783005 0.160989 0.083333 0.166667
-0.612372 -0.707107 0.353553 -0.600821 -0.783005 0.160989 0.083333 0.250000
-0.707107 -0.707107 -0.000000 -0.600821 -0.783005 0.160989 0.000000 0.250000
-0.500000 -0.866025 -0.000000 -0.600821 -0.783005 0.160989 0.000000 0.166667
-0.836516 -0.258819 0.482962 -0.958209 -0.126150 0.256751 0.083333 0.416667
-0.866025 0.000000 0.499999 -0.958209 -0.126150 0.256751 0.083333 0.500000
-0.999999 0.000000 -0.000001 -0.958209 -0.126150 0.256751 0.000000 0.500000
-0.965925 -0.258819 -0.000000 -0.958209 -0.126150 0.256751 0.000000 0.416667
-0.750000 0.500000 0.433012 -0.776013 0.595456 0.207932 0.083333 0.666667
-0.612372 0.707107 0.353553 -0.776013 0.595456 0.207932 0.083333 0.750000
-0.707106 0.707107 -0.000001 -0.776013 0.595456 0.207932 0.000000 0.750000
-0.866025 0.500000 -0.000000 -0.776013 0.595456 0.207932 0.000000 0.666667
-0.224144 -0.965926 0.129409 -0.380688 -0.919060 0.102005 0.083333 0.083333
-0.433013 -0.866025 0.249999 -0.380688 -0.919060 0.102005 0.083333 0.166667
-0.500000 -0.866025 -0.000000 -0.380688 -0.919060 0.102005 0.000000 0.166667
-0.258819 -0.965926 -0.000000 -0.380688 -0.919060 0.102005 0.000000 0.083333
-0.224143 0.965926 0.129409 -0.130447 0.990839 0.034953 0.083333 0.916667
-0.000000 1.000000 -0.000000 -0.130447 0.990839 0.034953 0.041666 1.000000
-0.258819 0.965926 -0.000000 -0.130447 0.990839 0.034953 0.000000 0.916667
-0.750000 -0.500000 0.433012 -0.896809 -0.371470 0.240299 0.083333 0.333333
-0.836516 -0.258819 0.482962 -0.896809 -0.371470 0.240299 0.083333 0.416667
-0.965925 -0.258819 -0.000000 -0.896809 -0.371470 0.240299 0.000000 0.416667
-0.866025 -0.500000 -0.000000 -0.896809 -0.371470 0.240299 0.000000 0.333333
-0.965925 -0.258819 -0.000000 -0.958209 -0.126150 -0.256752 1.000000 0.416667
-0.999999 0.000000 -0.000001 -0.958209 -0.126150 -0.256752 1.000000 0.500000
-0.866025 0.000000 -0.500000 -0.958209 -0.126150 -0.256752 0.916667 0.500000
-0.836516 -0.258819 -0.482963 -0.958209 -0.126150 -0.256752 0.916667 0.416667
-0.866025 0.500000 -0.000000 -0.776013 0.595456 -0.207932 1.000000 0.666667
-0.707106 0.707107 -0.000001 -0.776013 0.595456 -0.207932 1.000000 0.750000
-0.612372 0.707107 -0.353554 -0.776013 0.595456 -0.207932 0.916667 0.750000
-0.749999 0.500000 -0.433013 -0.776013 0.595456 -0.207932 0.916667 0.666667
-0.258819 -0.965926 -0.000000 -0.380688 -0.919060 -0.102005 1.000000 0.083333
-0.500000 -0.866025 -0.000000 -0.380688 -0.919060 -0.102005 1.000000 0.166667
-0.433012 -0.866025 -0.250000 -0.380688 -0.919060 -0.102005 0.916667 0.166667
-0.224144 -0.965926 -0.129410 -0.380688 -0.919060 -0.102005 0.916666 0.083333
-0.258819 0.965926 -0.000000 -0.130447 0.990839 -0.034953 1.000000 0.916667
-0.000000 1.000000 -0.000000 -0.130447 0.990839 -0.034953 0.958333 1.000000
-0.224143 0.965926 -0.129410 -0.130447 0.990839 -0.034953 0.916666 0.916667
-0.866025 -0.500000 -0.000000 -0.896809 -0.371470 -0.240299 1.000000 0.333333
-0.965925 -0.258819 -0.000000 -0.896809 -0.371470 -0.240299 1.000000 0.416667
-0.836516 -0.258819 -0.482963 -0.896809 -0.371470 -0.240299 0.916667 0.416667
-0.750000 -0.500000 -0.433013 -0.896809 -0.371470 -0.240299 0.916667 0.333333
-0.965925 0.258819 -0.000000 -0.896809 0.371471 -0.240299 1.000000 0.583333
-0.866025 0.500000 -0.000000 -0.896809 0.371471 -0.240299 1.000000 0.666667
-0.749999 0.500000 -0.433013 -0.896809 0.371471 -0.240299 0.916667 0.666667
-0.836516 0.258819 -0.482963 -0.896809 0.371471 -0.240299 0.916667 0.583333
0.000000 -1.000000 -0.000000 -0.130447 -0.990839 -0.034953 0.958333 0.000000
-0.258819 -0.965926 -0.000000 -0.130447 -0.990839 -0.034953 1.000000 0.083333
-0.224144 -0.965926 -0.129410 -0.130447 -0.990839 -0.034953 0.916666 0.083333
-0.499999 0.866025 -0.000000 -0.380687 0.919060 -0.102005 1.000000 0.833333
-0.258819 0.965926 -0.000000 -0.380687 0.919060 -0.102005 1.000000 0.916667
-0.224143 0.965926 -0.129410 -0.380687 0.919060 -0.102005 0.916666 0.916667
-0.433012 0.866025 -0.250000 -0.380687 0.919060 -0.102005 0.916667 0.833333
-0.707107 -0.707107 -0.000000 -0.776013 -0.595456 -0.207932 1.000000 0.250000
-0.866025 -0.500000 -0.000000 -0.776013 -0.595456 -0.207932 1.000000 0.333333
-0.750000 -0.500000 -0.433013 -0.776013 -0.595456 -0.207932 0.916667 0.333333
-0.707107 -0.707107 -0.000000 -0.776013 -0.595455 -0.207932 1.000000 0.250000
-0.750000 -0.500000 -0.433013 -0.776013 -0.595455 -0.207932 0.916667 0.333333
-0.612372 -0.707107 -0.353554 -0.776013 -0.595455 -0.207932 0.916667 0.250000
-0.999999 0.000000 -0.000001 -0.958209 0.126150 -0.256752 1.000000 0.500000
-0.965925 0.258819 -0.000000 -0.958209 0.126150 -0.256752 1.000000 0.583333
-0.836516 0.258819 -0.482963 -0.958209 0.126150 -0.256752 0.916667 0.583333
-0.866025 0.000000 -0.500000 -0.958209 0.126150 -0.256752 0.916667 0.500000
-0.707106 0.707107 -0.000001 -0.600821 0.783005 -0.160990 1.000000 0.750000
-0.499999 0.866025 -0.000000 -0.600821 0.783005 -0.160990 1.000000 0.833333
-0.433012 0.866025 -0.250000 -0.600821 0.783005 -0.160990 0.916667 0.833333
-0.612372 0.707107 -0.353554 -0.600821 0.783005 -0.160990 0.916667 0.750000
-0.500000 -0.866025 -0.000000 -0.600821 -0.783005 -0.160989 1.000000 0.166667
-0.707107 -0.707107 -0.000000 -0.600821 -0.783005 -0.160989 1.000000 0.250000
-0.612372 -0.707107 -0.353554 -0.600821 -0.783005 -0.160989 0.916667 0.250000
-0.500000 -0.866025 -0.000000 -0.600821 -0.783005 -0.160990 1.000000 0.166667
-0.612372 -0.707107 -0.353554 -0.600821 -0.783005 -0.160990 0.916667 0.250000
-0.433012 -0.866025 -0.250000 -0.600821 -0.783005 -0.160990 0.916667 0.166667
-0.866025 0.000000 -0.500000 -0.701458 0.126150 -0.701458 0.916667 0.500000
-0.836516 0.258819 -0.482963 -0.701458 0.126150 -0.701458 0.916667 0.583333
-0.482963 0.258819 -0.836516 -0.701458 0.126150 -0.701458 0.833333 0.583333
-0.500000 0.000000 -0.866025 -0.701458 0.126150 -0.701458 0.833333 0.500000
-0.612372 0.707107 -0.353554 -0.439831 0.783005 -0.439831 0.916667 0.750000
-0.433012 0.866025 -0.250000 -0.439831 0.783005 -0.439831 0.916667 0.833333
-0.250000 0.866025 -0.433013 -0.439831 0.783005 -0.439831 0.833333 0.833333
-0.353553 0.707107 -0.612372 -0.439831 0.783005 -0.439831 0.833333 0.750000
-0.433012 -0.866025 -0.250000 -0.439831 -0.783005 -0.439831 0.916667 0.166667
-0.612372 -0.707107 -0.353554 -0.439831 -0.783005 -0.439831 0.916667 0.250000
-0.353553 -0.707107 -0.612373 -0.439831 -0.783005 -0.439831 0.833333 0.250000
-0.250000 -0.866025 -0.433013 -0.439831 -0.783005 -0.439831 0.833333 0.166667
-0.836516 -0.258819 -0.482963 -0.701458 -0.126150 -0.701458 0.916667 0.416667
-0.866025 0.000000 -0.500000 -0.701458 -0.126150 -0.701458 0.916667 0.500000
-0.500000 0.000000 -0.866025 -0.701458 -0.126150 -0.701458 0.833333 0.500000
-0.482963 -0.258819 -0.836516 -0.701458 -0.126150 -0.701458 0.833333 0.416667
-0.749999 0.500000 -0.433013 -0.568081 0.595456 -0.568081 0.916667 0.666667
-0.612372 0.707107 -0.353554 -0.568081 0.595456 -0.568081 0.916667 0.750000
-0.353553 0.707107 -0.612372 -0.568081 0.595456 -0.568081 0.833333 0.750000
-0.433012 0.500000 -0.750000 -0.568081 0.595456 -0.568081 0.833333 0.666667
-0.224144 -0.965926 -0.129410 -0.278683 -0.919060 -0.278683 0.916666 0.083333
-0.433012 -0.866025 -0.250000 -0.278683 -0.919060 -0.278683 0.916667 0.166667
-0.250000 -0.866025 -0.433013 -0.278683 -0.919060 -0.278683 0.833333 0.166667
-0.129409 -0.965926 -0.224144 -0.278683 -0.919060 -0.278683 0.833333 0.083333
-0.224143 0.965926 -0.129410 -0.095494 0.990839 -0.095494 0.916666 0.916667
-0.000000 1.000000 -0.000000 -0.095494 0.990839 -0.095494 0.875000 1.000000
-0.129409 0.965926 -0.224144 -0.095494 0.990839 -0.095494 0.833333 0.916667
-0.750000 -0.500000 -0.433013 -0.656510 -0.371470 -0.656510 0.916667 0.333333
-0.836516 -0.258819 -0.482963 -0.656510 -0.371470 -0.656510 0.916667 0.416667
-0.482963 -0.258819 -0.836516 -0.656510 -0.371470 -0.656510 0.833333 0.416667
-0.433012 -0.500000 -0.750000 -0.656510 -0.371470 -0.656510 0.833333 0.333333
-0.836516 0.258819 -0.482963 -0.656509 0.371471 -0.656510 0.916667 0.583333
-0.749999 0.500000 -0.433013 -0.656509 0.371471 -0.656510 0.916667 0.666667
-0.433012 0.500000 -0.750000 -0.656509 0.371471 -0.656510 0.833333 0.666667
-0.482963 0.258819 -0.836516 -0.656509 0.371471 -0.656510 0.833333 0.583333
0.000000 -1.000000 -0.000000 -0.095494 -0.990839 -0.095494 0.875000 0.000000
-0.224144 -0.965926 -0.129410 -0.095494 -0.990839 -0.095494 0.916666 0.083333
-0.129409 -0.965926 -0.224144 -0.095494 -0.990839 -0.095494 0.833333 0.083333
-0.433012 0.866025 -0.250000 -0.278683 0.919060 -0.278683 0.916667 0.833333
-0.224143 0.965926 -0.129410 -0.278683 0.919060 -0.278683 0.916666 0.916667
-0.129409 0.965926 -0.224144 -0.278683 0.919060 -0.278683 0.833333 0.916667
-0.433012 0.866025 -0.250000 -0.278682 0.919060 -0.278683 0.916667 0.833333
-0.129409 0.965926 -0.224144 -0.278682 0.919060 -0.278683 0.833333 0.916667
-0.250000 0.866025 -0.433013 -0.278682 0.919060 -0.278683 0.833333 0.833333
-0.612372 -0.707107 -0.353554 -0.568081 -0.595456 -0.568081 0.916667 0.250000
-0.750000 -0.500000 -0.433013 -0.568081 -0.595456 -0.568081 0.916667 0.333333
-0.433012 -0.500000 -0.750000 -0.568081 -0.595456 -0.568081 0.833333 0.333333
-0.612372 -0.707107 -0.353554 -0.568081 -0.595455 -0.568081 0.916667 0.250000
-0.433012 -0.500000 -0.750000 -0.568081 -0.595455 -0.568081 0.833333 0.333333
-0.353553 -0.707107 -0.612373 -0.568081 -0.595455 -0.568081 0.833333 0.250000
-0.433012 -0.500000 -0.750000 -0.240299 -0.371470 -0.896809 0.833333 0.333333
-0.482963 -0.258819 -0.836516 -0.240299 -0.371470 -0.896809 0.833333 0.416667
0.000000 -0.258819 -0.965926 -0.240299 -0.371470 -0.896809 0.750000 0.416667
0.000000 -0.500000 -0.866026 -0.240299 -0.371470 -0.896809 0.750000 0.333333
-0.482963 0.258819 -0.836516 -0.240300 0.371471 -0.896809 0.833333 0.583333
-0.433012 0.500000 -0.750000 -0.240300 0.371471 -0.896809 0.833333 0.666667
0.000000 0.500000 -0.866025 -0.240300 0.371471 -0.896809 0.750000 0.666667
-0.482963 0.258819 -0.836516 -0.240299 0.371470 -0.896809 0.833333 0.583333
0.000000 0.500000 -0.866025 -0.240299 0.371470 -0.896809 0.750000 0.666667
0.000000 0.258819 -0.965926 -0.240299 0.371470 -0.896809 0.750000 0.583333
0.000000 -1.000000 -0.000000 -0.034953 -0.990839 -0.130447 0.791667 0.000000
-0.129409 -0.965926 -0.224144 -0.034953 -0.990839 -0.130447 0.833333 0.083333
0.000000 -0.965926 -0.258819 -0.034953 -0.990839 -0.130447 0.750000 0.083333
-0.250000 0.866025 -0.433013 -0.102005 0.919060 -0.380687 0.833333 0.833333
-0.129409 0.965926 -0.224144 -0.102005 0.919060 -0.380687 0.833333 0.916667
0.000000 0.965926 -0.258819 -0.102005 0.919060 -0.380687 0.750000 0.916667
0.000000 0.866025 -0.500000 -0.102005 0.919060 -0.380687 0.750000 0.833333
-0.353553 -0.707107 -0.612373 -0.207932 -0.595456 -0.776013 0.833333 0.250000
-0.433012 -0.500000 -0.750000 -0.207932 -0.595456 -0.776013 0.833333 0.333333
0.000000 -0.500000 -0.866026 -0.207932 -0.595456 -0.776013 0.750000 0.333333
0.000000 -0.707107 -0.707107 -0.207932 -0.595456 -0.776013 0.750000 0.250000
-0.500000 0.000000 -0.866025 -0.256752 0.126150 -0.958209 0.833333 0.500000
-0.482963 0.258819 -0.836516 -0.256752 0.126150 -0.958209 0.833333 0.583333
0.000000 0.258819 -0.965926 -0.256752 0.126150 -0.958209 0.750000 0.583333
-0.500000 0.000000 -0.866025 -0.256752 0.126151 -0.958209 0.833333 0.500000
0.000000 0.258819 -0.965926 -0.256752 0.126151 -0.958209 0.750000 0.583333
0.000000 0.000000 -1.000000 -0.256752 0.126151 -0.958209 0.750000 0.500000
-0.353553 0.707107 -0.612372 -0.160990 0.783005 -0.600821 0.833333 0.750000
-0.250000 0.866025 -0.433013 -0.160990 0.783005 -0.600821 0.833333 0.833333
0.000000 0.866025 -0.500000 -0.160990 0.783005 -0.600821 0.750000 0.833333
-0.353553 0.707107 -0.612372 -0.160989 0.783005 -0.600821 0.833333 0.750000
0.000000 0.866025 -0.500000 -0.160989 0.783005 -0.600821 0.750000 0.833333
0.000000 0.707107 -0.707107 -0.160989 0.783005 -0.600821 0.750000 0.750000
-0.250000 -0.866025 -0.433013 -0.160989 -0.783005 -0.600821 0.833333 0.166667
-0.353553 -0.707107 -0.612373 -0.160989 -0.783005 -0.600821 0.833333 0.250000
0.000000 -0.707107 -0.707107 -0.160989 -0.783005 -0.600821 0.750000 0.250000
-0.250000 -0.866025 -0.433013 -0.160990 -0.783005 -0.600821 0.833333 0.166667
0.000000 -0.707107 -0.707107 -0.160990 -0.783005 -0.600821 0.750000 0.250000
0.000000 -0.866025 -0.500000 -0.160990 -0.783005 -0.600821 0.750000 0.166667
-0.482963 -0.258819 -0.836516 -0.256752 -0.126150 -0.958209 0.833333 0.416667
-0.500000 0.000000 -0.866025 -0.256752 -0.126150 -0.958209 0.833333 0.500000
0.000000 0.000000 -1.000000 -0.256752 -0.126150 -0.958209 0.750000 0.500000
0.000000 -0.258819 -0.965926 -0.256752 -0.126150 -0.958209 0.750000 0.416667
-0.433012 0.500000 -0.750000 -0.207932 0.595456 -0.776013 0.833333 0.666667
-0.353553 0.707107 -0.612372 -0.207932 0.595456 -0.776013 0.833333 0.750000
0.000000 0.707107 -0.707107 -0.207932 0.595456 -0.776013 0.750000 0.750000
0.000000 0.500000 -0.866025 -0.207932 0.595456 -0.776013 0.750000 0.666667
-0.129409 -0.965926 -0.224144 -0.102005 -0.919060 -0.380688 0.833333 0.083333
-0.250000 -0.866025 -0.433013 -0.102005 -0.919060 -0.380688 0.833333 0.166667
0.000000 -0.866025 -0.500000 -0.102005 -0.919060 -0.380688 0.750000 0.166667
0.000000 -0.965926 -0.258819 -0.102005 -0.919060 -0.380688 0.750000 0.083333
-0.129409 0.965926 -0.224144 -0.034953 0.990839 -0.130447 0.833333 0.916667
-0.000000 1.000000 -0.000000 -0.034953 0.990839 -0.130447 0.791667 1.000000
0.000000 0.965926 -0.258819 -0.034953 0.990839 -0.130447 0.750000 0.916667
3 0 1 2
3 0 2 3
3 4 5 6
3 7 8 9
3 10 11 12
3 13 14 15
3 13 15 16
3 17 18 19
3 17 19 20
3 21 22 23
3 21 23 24
3 25 26 27
3 25 27 28
3 29 30 31
3 32 33 34
3 35 36 37
3 35 37 38
3 39 40 41
3 39 41 42
3 43 44 45
3 46 47 48
3 46 48 49
3 50 51 52
3 50 52 53
3 54 55 56
3 54 56 57
3 58 59 60
3 61 62 63
3 64 65 66
3 64 66 67
3 68 69 70
3 68 70 71
3 72 73 74
3 75 76 77
3 75 77 78
3 79 80 81
3 79 81 82
3 83 84 85
3 86 87 88
3 89 90 91
3 92 93 94
3 92 94 95
3 96 97 98
3 96 98 99
3 100 101 102
3 103 104 105
3 106 107 108
3 109 110 111
3 109 111 112
3 113 114 115
3 113 115 116
3 117 118 119
3 117 119 120
3 121 122 123
3 124 125 126
3 127 128 129
3 130 131 132
3 133 134 135
3 133 135 136
3 137 138 139
3 137 139 140
3 141 142 143
3 144 145 146
3 144 146 147
3 148 149 150
3 148 150 151
3 152 153 154
3 152 154 155
3 156 157 158
3 156 158 159
3 160 161 162
3 163 164 165
3 163 165 166
3 167 168 169
3 167 169 170
3 171 172 173
3 174 175 176
3 174 176 177
3 178 179 180
3 178 180 181
3 182 183 184
3 182 184 185
3 186 187 188
3 189 190 191
3 192 193 194
3 192 194 195
3 196 197 198
3 196 198 199
3 200 201 202
3 200 202 203
3 204 205 206
3 204 206 207
3 208 209 210
3 208 210 211
3 212 213 214
3 212 214 215
3 216 217 218
3 216 218 219
3 220 221 222
3 223 224 225
3 223 225 226
3 227 228 229
3 230 231 232
3 233 234 235
3 236 237 238
3 236 238 239
3 240 241 242
3 240 242 243
3 244 245 246
3 244 246 247
3 248 249 250
3 248 250 251
3 252 253 254
3 255 256 257
3 255 257 258
3 259 260 261
3 259 261 262
3 263 264 265
3 263 265 266
3 267 268 269
3 267 269 270
3 271 272 273
3 271 273 274
3 275 276 277
3 275 277 278
3 279 280 281
3 279 281 282
3 283 284 285
3 283 285 286
3 287 288 289
3 290 291 292
3 290 292 293
3 294 295 296
3 294 296 297
3 298 299 300
3 298 300 301
3 302 303 304
3 305 306 307
3 305 307 308
3 309 310 311
3 309 311 312
3 313 314 315
3 316 317 318
3 319 320 321
3 322 323 324
3 322 324 325
3 326 327 328
3 329 330 331
3 332 333 334
3 335 336 337
3 338 339 340
3 341 342 343
3 344 345 346
3 347 348 349
3 350 351 352
3 350 352 353
3 354 355 356
3 354 356 357
3 358 359 360
3 358 360 361
3 362 363 364
3 362 364 365
3 366 367 368
3 366 368 369
3 370 371 372
3 370 372 373
3 374 375 376
3 377 378 379
3 377 379 380
3 381 382 383
3 384 385 386
3 387 388 389
3 390 391 392
3 390 392 393
3 394 395 396
3 397 398 399
3 400 401 402
3 400 402 403
3 404 405 406
3 407 408 409
3 407 409 410
3 411 412 413
3 411 413 414
3 415 416 417
3 415 417 418
3 419 420 421
3 419 421 422
3 423 424 425
3 423 425 426
3 427 428 429
3 427 429 430
3 431 432 433
3 431 433 434
3 435 436 437
3 435 437 438
3 439 440 441
3 442 443 444
3 442 444 445
3 446 447 448
3 446 448 449
3 450 451 452
3 450 452 453
3 454 455 456
3 454 456 457
3 458 459 460
3 461 462 463
3 461 463 464
3 465 466 467
3 465 467 468
3 469 470 471
3 472 473 474
3 472 474 475
3 476 477 478
3 479 480 481
3 482 483 484
3 482 484 485
3 486 487 488
3 486 488 489
3 490 491 492
3 493 494 495
3 496 497 498
3 496 498 499
3 500 501 502
3 500 502 503
3 504 505 506
3 504 506 507
3 508 509 510
3 508 510 511
3 512 513 514
3 512 514 515
3 516 517 518
3 516 518 519
3 520 521 522
3 523 524 525
3 523 525 526
3 527 528 529
3 527 529 530
3 531 532 533
3 534 535 536
3 537 538 539
3 540 541 542
3 543 544 545
3 546 547 548
3 546 548 549
3 550 551 552
3 553 554 555
3 556 557 558
3 559 560 561
3 559 561 562
3 563 564 565
3 563 565 566
3 567 568 569
3 570 571 572
3 573 574 575
3 576 577 578
3 579 580 581
3 582 583 584
3 585 586 587
3 585 587 588
3 589 590 591
3 589 591 592
3 593 594 595
3 593 595 596
3 597 598 599
